<svg width="217" height="42" viewBox="0 0 217 42" fill="none" xmlns="http://www.w3.org/2000/svg">
<g clip-path="url(#clip0_102_9571)">
<path d="M118.983 0H117.638V42H118.983V0Z" fill="#231F20"/>
<path d="M105.839 33.9341L107.376 36.2749V33.9341H108.056V37.5571H107.406L105.868 35.2312V37.5571H105.188V33.9341H105.839Z" fill="#112369"/>
<path d="M66.5224 10.1535V17.9213H72.0672C72.6106 17.9782 73.1598 17.9134 73.6754 17.7315C74.1911 17.5497 74.6607 17.2552 75.0505 16.8693C75.4403 16.4833 75.7408 16.0154 75.9305 15.4988C76.1203 14.9822 76.1946 14.4297 76.1482 13.8808C76.1482 11.4357 74.8913 10.1535 71.8898 10.1535H66.5224ZM59.8539 31.8319V5.29297H72.9839C80.096 5.29297 82.7279 9.15452 82.7279 13.9106C82.7279 17.4442 80.7614 22.8563 71.7419 22.8563H66.5963V31.802L59.8539 31.8319Z" fill="#112369"/>
<path d="M84.8423 31.817H91.4369V20.6349H101.491V31.817H108.086V5.26318H101.491V14.8053H91.4369V5.26318H84.8423V31.817Z" fill="#112369"/>
<path d="M51.3667 5.26318V21.8723C51.3667 23.9596 51.3667 27.0608 46.9309 27.0608C46.1326 27.1498 45.325 27.029 44.5866 26.7103C43.8482 26.3916 43.2041 25.8857 42.7169 25.2419C42.3104 24.1843 42.1486 23.0472 42.2437 21.9171V5.26318H35.6787V20.1727C35.6787 23.8106 35.6787 28.507 40.6616 31.146C42.5355 32.1092 44.6059 32.6197 46.7091 32.637C47.8181 32.637 53.6142 32.4282 56.4383 27.7914C57.6036 25.4541 58.1148 22.8407 57.9169 20.2323V5.32283L51.3667 5.26318Z" fill="#112369"/>
<path d="M38.4141 36.0062C38.4306 36.2958 38.3852 36.5856 38.2811 36.856C38.198 37.0889 38.0355 37.2844 37.8227 37.4077C37.566 37.5536 37.2745 37.6259 36.9799 37.6164C36.6937 37.6239 36.4099 37.5625 36.1519 37.4375C35.9351 37.3149 35.7677 37.1197 35.6787 36.8858C35.568 36.6065 35.5176 36.3066 35.5309 36.0062V34.0083H36.2406V36.0807C36.217 36.2788 36.217 36.479 36.2406 36.6771C36.2943 36.7776 36.3702 36.8643 36.4624 36.9305C36.5914 36.9931 36.7333 37.0237 36.8764 37.02C37.0938 37.0419 37.3112 36.9777 37.4826 36.8411C37.6207 36.6135 37.678 36.3455 37.6453 36.0807V34.0083H38.355L38.4141 36.0062Z" fill="#112369"/>
<path d="M39.5675 33.9341L41.1052 36.2749V33.9341H41.8002V37.5571H41.1348L39.597 35.2312V37.5571H38.9169V33.9341H39.5675Z" fill="#112369"/>
<path d="M43.0865 33.9341H42.3768V37.5571H43.0865V33.9341Z" fill="#112369"/>
<path d="M44.0181 33.9341L44.9052 36.4687L44.9496 36.6178L45.0087 36.4538L45.9402 33.9341H46.6648L45.2601 37.5571H44.6391L43.2492 33.9341H44.0181Z" fill="#112369"/>
<path d="M49.4593 33.9341V34.605H47.4928V35.3654H49.3262V36.0214H47.4928V36.8862H49.5332V37.5571H46.7978V33.9341H49.4593Z" fill="#112369"/>
<path d="M51.5442 34.0086C51.7901 33.9952 52.0363 34.0307 52.2687 34.113C52.4542 34.1764 52.608 34.3101 52.6975 34.4858C52.809 34.6584 52.8658 34.8612 52.8601 35.0672C52.8644 35.3222 52.7687 35.5687 52.594 35.7531C52.4654 35.8826 52.3084 35.9796 52.1356 36.0363C52.2918 36.1741 52.4264 36.335 52.5349 36.5134L53.2446 37.6316H52.3722L51.9138 36.8713C51.7807 36.6775 51.6772 36.5283 51.5885 36.424C51.4998 36.3196 51.4407 36.26 51.4111 36.2153H51.2484H50.6422V37.7062H49.9473V34.0086H51.5442ZM51.8843 35.4996C51.9621 35.4712 52.0293 35.4191 52.0764 35.3505C52.0952 35.2771 52.0952 35.2002 52.0764 35.1269C52.0782 35.0702 52.0672 35.0139 52.0441 34.9623C52.021 34.9106 51.9866 34.8649 51.9434 34.8286C51.8167 34.7318 51.6575 34.689 51.4998 34.7094H50.5683V35.5443H51.3815C51.5534 35.5142 51.7186 35.4536 51.8695 35.3654L51.8843 35.4996Z" fill="#112369"/>
<path d="M53.8508 36.2896C53.863 36.4143 53.8981 36.5356 53.9543 36.6474C54.0288 36.7399 54.1255 36.8118 54.2352 36.8561C54.3851 36.9187 54.5462 36.9492 54.7084 36.9456C54.836 36.9624 54.9652 36.9624 55.0928 36.9456C55.1816 36.9151 55.259 36.8578 55.3146 36.7816C55.3649 36.7241 55.3914 36.6494 55.3885 36.5728C55.4125 36.5105 55.4125 36.4414 55.3885 36.379C55.3189 36.312 55.239 36.2566 55.152 36.215L54.5753 36.0659C54.3452 36.0194 54.1217 35.9443 53.9099 35.8423C53.7383 35.7702 53.5899 35.6514 53.4811 35.4994C53.3991 35.3428 53.3536 35.1694 53.3481 34.9924C53.3481 34.7989 53.4103 34.6105 53.5255 34.4557C53.6365 34.2774 53.8028 34.1411 53.9986 34.0681C54.2038 33.9779 54.4254 33.9321 54.6492 33.9339C54.8924 33.9295 55.1339 33.9752 55.3589 34.0681C55.5593 34.1543 55.733 34.2933 55.8617 34.4706C55.9735 34.6494 56.0348 34.8556 56.0391 35.067V35.2012H55.3589V35.067C55.3591 34.9932 55.3433 34.9203 55.3127 34.8534C55.282 34.7864 55.2373 34.7271 55.1815 34.6794C55.0368 34.5721 54.8572 34.5241 54.6788 34.5451C54.5076 34.5299 54.3361 34.5718 54.1909 34.6644C54.1522 34.6914 54.1202 34.7269 54.0971 34.7683C54.074 34.8096 54.0606 34.8557 54.0578 34.903C54.0566 34.9422 54.0638 34.9812 54.0791 35.0173C54.0945 35.0533 54.1175 35.0856 54.1465 35.1117C54.3307 35.2142 54.5306 35.2848 54.7379 35.3205C55.0022 35.3637 55.2603 35.4388 55.5068 35.5441C55.6974 35.6259 55.8651 35.7539 55.9948 35.9168C56.0883 36.091 56.139 36.2853 56.1426 36.4834C56.1389 36.6834 56.0828 36.8789 55.98 37.05C55.8638 37.2423 55.6867 37.3894 55.4772 37.4674C55.2655 37.571 55.0324 37.6221 54.7971 37.6165C54.5186 37.6259 54.2413 37.5751 53.9838 37.4674C53.7636 37.3795 53.5771 37.2227 53.4516 37.0201C53.3234 36.8196 53.2518 36.5877 53.2445 36.3492V36.2299L53.9247 36.1554L53.8508 36.2896Z" fill="#112369"/>
<path d="M57.222 33.9341H56.527V37.5571H57.222V33.9341Z" fill="#112369"/>
<path d="M57.5473 34.605V33.9341H60.4306V34.605H59.3364V37.5571H58.6415V34.605H57.5473Z" fill="#112369"/>
<path d="M62.2788 34.0083L63.7574 37.6313H62.9738L62.5745 36.6175H61.3769L61.0072 37.6313H60.2679L61.643 34.0083H62.2788ZM62.0423 35.2458L61.9535 34.9774C61.9355 35.0492 61.9108 35.1191 61.8796 35.1862L61.5839 35.9912H62.3232L62.0423 35.2458Z" fill="#112369"/>
<path d="M64.3341 36.2896C64.3437 36.4168 64.3844 36.5397 64.4524 36.6474C64.5237 36.7432 64.6214 36.8158 64.7333 36.8561C64.8729 36.9186 65.0243 36.9491 65.1769 36.9456C65.3094 36.9638 65.4437 36.9638 65.5761 36.9456C65.665 36.9151 65.7424 36.8578 65.7979 36.7816C65.8483 36.7241 65.8747 36.6494 65.8719 36.5729C65.8958 36.5105 65.8958 36.4414 65.8719 36.379C65.7989 36.3091 65.7136 36.2536 65.6205 36.215L65.0586 36.0659C64.8245 36.0165 64.5965 35.9415 64.3784 35.8423C64.2176 35.7656 64.0799 35.6473 63.9792 35.4994C63.8822 35.3429 63.8307 35.1621 63.8307 34.9775C63.8307 34.793 63.8822 34.6121 63.9792 34.4557C64.0902 34.2774 64.2566 34.1411 64.4524 34.0681C64.6628 33.9779 64.8892 33.9323 65.1178 33.9339C65.3561 33.9294 65.5928 33.9751 65.8127 34.0681C66.0155 34.1501 66.1902 34.29 66.3154 34.4706C66.4272 34.6494 66.4886 34.8556 66.4928 35.067V35.2012H65.8275V35.067C65.8169 34.9172 65.7478 34.7778 65.6353 34.6794C65.4951 34.5744 65.3209 34.5265 65.1474 34.5451C64.9713 34.5276 64.7944 34.5696 64.6446 34.6644C64.6059 34.6914 64.5739 34.7269 64.5509 34.7683C64.5278 34.8096 64.5143 34.8557 64.5115 34.903C64.5103 34.9422 64.5176 34.9812 64.5329 35.0173C64.5482 35.0534 64.5712 35.0856 64.6002 35.1117C64.7915 35.2099 64.9956 35.2802 65.2065 35.3205C65.4655 35.3655 65.7186 35.4405 65.9606 35.5441C66.1552 35.6085 66.3239 35.7349 66.4412 35.9043C66.5585 36.0737 66.6182 36.2769 66.6112 36.4834C66.6094 36.6859 66.5477 36.8832 66.4337 37.05C66.3232 37.2412 66.1509 37.3886 65.9458 37.4674C65.7296 37.5733 65.491 37.6245 65.2508 37.6165C64.9723 37.6259 64.695 37.5751 64.4376 37.4674C64.2173 37.3795 64.0308 37.2227 63.9053 37.0201C63.7771 36.8196 63.7055 36.5877 63.6983 36.3492V36.2299L64.3637 36.1554L64.3341 36.2896Z" fill="#112369"/>
<path d="M69.6571 34.0087C69.8293 33.9951 70.0024 33.9951 70.1746 34.0087C70.3448 34.0119 70.5101 34.066 70.6497 34.1643C70.7893 34.2625 70.8967 34.4004 70.9583 34.5603C71.0618 34.7755 71.0989 35.017 71.0646 35.2536C71.0303 35.4902 70.9263 35.711 70.766 35.8873C70.4693 36.1376 70.0871 36.2607 69.7014 36.2302H68.9769V37.587H68.282V34.0087H69.6571ZM70.219 35.4996C70.2686 35.455 70.3077 35.3997 70.3333 35.3377C70.3589 35.2758 70.3704 35.2088 70.3668 35.1418C70.3643 35.0409 70.3335 34.9427 70.2781 34.8585C70.2263 34.7882 70.1539 34.736 70.0711 34.7094H68.9769V35.4996H69.7014C69.879 35.532 70.0622 35.5003 70.219 35.4102V35.4996Z" fill="#112369"/>
<path d="M74.0781 33.9341V34.605H72.1115V35.3654H73.9598V36.0214H72.1115V36.8862H74.1668V37.5571H71.4166V33.9341H74.0781Z" fill="#112369"/>
<path d="M75.2314 33.9341V36.8862H76.8726V37.5571H74.5364V33.9341H75.2314Z" fill="#112369"/>
<path d="M77.952 33.9341H77.2571V37.5571H77.952V33.9341Z" fill="#112369"/>
<path d="M78.2477 34.605V33.9341H81.1458V34.605H80.0664V37.5571H79.3567V34.605H78.2477Z" fill="#112369"/>
<path d="M82.9793 34.0083L84.4579 37.6313H83.6595L83.2898 36.6175H82.0773L81.7077 37.6313H80.9684L82.3435 34.0083H82.9793ZM82.7723 35.2458L82.6688 34.9774C82.6508 35.0492 82.626 35.1191 82.5949 35.1862L82.2991 35.9912H83.0532L82.7723 35.2458Z" fill="#112369"/>
<path d="M86.5723 33.9341V35.3058H88.0361V33.9341H88.731V37.5571H88.0361V35.9767H86.5723V37.5571H85.8625V33.9341H86.5723Z" fill="#112369"/>
<path d="M90.8603 34.0083L92.3389 37.6313H91.4665L91.082 36.6175H89.9879L89.6182 37.6313H88.8641L90.2393 34.0083H90.8603ZM90.6237 35.2458C90.5897 35.1579 90.5601 35.0683 90.535 34.9774C90.517 35.0492 90.4922 35.1191 90.4611 35.1862L90.1653 35.9912H90.9046L90.6237 35.2458Z" fill="#112369"/>
<path d="M93.9949 34.0087C94.2408 33.9964 94.4868 34.0319 94.7194 34.1131C94.902 34.1816 95.0541 34.3138 95.1482 34.4858C95.2529 34.6616 95.3091 34.8623 95.3109 35.0673C95.3151 35.3223 95.2195 35.5688 95.0447 35.7532C94.9137 35.8795 94.7574 35.976 94.5863 36.0364C94.7343 36.1821 94.8681 36.3419 94.9856 36.5135L95.6953 37.6317H94.8229L94.3498 36.8714C94.2575 36.7147 94.1537 36.5651 94.0392 36.4241L93.847 36.2154H93.6844H93.093V37.7063H92.398V34.0087H93.9949ZM94.335 35.4997C94.4128 35.4713 94.48 35.4192 94.5272 35.3506C94.5712 35.284 94.5967 35.2068 94.6011 35.1269C94.6029 35.0703 94.5918 35.014 94.5688 34.9624C94.5457 34.9107 94.5112 34.865 94.468 34.8287C94.3355 34.7324 94.1719 34.6898 94.0097 34.7095H93.093V35.5444H93.9062C94.057 35.5063 94.2015 35.4461 94.335 35.3655V35.4997Z" fill="#112369"/>
<path d="M97.3809 34.0083L98.8595 37.6313H98.0611L97.6766 36.6175H96.479L96.1093 37.6313H95.37L96.7303 34.0083H97.3809ZM97.1591 35.2458C97.1333 35.1532 97.0986 35.0633 97.0556 34.9774C97.0556 34.9774 97.0556 35.1116 97.0556 35.1862L96.7599 35.9912H97.3809L97.1591 35.2458Z" fill="#112369"/>
<path d="M100.338 34.0085C100.515 33.9959 100.693 33.9959 100.87 34.0085C101.038 34.029 101.199 34.0848 101.344 34.1725C101.466 34.2814 101.566 34.413 101.639 34.5602C101.743 34.7753 101.78 35.0168 101.746 35.2534C101.711 35.4901 101.607 35.7109 101.447 35.8871C101.15 36.1375 100.768 36.2605 100.382 36.23H99.658V37.5868H98.8595V34.0085H100.338ZM100.9 35.4995C100.95 35.4548 100.989 35.3995 101.014 35.3375C101.04 35.2756 101.051 35.2086 101.048 35.1416C101.045 35.0407 101.015 34.9425 100.959 34.8584C100.907 34.788 100.835 34.7358 100.752 34.7093H99.658V35.4995H100.338C100.516 35.5318 100.699 35.5001 100.856 35.41L100.9 35.4995Z" fill="#112369"/>
<path d="M103.665 34.0083L105.144 37.6313H104.36L103.975 36.6175H102.793L102.408 37.6313H101.654L103.029 34.0083H103.665ZM103.428 35.2458C103.403 35.1532 103.368 35.0633 103.325 34.9774C103.331 35.0468 103.331 35.1167 103.325 35.1862L103.029 35.9912H103.768L103.428 35.2458Z" fill="#112369"/>
<path d="M0.310498 19.621C0.586133 16.4118 1.79962 13.3572 3.79746 10.8437C5.79529 8.33014 8.48766 6.47066 11.5339 5.50054C14.5801 4.53042 17.8432 4.49326 20.9104 5.39375C23.9775 6.29425 26.7109 8.09195 28.7645 10.5593C30.8181 13.0267 32.0998 16.0529 32.4472 19.255C32.7947 22.4571 32.1923 25.6912 30.7164 28.5479C29.2405 31.4047 26.9573 33.7558 24.1558 35.3038C21.3543 36.8518 18.1604 37.527 14.9782 37.244C12.8675 37.0583 10.8137 36.455 8.93413 35.4688C7.05459 34.4826 5.38614 33.1327 4.02407 31.4962C2.66199 29.8597 1.63297 27.9687 0.995788 25.9311C0.358605 23.8935 0.12575 21.7493 0.310498 19.621Z" fill="#ED1C24"/>
<path d="M0.547024 19.6209C0.819364 16.4593 2.0155 13.4502 3.98412 10.9742C5.95274 8.49824 8.60537 6.66661 11.6065 5.71104C14.6076 4.75548 17.8224 4.7189 20.8442 5.60594C23.8659 6.49297 26.5589 8.26379 28.5824 10.6944C30.6059 13.1249 31.8691 16.106 32.2121 19.2606C32.5551 22.4151 31.9626 25.6014 30.5095 28.4164C29.0563 31.2313 26.8079 33.5484 24.0485 35.0746C21.2892 36.6008 18.143 37.2675 15.0078 36.9904C10.8065 36.6191 6.9234 34.5809 4.21181 31.3239C1.50023 28.0669 0.18208 23.8575 0.547024 19.6209ZM14.9634 37.5123C18.7426 37.8455 22.5194 36.847 25.6505 34.6872C28.7815 32.5273 31.073 29.3395 32.1345 25.667C33.196 21.9946 32.9618 18.0646 31.4719 14.5467C29.982 11.0288 27.3285 8.14057 23.9636 6.37421C20.5986 4.60784 16.7304 4.0726 13.0179 4.85964C9.30548 5.64669 5.97851 7.70732 3.60387 10.6905C1.22922 13.6736 -0.0461613 17.3947 -0.00501619 21.2198C0.036129 25.0449 1.39127 28.7372 3.82953 31.6677C6.62932 35.018 10.6343 37.1096 14.9634 37.4824V37.5123Z" fill="#112369"/>
<path d="M4.42103 19.9637C4.62864 17.5792 5.53262 15.3102 7.01874 13.4436C8.50485 11.577 10.5064 10.1964 12.7704 9.47653C15.0344 8.75662 17.4592 8.72958 19.7384 9.39891C22.0177 10.0682 24.0489 11.4038 25.5756 13.2369C27.1022 15.07 28.0557 17.3183 28.3155 19.6977C28.5752 22.077 28.1297 24.4806 27.0351 26.6047C25.9405 28.7288 24.246 30.478 22.1658 31.6313C20.0856 32.7845 17.713 33.2901 15.3479 33.0841C12.1741 32.8036 9.24055 31.2643 7.1917 28.8041C5.14284 26.344 4.14631 23.1643 4.42103 19.9637Z" fill="white"/>
<path d="M4.67237 19.9938C4.90721 17.6788 5.80857 15.4835 7.26539 13.6785C8.7222 11.8736 10.6709 10.5378 12.8713 9.83568C15.0716 9.1336 17.4276 9.09593 19.649 9.7273C21.8703 10.3587 23.86 11.6315 25.3728 13.389C26.6583 14.8822 27.5554 16.6743 27.9834 18.604C28.4114 20.5336 28.357 22.5403 27.825 24.4435C27.293 26.3467 26.3001 28.0866 24.9357 29.5068C23.5712 30.927 21.878 31.9828 20.0084 32.5794C18.1388 33.1759 16.1515 33.2944 14.2252 32.9242C12.2989 32.554 10.4941 31.7067 8.97313 30.4586C7.4522 29.2104 6.26289 27.6006 5.51216 25.7739C4.76143 23.9472 4.47283 21.9609 4.67237 19.9938ZM15.3183 33.3229C18.5614 33.6195 21.7885 32.6048 24.2897 30.5022C26.7909 28.3995 28.3612 25.3811 28.6553 22.111C28.9494 18.8408 27.9432 15.5868 25.858 13.0647C23.7728 10.5427 20.7793 8.95921 17.5362 8.66264C15.9343 8.52069 14.3204 8.69829 12.7865 9.1853C11.2526 9.6723 9.8289 10.4592 8.59662 11.501C7.36434 12.5428 6.34766 13.8191 5.60457 15.2572C4.86148 16.6952 4.40654 18.2667 4.26576 19.882C4.12499 21.4973 4.30112 23.1248 4.78409 24.6714C5.26707 26.2181 6.04742 27.6537 7.08061 28.8963C8.1138 30.1388 9.37961 31.164 10.8057 31.9133C12.2318 32.6626 13.7903 33.1213 15.3923 33.2633L15.3183 33.3229Z" fill="#112369"/>
<path d="M3.54866 33.2333L2.97198 34.3814C3.95465 34.6992 4.99547 34.7909 6.01791 34.6497C7.63481 34.4218 9.28015 34.7641 10.6755 35.6188C10.7535 35.6582 10.8396 35.6787 10.9269 35.6787C11.0141 35.6787 11.1002 35.6582 11.1783 35.6188C11.9346 35.1087 12.8484 34.8916 13.751 35.0076L17.9059 35.6338C18.9409 35.7828 20.0943 35.9916 20.0943 35.9916L26.0087 30.2663C26.0087 30.2663 26.3191 29.5507 25.6981 29.3121C25.0771 29.0736 25.2398 29.2376 25.2398 29.2376L19.5915 34.277L12.5238 33.5017L11.1783 33.9937C9.09827 33.3763 6.94396 33.0503 4.77588 33.0246L3.54866 33.2333Z" fill="#FFC20E"/>
<path d="M3.5043 33.2032L2.91283 34.3512C3.90154 34.6887 4.95537 34.7858 5.98835 34.6345C7.59363 34.4164 9.22486 34.7527 10.6164 35.5887C10.7024 35.6278 10.7956 35.648 10.8899 35.648C10.9842 35.648 11.0775 35.6278 11.1635 35.5887C11.9177 35.1003 12.8161 34.8896 13.7067 34.9923L17.7433 35.6036H17.8615L20.0351 35.9465L25.9495 30.2362C26.0298 30.0148 26.0298 29.7718 25.9495 29.5504C25.8725 29.3852 25.7345 29.2568 25.5651 29.1925C25.1067 29.0285 25.0475 29.0434 25.0032 29.1031C24.9588 29.1627 25.0032 29.1776 25.0032 29.2224V29.1329L19.3549 34.1723L12.2872 33.397L10.9417 33.8891C8.86239 33.2667 6.70807 32.9355 4.5393 32.905L3.37124 33.069L3.5043 33.2032ZM4.71673 33.2032C6.87912 33.2391 9.02717 33.565 11.1043 34.1723L12.4646 33.6952L19.5176 34.4556L25.1511 29.4013C25.2989 29.4283 25.4429 29.4733 25.5799 29.5355C25.6524 29.5547 25.7189 29.5921 25.7732 29.6442C25.8275 29.6964 25.8678 29.7616 25.8904 29.8337C25.9598 30.016 25.9598 30.2178 25.8904 30.4002L19.9759 36.1105L17.7728 35.7676H17.6693C16.6491 35.6185 15.0965 35.3949 13.6327 35.1563C12.7137 35.0349 11.7825 35.2578 11.0156 35.7825C10.946 35.8147 10.8704 35.8314 10.7938 35.8314C10.7173 35.8314 10.6416 35.8147 10.572 35.7825C9.15753 34.9206 7.49286 34.5733 5.85528 34.7985C4.86199 34.9307 3.85198 34.8391 2.89807 34.5301V34.6196L3.4895 33.4716L4.65761 33.3225L4.71673 33.2032Z" fill="#231F20"/>
<path d="M11.2522 34.7094C11.6682 34.4456 12.1337 34.2711 12.6196 34.1967C13.1055 34.1223 13.6014 34.1497 14.0763 34.277C16.1316 34.605 19.7542 35.1269 19.7837 35.1269L25.4172 29.6998L25.3433 29.6104L19.7098 35.0374L14.0024 34.2025C13.5059 34.0643 12.9861 34.0327 12.4768 34.1098C11.9674 34.1868 11.4796 34.3708 11.0452 34.6498L11.2522 34.7094Z" fill="#231F20"/>
<path d="M11.3114 34.9924C11.7308 34.7237 12.2008 34.5453 12.6919 34.4683C13.1829 34.3914 13.6845 34.4175 14.165 34.5451C16.2351 34.8731 19.8577 35.395 19.8872 35.4099L25.6834 29.9083L25.6094 29.8188L19.8133 35.3055L14.1059 34.4706C13.6084 34.3346 13.0881 34.3054 12.5786 34.3851C12.0692 34.4647 11.582 34.6513 11.1487 34.9328L11.3114 34.9924Z" fill="#231F20"/>
<path d="M11.2965 35.3353C12.1994 34.8405 13.2447 34.6771 14.2537 34.8731C16.3238 35.1563 19.9464 35.708 19.9759 35.7229L25.8904 30.1915L25.8016 30.1021L19.8872 35.6335C19.8872 35.6335 16.2351 35.0669 14.1798 34.7985C13.1325 34.5903 12.0459 34.7536 11.1043 35.2607L11.2965 35.3353Z" fill="#231F20"/>
<path d="M10.3798 28.3281L3.56342 33.2035C3.56342 33.2035 3.56342 33.3228 4.08094 33.3824C4.91393 33.4941 5.75487 33.5341 6.59458 33.5017C7.51718 33.4461 8.44292 33.5214 9.34476 33.7253C9.7814 33.8474 10.2069 34.007 10.6164 34.2025C10.8014 34.2455 10.9891 34.2754 11.1783 34.2919C11.7565 33.9731 12.4134 33.8282 13.0709 33.8745C14.5495 33.8745 19.7394 34.7392 19.7394 34.7392L25.432 29.2078C25.432 29.2078 20.3604 29.0885 18.7191 29.0139C17.9637 28.9261 17.1984 28.9972 16.4716 29.2227C16.4716 29.2227 16.0428 28.4772 14.0615 28.522C12.8311 28.5579 11.5998 28.4931 10.3798 28.3281Z" fill="white"/>
<path d="M10.3354 28.2832L3.51906 33.1586C3.51906 33.1586 3.59301 33.3226 4.09574 33.3971C4.92922 33.503 5.77004 33.5379 6.60934 33.5015C7.52216 33.4435 8.43855 33.5188 9.33001 33.7252C9.76383 33.8498 10.1887 34.0042 10.6016 34.1873C10.7909 34.237 10.9837 34.2719 11.1783 34.2917C11.2465 34.2797 11.3118 34.2544 11.3704 34.2172C11.9168 33.9873 12.5157 33.915 13.1004 34.0084C14.5051 34.0084 19.7098 34.8732 19.7542 34.8732L25.4468 29.3418L25.5503 29.2374H25.4024C25.4024 29.2374 20.316 29.1181 18.6896 29.0436C17.9234 28.9508 17.1465 29.0271 16.4125 29.2672H16.4864C16.4864 29.2672 16.0133 28.4919 14.032 28.5366C12.807 28.5627 11.5817 28.5029 10.365 28.3577L10.3354 28.2832ZM14.0763 28.5814C15.9689 28.5814 16.4273 29.2523 16.4273 29.2523C17.1442 29.0284 17.8995 28.9573 18.6452 29.0436C20.2569 29.1181 25.3137 29.2374 25.3581 29.2374V29.1479L19.6506 34.6645C19.6506 34.6645 14.3868 33.8146 12.9674 33.7997C12.3591 33.7494 11.7492 33.8735 11.2078 34.1575H11.0748C10.8898 34.1385 10.7068 34.1036 10.5277 34.0532C10.1097 33.8534 9.67406 33.6937 9.22649 33.576C8.32377 33.3781 7.39879 33.3029 6.47627 33.3524C5.63698 33.3814 4.79675 33.3465 3.96267 33.248C3.54866 33.248 3.4895 33.099 3.4895 33.099V33.1735L10.3058 28.2832C11.5523 28.4879 12.8135 28.5876 14.0763 28.5814Z" fill="#231F20"/>
<path d="M3.63739 33.6359C4.60726 33.8542 5.60485 33.9196 6.5946 33.8297C7.95612 33.6304 9.34471 33.8926 10.5424 34.5752L10.6312 34.4857C9.39906 33.7932 7.97784 33.5212 6.5798 33.7104C5.59011 33.8045 4.59186 33.7392 3.62259 33.5166L3.63739 33.6359Z" fill="#231F20"/>
<path d="M3.34164 34.2619C4.34866 34.4645 5.37813 34.5296 6.40237 34.4557C7.87844 34.3 9.36524 34.6239 10.646 35.3801V35.2757C9.34637 34.4975 7.83064 34.1677 6.32845 34.3364C5.33856 34.4057 4.34392 34.3405 3.37125 34.1426L3.34164 34.2619Z" fill="#231F20"/>
<path d="M3.5043 33.9188C4.46938 34.1678 5.4704 34.2435 6.46151 34.1425C7.84598 33.9768 9.2478 34.2366 10.4833 34.8879V34.7836C9.2183 34.125 7.78611 33.8652 6.3728 34.0381C5.38163 34.1349 4.38135 34.0592 3.41559 33.8145L3.5043 33.9188Z" fill="#231F20"/>
<path d="M4.83502 32.9201L7.46694 32.9946V32.8753L4.83502 32.8008V32.9201Z" fill="#231F20"/>
<path d="M8.25061 32.9945C8.78419 33.0416 9.31324 33.1313 9.83273 33.2629L10.3946 33.3821V33.2778L9.81793 33.1436C9.29659 33.0245 8.76808 32.9398 8.23581 32.8901L8.25061 32.9945Z" fill="#231F20"/>
<path d="M5.27863 32.5621L7.88097 32.6814L7.89576 32.5621L5.29341 32.4429L5.27863 32.5621Z" fill="#231F20"/>
<path d="M5.66306 32.2494L8.30976 32.3836L8.32454 32.2643L5.67784 32.1152L5.66306 32.2494Z" fill="#231F20"/>
<path d="M6.06229 31.9806L8.73856 32.0701L8.75335 31.9657L6.06229 31.8613V31.9806Z" fill="#231F20"/>
<path d="M6.49109 31.6828L9.16736 31.7573L9.18215 31.6529L6.49109 31.5635V31.6828Z" fill="#231F20"/>
<path d="M6.89029 31.3846L9.58135 31.4443V31.3399L6.89029 31.2803V31.3846Z" fill="#231F20"/>
<path d="M7.36346 31.0416L10.0102 31.146L10.025 31.0267L7.37825 30.9224L7.36346 31.0416Z" fill="#231F20"/>
<path d="M7.73056 30.6195L7.72775 30.7388L10.3885 30.8025L10.3913 30.6832L7.73056 30.6195Z" fill="#231F20"/>
<path d="M8.22104 30.4452L10.8677 30.5346V30.4154L8.22104 30.3408V30.4452Z" fill="#231F20"/>
<path d="M8.75333 30.1471L11.2965 30.2217V30.1024L8.75333 30.0278V30.1471Z" fill="#231F20"/>
<path d="M9.15256 29.8187L11.7105 29.9082V29.8038L9.15256 29.7144V29.8187Z" fill="#231F20"/>
<path d="M9.59613 29.506L12.1393 29.5955V29.4911L9.59613 29.3867V29.506Z" fill="#231F20"/>
<path d="M10.0102 29.2077L12.5534 29.2822V29.1778L10.0249 29.0884L10.0102 29.2077Z" fill="#231F20"/>
<path d="M10.365 28.8351C10.9828 28.9161 11.6051 28.9559 12.2281 28.9543C12.4792 28.9695 12.731 28.9695 12.9822 28.9543V28.8351H12.2281C11.6514 28.8351 11.0748 28.8351 10.3798 28.7158L10.365 28.8351Z" fill="#231F20"/>
<path d="M8.66461 32.6816C9.18772 32.7342 9.7065 32.8239 10.2171 32.95L10.7938 33.0841V32.9648L10.2319 32.8456C9.71929 32.6931 9.19509 32.5834 8.66461 32.5176V32.6816Z" fill="#231F20"/>
<path d="M9.03427 32.3835C9.57245 32.4247 10.1064 32.5094 10.6311 32.6369L11.193 32.7711V32.6518L10.6311 32.5176C10.1048 32.3988 9.5714 32.3141 9.03427 32.2642V32.3835Z" fill="#231F20"/>
<path d="M9.46307 32.0555C9.98982 32.1172 10.513 32.2068 11.0304 32.3239L11.607 32.4581V32.3388L11.0451 32.2195C10.5209 32.0869 9.98687 31.9971 9.44827 31.9512L9.46307 32.0555Z" fill="#231F20"/>
<path d="M9.84747 31.757C10.3816 31.7999 10.911 31.8897 11.4296 32.0254L12.0063 32.1446V32.0254L11.4296 31.9061C10.9104 31.7732 10.3812 31.6834 9.84747 31.6377V31.757Z" fill="#231F20"/>
<path d="M10.2615 31.444C10.7952 31.4897 11.3244 31.5794 11.8436 31.7123L12.4055 31.8316V31.7123L11.8289 31.5931C11.3036 31.4652 10.7699 31.3755 10.2319 31.3247L10.2615 31.444Z" fill="#231F20"/>
<path d="M10.6607 31.1312C11.1898 31.1753 11.7142 31.265 12.2281 31.3996L12.8047 31.5188V31.3996L12.2281 31.2803C11.7067 31.1612 11.1782 31.0766 10.6459 31.0269L10.6607 31.1312Z" fill="#231F20"/>
<path d="M11.0748 30.818C11.6037 30.8634 12.1279 30.9532 12.6421 31.0864L13.2187 31.2056V31.1013L12.6421 30.9671C12.1219 30.8389 11.5931 30.7492 11.06 30.6987L11.0748 30.818Z" fill="#231F20"/>
<path d="M11.474 30.505C12.0011 30.564 12.5244 30.6536 13.0413 30.7734L13.618 30.9076V30.7734L13.0561 30.6541C12.5353 30.5286 12.0068 30.439 11.474 30.3857V30.505Z" fill="#231F20"/>
<path d="M11.8732 30.2067C12.4064 30.2489 12.9354 30.3337 13.4553 30.4601L14.0171 30.5943V30.4751L13.4405 30.3409C12.9192 30.2218 12.3907 30.1371 11.8584 30.0874L11.8732 30.2067Z" fill="#231F20"/>
<path d="M12.2724 29.8937C12.8047 29.9434 13.3332 30.0281 13.8545 30.1472L14.4312 30.2813V30.1621L13.8545 30.0278C13.333 29.91 12.8045 29.8254 12.2724 29.7744V29.8937Z" fill="#231F20"/>
<path d="M12.6864 29.5358C13.2137 29.5865 13.7372 29.6712 14.2537 29.7892L14.8304 29.9234V29.8041L14.2685 29.6849C13.7493 29.552 13.2202 29.4622 12.6864 29.4165V29.5358Z" fill="#231F20"/>
<path d="M13.1004 29.2673C13.634 29.3143 14.1631 29.4041 14.6826 29.5356L15.2444 29.6549V29.5356L14.6826 29.4164C14.1532 29.2842 13.6143 29.1945 13.0709 29.1479L13.1004 29.2673Z" fill="#231F20"/>
<path d="M13.4849 28.9542C14.0186 28.9999 14.5478 29.0897 15.067 29.2226L15.6288 29.3419V29.2226L15.0522 29.1033C14.5303 28.9839 14.0021 28.8943 13.4701 28.835L13.4849 28.9542Z" fill="#231F20"/>
<path d="M13.3518 33.442L16.0133 33.7253L16.0281 33.606L13.3666 33.3228L13.3518 33.442Z" fill="#231F20"/>
<path d="M16.6343 33.7997L19.1331 34.2171L19.1479 34.0979L16.6639 33.6953L16.6343 33.7997Z" fill="#231F20"/>
<path d="M13.8014 33.0386L13.7892 33.1572L16.4366 33.4331L16.4487 33.3144L13.8014 33.0386Z" fill="#231F20"/>
<path d="M14.165 32.8305L16.8265 33.0988V32.9945L14.1798 32.6963L14.165 32.8305Z" fill="#231F20"/>
<path d="M14.579 32.5177L17.2257 32.801L17.2405 32.6817L14.579 32.3984V32.5177Z" fill="#231F20"/>
<path d="M14.9783 32.2042L17.625 32.4875L17.6398 32.3682L14.9931 32.085L14.9783 32.2042Z" fill="#231F20"/>
<path d="M15.3775 31.8915L18.0242 32.1748L18.039 32.0555L15.3775 31.7871V31.8915Z" fill="#231F20"/>
<path d="M15.7767 31.5783L18.4382 31.8615L18.453 31.7423L15.8063 31.459L15.7767 31.5783Z" fill="#231F20"/>
<path d="M16.1759 31.2802L18.8374 31.5486L18.8522 31.4442L16.1907 31.146L16.1759 31.2802Z" fill="#231F20"/>
<path d="M16.5899 30.9672L19.2514 31.2356V31.1312L16.5899 30.833V30.9672Z" fill="#231F20"/>
<path d="M16.9892 30.639L19.6359 30.9223L19.6654 30.8179L17.004 30.5347L16.9892 30.639Z" fill="#231F20"/>
<path d="M17.0335 33.5016L19.5472 33.9042L19.562 33.7849L17.0631 33.3823L17.0335 33.5016Z" fill="#231F20"/>
<path d="M17.4327 33.1886L19.9316 33.5763L19.9464 33.4719L17.4623 33.0693L17.4327 33.1886Z" fill="#231F20"/>
<path d="M17.8467 32.8756L20.3456 33.2782L20.3604 33.1589L17.8763 32.7563L17.8467 32.8756Z" fill="#231F20"/>
<path d="M18.246 32.5621L20.7448 32.9647L20.7744 32.8454L18.2755 32.4429L18.246 32.5621Z" fill="#231F20"/>
<path d="M18.66 32.2492L21.1441 32.6517L21.1736 32.5324L18.6748 32.1299L18.66 32.2492Z" fill="#231F20"/>
<path d="M19.0592 31.9362L21.5433 32.3387L21.5728 32.2195L19.074 31.8169L19.0592 31.9362Z" fill="#231F20"/>
<path d="M19.3401 31.5485L21.8242 31.9659L21.8538 31.8318L19.3549 31.4292L19.3401 31.5485Z" fill="#231F20"/>
<path d="M19.6359 31.1459L22.1347 31.5484L22.1495 31.4441L19.6507 31.0415L19.6359 31.1459Z" fill="#231F20"/>
<path d="M20.0499 30.8031L22.5339 31.2057L22.5635 31.1013L20.0647 30.6987L20.0499 30.8031Z" fill="#231F20"/>
<path d="M20.4048 30.4303L22.9036 30.8329L22.9184 30.7136L20.4195 30.311L20.4048 30.4303Z" fill="#231F20"/>
<path d="M20.8483 30.0873L23.3472 30.5047L23.362 30.3855L20.8631 29.9829L20.8483 30.0873Z" fill="#231F20"/>
<path d="M15.1409 26.5537C15.1672 27.0694 15.0602 27.5832 14.8304 28.0447C14.446 28.6858 13.9284 29.1629 13.6032 29.1629C13.2779 29.1629 12.8195 28.8647 12.4203 29.6251C12.551 29.479 12.731 29.3874 12.9252 29.3681C13.1193 29.3488 13.3136 29.4032 13.4701 29.5207C12.923 29.5207 12.6569 29.8189 12.6569 30.3109C12.7833 30.1127 12.9686 29.9598 13.1863 29.8741C13.4041 29.7884 13.6431 29.7744 13.8693 29.8338C14.3277 29.9531 14.4755 29.968 14.579 30.4749C14.8304 30.2662 14.7565 29.9531 14.4016 29.5654C14.5347 29.0138 14.86 29.0436 15.3923 29.6549C15.3923 29.6549 14.9043 28.8945 15.3923 28.4025C15.7824 28.0254 16.2259 27.7088 16.7082 27.4632L16.9892 27.329L15.1409 26.5537Z" fill="#FFC20E"/>
<path d="M15.0818 26.554C15.1123 27.07 15.0051 27.5849 14.7713 28.045C14.4164 28.6562 13.9137 29.1334 13.6032 29.1334C13.4904 29.1493 13.3759 29.1493 13.2631 29.1334C12.9378 29.1334 12.6864 29.0588 12.3611 29.6552H12.4499C12.5742 29.5193 12.7434 29.4338 12.9257 29.4146C13.108 29.3954 13.2911 29.4438 13.4405 29.5508V29.4315C12.8639 29.4315 12.5829 29.7596 12.5829 30.2963V30.505L12.7012 30.341C12.8138 30.148 12.9865 29.998 13.1925 29.9144C13.3984 29.8308 13.626 29.8183 13.8397 29.8788H13.9137C14.3129 29.9683 14.4164 29.9981 14.5199 30.4603V30.5497C14.7713 30.2963 14.7269 29.9534 14.3425 29.5508C14.3425 29.357 14.4608 29.2228 14.5495 29.2079C14.6382 29.193 14.86 29.2079 15.2296 29.6701H15.3184C15.3184 29.6701 14.8748 28.9395 15.2444 28.4922C15.6306 28.1143 16.075 27.8021 16.5604 27.5678L16.8413 27.4337H16.9448H16.8413L15.0522 26.6584H14.9635L15.0818 26.554ZM16.9005 27.2846L16.6195 27.4187C16.1322 27.6758 15.684 28.0022 15.2888 28.3879C14.8304 28.8948 15.2888 29.6701 15.2888 29.6999L15.3627 29.6254C15.0522 29.2526 14.7861 29.0886 14.5939 29.1334C14.4016 29.1781 14.3425 29.3123 14.2833 29.5806C14.7713 30.1174 14.5495 30.341 14.4608 30.4156H14.5643C14.4607 29.8937 14.2833 29.849 13.8693 29.7447C13.6299 29.6803 13.3762 29.6964 13.1467 29.7906C12.9173 29.8847 12.7245 30.0518 12.5977 30.2664H12.7012C12.7012 29.8043 12.9378 29.5657 13.4553 29.521H13.618L13.4849 29.4315C13.3192 29.3024 13.1112 29.2414 12.9027 29.2608C12.6942 29.2802 12.5007 29.3785 12.3611 29.5359L12.4499 29.6254C12.7308 29.0886 12.9082 29.1184 13.2187 29.1632H13.5884C13.9432 29.1632 14.4608 28.6562 14.8452 28.0002C15.0852 27.5415 15.2024 27.0276 15.1853 26.5093H15.1113L16.9005 27.2995V27.2846Z" fill="#231F20"/>
<path d="M15.8654 22.8115C15.8654 22.8115 16.9892 22.4984 17.344 22.9308C18.172 20.098 16.7378 19.3972 16.6491 19.2779C16.5604 18.935 16.0576 17.3695 18.1277 15.5356C20.1977 13.7018 21.2771 12.5538 22.5635 11.2715C24.2496 9.28995 25.6031 7.04381 26.5705 4.62192C27.5168 6.88816 26.6592 8.9904 23.1106 13.5676C24.8774 11.8961 26.2689 9.86263 27.1915 7.60382C27.2072 8.83704 26.9606 10.0593 26.4683 11.1884C25.976 12.3174 25.2496 13.3269 24.3378 14.1491C25.1181 13.4362 25.8264 12.6472 26.4522 11.7934C26.8932 11.1152 27.2884 10.4079 27.6351 9.67621C27.9752 11.4803 26.7036 13.8062 23.8499 16.6837C25.426 15.454 26.8244 14.0088 28.0048 12.3897C27.8865 14.1342 26.5261 16.1022 23.9386 18.3535C24.7015 17.9128 25.4027 17.3713 26.0234 16.7433C26.571 16.169 27.0892 15.5668 27.576 14.9393C27.2952 16.076 26.7765 17.1391 26.0548 18.0571C25.3331 18.9751 24.425 19.7269 23.3915 20.2619L24.5892 19.77C24.4173 20.5047 23.9659 21.1419 23.3324 21.5442H24.2195C23.946 22.1534 23.4773 22.6523 22.8888 22.9606L23.8203 22.8115C23.6891 23.0974 23.4962 23.3501 23.2557 23.5513C23.0153 23.7525 22.7333 23.897 22.4304 23.9744H23.1993C23.0179 24.2646 22.7702 24.5067 22.4769 24.6805C22.1837 24.8543 21.8534 24.9547 21.5137 24.9734L22.1199 25.3312C21.6942 25.6878 21.1853 25.929 20.6413 26.0319C21.5245 26.8491 22.6546 27.3427 23.8499 27.4334C25.6094 27.4334 26.0087 27.4334 25.92 27.8061C25.8312 28.1789 24.4414 29.0138 24.4414 29.0138H25.2102C25.0033 29.3439 24.7062 29.6068 24.3548 29.7707C24.0033 29.9347 23.6124 29.9928 23.2289 29.9382L23.909 30.1767C23.4227 30.5741 22.8028 30.7664 22.1791 30.7135L22.3417 31.116C21.7875 31.391 21.1651 31.4948 20.5526 31.4143L21.1884 31.9212C20.062 32.0921 18.9113 31.8768 17.9207 31.3099L18.0094 31.5335C15.4071 30.6837 16.6195 29.7295 16.5308 27.344C15.7593 27.1014 15.0854 26.6154 14.6086 25.9574L13.13 26.1214L13.5884 25.5846C13.023 25.8319 12.3891 25.8689 11.7993 25.689L12.3907 25.1821C11.7048 25.3622 10.977 25.2771 10.3503 24.9435L10.8677 24.5261C10.5796 24.5799 10.2823 24.5527 10.0085 24.4475C9.73465 24.3423 9.49482 24.1631 9.31521 23.9297L9.92145 23.5719C9.62738 23.5451 9.34266 23.4538 9.08725 23.3045C8.83184 23.1551 8.61191 22.9512 8.44284 22.7071L9.34477 22.7966C9.02401 22.6576 8.73507 22.4534 8.49595 22.1969C8.25683 21.9404 8.07265 21.637 7.95488 21.3056H8.81249C8.14686 20.9053 7.66369 20.2575 7.46696 19.5016C7.80102 19.6683 8.1784 19.7256 8.54635 19.6656C7.45125 18.9527 6.60766 17.909 6.13622 16.6837C6.84124 17.3037 7.6153 17.8391 8.44284 18.279C6.62416 16.5197 5.38211 14.984 5.32296 12.9563C6.21855 14.3681 7.41585 15.5601 8.82725 16.4451C5.57432 13.3589 4.14008 10.7199 4.58366 8.54312C4.90729 9.72715 5.48247 10.826 6.26929 11.7635C5.08641 9.03509 4.79067 8.17038 5.27861 7.0969L7.77745 11.4504C5.45604 7.33543 5.29341 4.93499 7.09731 4.35352C7.09731 4.35352 6.56502 5.75501 9.04907 9.02019C10.5314 10.7119 11.676 12.6761 12.4203 14.8051C12.5553 15.2661 12.5948 15.7502 12.5363 16.2273C12.4778 16.7044 12.3225 17.1643 12.0802 17.5783C11.8809 17.8269 11.7413 18.1186 11.6724 18.4307C11.6035 18.7428 11.6071 19.0667 11.683 19.3772C11.7589 19.6876 11.905 19.9761 12.1098 20.2201C12.3147 20.4641 12.5728 20.6571 12.8639 20.7838C14.3868 21.9169 15.8654 22.8115 15.8654 22.8115Z" fill="#112369"/>
<path d="M15.8802 22.8713C15.8802 22.8713 16.9744 22.5731 17.3588 22.9608V23.0353V22.9459C17.6694 22.0826 17.6953 21.1414 17.4327 20.2622C17.2942 19.8766 17.0477 19.54 16.723 19.2931C16.5923 18.6074 16.6625 17.8982 16.9251 17.2521C17.1877 16.606 17.6313 16.0511 18.2016 15.6551C19.8281 14.1642 20.8483 13.1802 21.839 12.1961L22.6227 11.4059C24.3237 9.45482 25.6747 7.21977 26.6149 4.80104V4.72647H26.5114C27.4281 6.94798 26.674 8.97567 23.0515 13.6722L23.1402 13.7467C24.8981 12.0676 26.2882 10.0361 27.2211 7.78294H27.1176C27.1257 9.00346 26.8784 10.212 26.3917 11.3295C25.9051 12.4471 25.1901 13.4486 24.2935 14.2686L24.3674 14.358C25.1483 13.6369 25.8657 12.8486 26.5114 12.0023C26.9345 11.3136 27.3196 10.6018 27.6647 9.87025H27.5612C27.8865 11.6296 26.6297 13.9704 23.776 16.8181L23.8647 16.9075C25.445 15.6769 26.8439 14.2261 28.0196 12.5987H27.916C27.8125 14.3133 26.4375 16.2813 23.8795 18.4581L23.9534 18.5625C24.7246 18.1156 25.4312 17.5638 26.053 16.9225C26.6031 16.3504 27.1214 15.7481 27.6055 15.1184H27.4873C27.2147 16.2468 26.7037 17.3026 25.9891 18.2135C25.2746 19.1244 24.3734 19.869 23.3472 20.3963V20.5007L24.5448 20.0236H24.4709C24.2861 20.7404 23.8434 21.3623 23.2289 21.768L23.0515 21.9022H23.2584H24.1604L24.0865 21.8276C23.8081 22.4163 23.3528 22.9015 22.7853 23.2143V23.3186L23.7021 23.1546V23.0801C23.5772 23.3591 23.3912 23.606 23.1582 23.8023C22.9251 23.9985 22.6511 24.139 22.3565 24.2132V24.3325H23.1106V24.243C22.9378 24.5276 22.6971 24.764 22.4104 24.9307C22.1237 25.0974 21.8002 25.189 21.4693 25.1972H21.2919L21.4545 25.3016L22.0608 25.6743V25.5699C21.64 25.9343 21.1289 26.1765 20.5822 26.2707H20.4935L20.5822 26.3601C21.4833 27.1767 22.6271 27.6695 23.8351 27.7616H24.4709C25.3137 27.7616 25.7425 27.7617 25.8312 27.8809C25.9199 28.0002 25.8312 27.8809 25.8312 28.03C25.7573 28.358 24.7962 28.9991 24.4266 29.2228L24.2639 29.3122H24.4561H25.225V29.2377C25.0253 29.5588 24.7371 29.8143 24.3958 29.9732C24.0545 30.132 23.6747 30.1873 23.3028 30.1322V30.2515L23.9682 30.4752V30.3857C23.4947 30.7736 22.8903 30.9607 22.2826 30.9076H22.1938V30.9821L22.3417 31.3846V31.3101C21.7996 31.5898 21.1851 31.6939 20.5822 31.6083H20.3604L20.5378 31.7425L21.1884 32.2494V32.1599C20.0749 32.3128 18.9425 32.0928 17.9651 31.5337L17.8172 31.4443V31.5934L17.8911 31.8468L17.9651 31.7574C16.1464 31.161 16.2351 30.5646 16.4125 29.342C16.5217 28.7774 16.5713 28.2026 16.5604 27.6274C15.805 27.3845 15.1435 26.9103 14.6678 26.2707L13.1892 26.4347V26.5242L13.6475 25.9725L13.5736 25.883C13.0277 26.1431 12.4046 26.1857 11.8289 26.0023V26.1067L12.4055 25.5997V25.4954C11.739 25.6733 11.0304 25.588 10.4242 25.2568V25.063L10.9269 24.6456L11.0896 24.5114H10.8825C10.6084 24.5561 10.3275 24.5272 10.068 24.4278C9.80842 24.3283 9.57941 24.1618 9.40393 23.9448V24.0193L10.0102 23.6615L10.1432 23.5721H9.951C9.6574 23.5572 9.37118 23.4741 9.11469 23.3293C8.8582 23.1844 8.63838 22.9818 8.4724 22.7371V22.8117L9.37437 22.9011V22.7819C9.06257 22.658 8.78019 22.4691 8.54577 22.2276C8.31135 21.9861 8.13017 21.6974 8.01404 21.3804V21.4549H8.87165V21.3506C8.23034 20.9438 7.76143 20.3116 7.55567 19.5763L7.46696 19.6509C7.81714 19.8167 8.20689 19.8788 8.59071 19.8298H8.73854L8.60547 19.7254C7.52187 19.0036 6.68543 17.9623 6.21014 16.7435H6.12142C6.84011 17.3569 7.61779 17.8963 8.44284 18.3538L8.51676 18.2494C6.65371 16.4453 5.48561 14.9395 5.41168 12.9715H5.30821C6.20904 14.3881 7.41106 15.5848 8.82725 16.4751V16.3857C5.58911 13.3143 4.16965 10.6754 4.58366 8.54333H4.48019C4.80974 9.73398 5.38403 10.8414 6.16578 11.7936L6.26929 11.719C5.08641 8.99058 4.79068 8.15565 5.29341 7.11199H5.1899L7.67394 11.4507H7.77745C6.18056 8.63276 5.57434 6.53052 6.03271 5.38249C6.11546 5.15225 6.25316 4.94612 6.43368 4.78229C6.6142 4.61847 6.832 4.50204 7.06775 4.44323V4.36865C7.06775 4.36865 6.56501 5.85961 9.03428 9.08005C10.4987 10.7709 11.637 12.7228 12.3907 14.8351V14.9395C12.5152 15.377 12.5492 15.8357 12.4907 16.2871C12.4322 16.7385 12.2825 17.1729 12.0506 17.5635C11.8664 17.7988 11.7319 18.0698 11.6556 18.3596C11.5793 18.6494 11.5628 18.9518 11.607 19.2483C11.6936 19.5901 11.8484 19.9105 12.062 20.19C12.2755 20.4694 12.5433 20.702 12.8491 20.8735C14.3277 21.8724 15.8063 22.7669 15.8063 22.7669L15.8802 22.8713ZM12.923 20.8437C12.6355 20.6874 12.3816 20.4751 12.176 20.2192C11.9705 19.9632 11.8173 19.6687 11.7253 19.3527C11.6886 19.0727 11.7089 18.788 11.7852 18.5163C11.8615 18.2445 11.9921 17.9913 12.1689 17.7723C12.6389 16.9457 12.7715 15.9672 12.5386 15.0438V14.9544C11.7785 12.8206 10.6302 10.8486 9.15254 9.1397C6.72763 5.96398 7.20082 4.54759 7.20082 4.53268V4.4283H7.08251C6.83422 4.49822 6.60513 4.62463 6.41288 4.79781C6.22063 4.97099 6.07034 5.18628 5.97355 5.42721C5.51519 6.63488 6.10663 8.7073 7.7331 11.5848H7.83661L5.33776 7.17164V7.08219V7.17164C4.79068 8.26003 5.14555 9.16953 6.31365 11.898L6.41716 11.8234C5.64513 10.8927 5.07134 9.81165 4.73153 8.64767H4.62802C4.18444 10.8244 5.63348 13.4933 8.88641 16.5944L8.96036 16.505C7.56463 15.6165 6.37864 14.4308 5.48563 13.0311H5.36732C5.44125 15.0438 6.62414 16.5795 8.51676 18.3985V18.309C7.70404 17.8504 6.93228 17.3216 6.21014 16.7286H6.12142C6.59872 17.983 7.45139 19.0564 8.56111 19.8V19.6807C8.20906 19.7308 7.85017 19.6791 7.52612 19.5316H7.4078V19.6509C7.60639 20.4217 8.09415 21.0845 8.76814 21.4996V21.3953H7.91052H7.82181V21.4848C7.94939 21.8247 8.14722 22.1335 8.40214 22.3905C8.65706 22.6476 8.96324 22.8471 9.30041 22.9757V22.8564L8.39849 22.7819H8.26542L8.33933 22.8862C8.51595 23.1491 8.75089 23.3668 9.02552 23.5221C9.30015 23.6773 9.60693 23.766 9.92145 23.7808V23.6615L9.31521 24.0343H9.2413C9.42897 24.2702 9.67661 24.4502 9.95786 24.5553C10.2391 24.6603 10.5434 24.6863 10.8382 24.6306V24.5412L10.3355 24.9586H10.2615H10.3503C10.66 25.1339 11.0012 25.2453 11.3541 25.2863C11.7069 25.3272 12.0644 25.2969 12.4055 25.1972V25.1077L11.8289 25.6147L11.7401 25.6892H11.8436C12.4493 25.8715 13.0997 25.8292 13.6771 25.5699V25.4656L13.2187 26.0172L13.1152 26.1365H13.2631L14.7417 25.9725C15.2238 26.6444 15.9084 27.1413 16.6934 27.3889C16.7012 27.9584 16.6566 28.5274 16.5604 29.0886C16.3681 30.2963 16.2646 31.0119 18.172 31.6381H18.2904V31.5337L18.2016 31.2952H18.1129C19.1179 31.8674 20.2827 32.0876 21.425 31.9214H21.5581L21.4545 31.8319L20.8188 31.325V31.4293C21.4472 31.5134 22.0862 31.4043 22.6522 31.1163L22.4896 30.6988V30.7882C22.8066 30.8165 23.1261 30.7795 23.4285 30.6796C23.731 30.5796 24.0102 30.4188 24.2491 30.2068H24.1604L23.495 29.9682V30.0875C23.8878 30.1407 24.2875 30.079 24.6466 29.9099C25.0057 29.7407 25.3091 29.4712 25.5207 29.1333V29.0439H25.432H24.6779V29.1482C24.8258 29.1482 26.0382 28.3282 26.1565 27.9107C26.1773 27.8691 26.1881 27.8232 26.1881 27.7766C26.1881 27.7299 26.1773 27.684 26.1565 27.6424C26.0382 27.4784 25.6686 27.4783 24.6779 27.4634H24.0273C22.8485 27.3648 21.733 26.8835 20.8483 26.0918V26.1961C21.3908 26.08 21.8977 25.8346 22.3269 25.4805L21.7207 25.1227V25.2419C22.0698 25.2234 22.4094 25.1202 22.7106 24.9411C23.0118 24.762 23.2656 24.5123 23.4507 24.2132V24.1386H23.3472H22.5783V24.2579C22.8999 24.1839 23.2004 24.0365 23.4567 23.8272C23.713 23.6178 23.9183 23.3521 24.0569 23.0502V22.9459H23.9534L23.0219 23.095V23.2143C23.6193 22.8737 24.0953 22.352 24.3822 21.7233V21.6339H24.2787H23.3915V21.7531C24.0379 21.3378 24.4991 20.6857 24.6779 19.9342V19.8149H24.5744L23.3768 20.3069V20.4113C24.4118 19.8707 25.3204 19.1135 26.042 18.1905C26.7636 17.2675 27.2815 16.1998 27.5612 15.0588H27.4577C27.006 15.6933 26.512 16.296 25.9791 16.8628C25.3593 17.4856 24.6638 18.0267 23.909 18.473V18.5625C26.5262 16.3708 27.9013 14.358 27.99 12.5987V12.39L27.9013 12.5689C26.7194 14.1779 25.321 15.6131 23.7464 16.833L23.8203 16.9225C26.7036 14.0598 27.9752 11.6892 27.6351 9.87025V9.69135L27.5612 9.87025C27.2211 10.5977 26.8307 11.3002 26.3931 11.9725C25.7682 12.818 25.0652 13.6018 24.2935 14.3133L24.3674 14.4027C25.2822 13.5727 26.0112 12.5557 26.5058 11.4194C27.0004 10.2831 27.2493 9.05359 27.2359 7.81274H27.1176C26.2081 10.0713 24.8262 12.1054 23.0662 13.7765H23.1549C24.5299 12.1358 25.6788 10.3153 26.5705 8.36438C26.8222 7.7863 26.9522 7.16187 26.9522 6.53054C26.9522 5.89922 26.8222 5.27474 26.5705 4.69666V4.56248V4.69666V4.77124C25.6233 7.17414 24.2784 9.3974 22.5931 11.3463L21.8242 12.1216C20.8187 13.1056 19.7985 14.1344 18.1868 15.5955C17.6051 16.0057 17.1552 16.5787 16.8924 17.2436C16.6297 17.9086 16.5657 18.6366 16.7082 19.3378L16.797 19.4123C17.1045 19.6506 17.3401 19.9708 17.4771 20.3367C17.7188 21.1944 17.6878 22.1069 17.3884 22.9459H17.4919C17.0631 22.5135 15.9394 22.7968 15.895 22.8266C15.895 22.8266 14.4016 21.8575 12.9082 20.8437H12.923Z" fill="#231F20"/>
<path d="M11.7993 22.2003C11.7993 22.2003 11.9915 20.7093 13.2779 20.605C14.5643 20.5006 17.1074 22.8265 17.8911 22.9606H17.211L17.5215 23.7807C17.4498 23.6452 17.3463 23.5295 17.2199 23.4437C17.0936 23.3579 16.9484 23.3047 16.797 23.2887L17.211 23.9596L16.6491 23.6763L17.0779 24.6454L16.1464 24.1832L16.3977 25.048L15.688 24.5858L15.8506 25.4953L14.9783 24.8393L15.2592 25.9276L14.7713 25.5102V26.2556C14.4738 25.7796 14.2774 25.2466 14.1946 24.6902C14.0763 23.8552 13.8102 22.8563 13.4109 23.2737C13.2802 23.4655 13.0984 23.6161 12.8866 23.7084C12.6748 23.8007 12.4414 23.8309 12.2133 23.7956L13.2187 22.7519C12.8169 22.7393 12.422 22.8591 12.0938 23.0931C11.7656 23.3272 11.5221 23.6628 11.4001 24.0491C10.8086 23.3334 10.8677 22.8265 11.5627 22.5581C11.4444 22.2599 11.6218 22.081 11.7993 22.2003Z" fill="#FFC20E"/>
<path d="M11.8584 22.215C11.8584 22.215 12.0654 20.7986 13.2187 20.724C14.3107 20.9693 15.3261 21.4813 16.1759 22.215C16.6804 22.6027 17.2383 22.9141 17.832 23.1394V23.035H17.1518H17.0631V23.1095L17.3588 23.9296H17.4623C17.3861 23.786 17.2762 23.6633 17.1422 23.5724C17.0081 23.4814 16.8541 23.4249 16.6934 23.4078H16.5752V23.4972L17.004 24.1681L17.0779 24.0787L16.516 23.8103L16.3681 23.7357V23.8699L16.797 24.8539H16.8709L15.9541 24.3917L15.8359 24.3172V24.4514L16.0725 25.3162H16.1464L15.4514 24.8539L15.3479 24.7794V24.9136L15.5106 25.8231H15.5993L14.7417 25.1671L14.6086 25.0776V25.2416L14.9043 26.3151H14.9783L14.4903 25.8976L14.3868 25.8231V25.9423V26.7027H14.4903C14.1889 26.2287 13.9922 25.6947 13.9137 25.1372C13.9137 24.7198 13.6919 23.7208 13.337 23.6463C13.283 23.6321 13.2261 23.6345 13.1734 23.653C13.1207 23.6716 13.0747 23.7056 13.0413 23.7506C12.9128 23.9229 12.7405 24.0567 12.5427 24.1381C12.3448 24.2195 12.1288 24.2453 11.9176 24.2128V24.3172L12.923 23.2735L13.0117 23.1692H13.1004C12.6858 23.1586 12.2788 23.2835 11.9404 23.5254C11.6019 23.7672 11.3501 24.113 11.2226 24.511H11.3261C11.1984 24.3926 11.0988 24.2466 11.0348 24.084C10.9708 23.9213 10.944 23.7463 10.9565 23.5717C10.995 23.451 11.0624 23.3417 11.1526 23.2533C11.2428 23.1649 11.3532 23.1002 11.474 23.0648C11.474 22.9008 11.474 22.8113 11.474 22.7666C11.474 22.7219 11.5923 22.7666 11.6662 22.7666L11.8584 22.215ZM11.4888 22.5132C11.1487 22.6623 10.9565 22.8412 10.8973 23.0946C10.8791 23.2901 10.9056 23.4873 10.9748 23.6708C11.044 23.8543 11.1541 24.0194 11.2965 24.1532V24.0637C11.4149 23.6852 11.6518 23.3556 11.9717 23.1244C12.2917 22.8932 12.6774 22.7729 13.0709 22.7815V22.6921L12.0654 23.7357L11.9767 23.8401H12.1098C12.3362 23.8736 12.5675 23.8441 12.7786 23.7547C12.9896 23.6654 13.1725 23.5196 13.3075 23.3332C13.411 23.2288 13.4701 23.2437 13.4997 23.2437C13.5292 23.2437 13.8841 23.8997 13.9728 24.7347C14.0688 25.3015 14.2748 25.8436 14.5791 26.33L14.6973 26.494V26.2853V25.5398H14.6086L15.1113 25.9573L15.2444 26.0616V25.8827L14.9635 24.8092L14.8748 24.8838L15.7324 25.5249L15.8654 25.6143V25.4652L15.7028 24.5558H15.5993L16.309 25.0329L16.4421 25.1074V24.9583L16.1907 24.0936H16.102L17.0335 24.5707H17.1666V24.4216L16.7378 23.4525L16.6639 23.527L17.2258 23.8103L17.418 23.9147L17.2997 23.7357L16.8857 23.0648V23.1543C17.0291 23.1651 17.1672 23.2135 17.2865 23.2945C17.4058 23.3756 17.502 23.4865 17.5658 23.6165H17.6693L17.3588 22.8113V22.8859H18.039V22.7815C17.4665 22.5406 16.9253 22.2302 16.4273 21.8572C15.3331 21.1415 14.1059 20.3662 13.4701 20.3662C12.2133 20.5153 11.9915 21.9913 11.9915 22.0211H12.0654C12.017 21.9974 11.964 21.9851 11.9102 21.9851C11.8564 21.9851 11.8033 21.9974 11.7549 22.0211C11.6859 22.0907 11.6859 22.2249 11.7549 22.4237L11.4888 22.5132Z" fill="#231F20"/>
<path d="M12.716 22.3492C11.9619 22.4536 12.0654 21.6485 12.923 21.5889C12.1985 21.9765 12.3907 22.1703 12.716 22.3492Z" fill="white"/>
<path d="M12.716 22.3197C12.6391 22.3387 12.5589 22.3392 12.4818 22.321C12.4047 22.3029 12.333 22.2667 12.2724 22.2153C12.2504 22.1767 12.2388 22.1331 12.2388 22.0886C12.2388 22.0441 12.2504 22.0004 12.2724 21.9618C12.3439 21.8545 12.4409 21.7669 12.5545 21.707C12.6681 21.6471 12.7948 21.6168 12.923 21.6189C12.5977 21.7978 12.4203 21.9469 12.4203 22.096C12.4203 22.2451 12.5829 22.3346 12.7308 22.4091L12.716 22.3197ZM12.923 21.5593C12.7795 21.5563 12.6376 21.5904 12.5108 21.6582C12.384 21.7261 12.2766 21.8254 12.1985 21.9469C12.1726 21.9922 12.1589 22.0437 12.1589 22.096C12.1589 22.1484 12.1726 22.1998 12.1985 22.2451C12.1985 22.3196 12.3907 22.424 12.7012 22.3644H12.79H12.7012C12.5682 22.2749 12.4351 22.1855 12.4351 22.096C12.4351 22.0066 12.5829 21.8276 12.8934 21.6636L12.923 21.5593Z" fill="#231F20"/>
<path d="M19.6211 31.6528C18.3199 30.9968 17.7285 30.475 17.8172 29.6848C17.6677 29.6396 17.5083 29.6396 17.3588 29.6848C17.3736 30.8924 18.0981 31.5485 19.6211 31.6528Z" fill="white"/>
<path d="M19.6359 31.5931C18.2608 30.8924 17.7876 30.4004 17.8763 29.6847C17.719 29.6253 17.5457 29.6253 17.3884 29.6847C17.3884 30.9222 18.1868 31.608 19.7098 31.7124L19.6359 31.5931ZM17.3736 29.7444C17.4387 29.7147 17.5092 29.6994 17.5806 29.6994C17.652 29.6994 17.7226 29.7147 17.7876 29.7444V29.6698C17.6841 30.5495 18.4234 31.1608 19.6211 31.6975V31.5931C18.1425 31.4888 17.4328 30.8626 17.418 29.6847L17.3736 29.7444Z" fill="#231F20"/>
<path d="M18.172 29.6699C18.3085 30.066 18.5305 30.4266 18.822 30.7257C19.1135 31.0248 19.4673 31.2549 19.8577 31.3994C19.6906 30.737 19.3541 30.1303 18.8818 29.6401C18.6503 29.5567 18.3958 29.5674 18.172 29.6699Z" fill="white"/>
<path d="M18.1129 29.6846C18.2483 30.0919 18.4747 30.4624 18.7747 30.7674C19.0746 31.0725 19.4401 31.3039 19.8429 31.4439H19.9464V31.3246C19.7812 30.6581 19.4386 30.0498 18.9557 29.5653C18.8386 29.516 18.7129 29.4907 18.586 29.4907C18.4591 29.4907 18.3335 29.516 18.2164 29.5653L18.1129 29.6846ZM18.8226 29.6846C19.2959 30.1589 19.6375 30.7501 19.8133 31.3991V31.3246C19.426 31.1936 19.0745 30.973 18.787 30.6804C18.4994 30.3879 18.2838 30.0315 18.1573 29.6398V29.7144C18.2651 29.6692 18.3806 29.646 18.4973 29.646C18.614 29.646 18.7296 29.6692 18.8374 29.7144L18.8226 29.6846Z" fill="#231F20"/>
<path d="M20.0056 29.148C20.0056 28.9989 20.1978 28.9393 20.3604 28.8647C21.1246 29.5551 22.0509 30.0374 23.0515 30.2662C22.9184 30.5644 22.3565 30.6092 21.9129 30.4303C21.2116 30.1113 20.5673 29.6781 20.0056 29.148Z" fill="white"/>
<path d="M20.0499 29.1629C20.0865 29.101 20.1358 29.0478 20.1944 29.0066C20.2531 28.9655 20.3197 28.9375 20.3899 28.9243C21.1529 29.6433 22.0837 30.1562 23.0958 30.4153V30.3258C22.9923 30.5644 22.4748 30.624 22.0312 30.46C21.3322 30.1451 20.692 29.7114 20.1386 29.1778L20.0499 29.1629ZM21.8834 30.4899C22.3417 30.6688 22.948 30.6389 23.0958 30.296C22.1052 30.0637 21.1894 29.5815 20.4343 28.8945C20.3459 28.9106 20.2624 28.9472 20.1905 29.0016C20.1186 29.056 20.0603 29.1265 20.0203 29.2076C20.566 29.7368 21.1958 30.1702 21.8834 30.4899Z" fill="#231F20"/>
<path d="M20.6857 28.6708C20.6948 28.6042 20.7215 28.5413 20.7632 28.4888C20.8048 28.4363 20.8598 28.3961 20.9223 28.3726C21.9912 28.7812 23.0948 29.0907 24.2195 29.2969C24.1356 29.4376 24.016 29.5532 23.8731 29.6318C23.7301 29.7104 23.569 29.7492 23.4063 29.7443C22.4294 29.6032 21.4981 29.2357 20.6857 28.6708Z" fill="white"/>
<path d="M20.7448 28.6708C20.7448 28.5665 20.7448 28.4919 20.9518 28.4174C22.0159 28.8443 23.1208 29.1591 24.2491 29.3567V29.2672C24.171 29.401 24.058 29.5106 23.9225 29.5842C23.7869 29.6578 23.634 29.6925 23.4802 29.6847C22.5093 29.5474 21.5831 29.1851 20.7744 28.6261L20.7448 28.6708ZM23.4211 29.8039C23.5911 29.8081 23.7591 29.766 23.9075 29.6821C24.0558 29.5981 24.1789 29.4754 24.2639 29.3268V29.2523H24.1752C23.0598 29.0405 21.966 28.726 20.9075 28.313C20.8291 28.335 20.7597 28.3815 20.7092 28.4458C20.6588 28.5101 20.6298 28.5889 20.6265 28.6708C21.4609 29.2249 22.404 29.5911 23.3915 29.7443L23.4211 29.8039Z" fill="#231F20"/>
<path d="M21.144 28.0449C21.1712 27.9556 21.2189 27.874 21.2831 27.8066C21.3473 27.7393 21.4263 27.6881 21.5137 27.6572C22.7129 27.8782 23.9335 27.9582 25.151 27.8958C25.1145 28.0749 25.0285 28.24 24.903 28.3719C24.7774 28.5038 24.6173 28.5972 24.4413 28.6413C23.3159 28.6415 22.1993 28.4395 21.144 28.0449Z" fill="white"/>
<path d="M21.2032 28.0447C21.2234 27.9624 21.2638 27.8865 21.3206 27.824C21.3775 27.7615 21.4489 27.7143 21.5285 27.6869C22.7321 27.9136 23.9577 27.9986 25.1807 27.9403C25.1439 28.1097 25.0606 28.2652 24.9403 28.3891C24.82 28.5131 24.6676 28.6004 24.5005 28.6411C23.3839 28.649 22.2757 28.4467 21.2328 28.0447H21.2032ZM24.4561 28.6858C24.6414 28.6361 24.8096 28.5361 24.9425 28.3968C25.0755 28.2575 25.1681 28.0842 25.2102 27.8956V27.8211H25.1363C23.9189 27.8677 22.7 27.7877 21.4989 27.5825C21.4052 27.6209 21.3209 27.6795 21.2519 27.7542C21.1829 27.8289 21.131 27.9179 21.0997 28.0149C22.1549 28.43 23.2792 28.6375 24.4118 28.6262L24.4561 28.6858Z" fill="#231F20"/>
<path d="M19.1775 29.5357C19.241 29.471 19.3173 29.4203 19.4013 29.387C19.4853 29.3536 19.5752 29.3382 19.6655 29.3418L21.8094 31.1011C21.402 31.2725 20.9499 31.304 20.523 31.1906C20.2569 31.0266 19.4289 29.6698 19.1775 29.5357Z" fill="white"/>
<path d="M19.2219 29.5358C19.2804 29.4779 19.3497 29.4323 19.4259 29.4016C19.502 29.3709 19.5834 29.3557 19.6654 29.3569L21.8094 31.1162V31.0267C21.4188 31.203 20.9789 31.2347 20.5674 31.1162C20.3058 30.8592 20.0728 30.5742 19.8724 30.2663C19.6985 29.9698 19.4789 29.7031 19.2219 29.4761V29.5358ZM20.5083 31.1907C20.9471 31.3319 21.4226 31.2999 21.839 31.1013L19.695 29.327C19.5956 29.3237 19.4966 29.342 19.4048 29.3806C19.3129 29.4192 19.2304 29.4772 19.1627 29.5507C19.3999 29.7775 19.6085 30.0328 19.7837 30.3111C19.968 30.6566 20.2078 30.9691 20.4935 31.2355L20.5083 31.1907Z" fill="#231F20"/>
<path d="M16.6047 27.8954L16.6934 28.3427L17.1074 27.7612L17.0187 28.4173L17.4327 27.8954L17.344 28.462L17.832 28.0296L17.6545 28.5365L18.2607 28.3129C17.8005 28.5507 17.393 28.8804 17.0631 29.282C16.9989 29.3566 16.9527 29.4452 16.928 29.5408C16.9034 29.6364 16.901 29.7365 16.921 29.8332C16.9411 29.9299 16.983 30.0206 17.0435 30.0983C17.1041 30.176 17.1816 30.2385 17.2701 30.2809C16.93 30.6835 16.8117 29.8486 16.4421 30.0424L16.0724 30.5195C16.2312 30.6548 16.3438 30.837 16.3942 31.0403C16.4447 31.2437 16.4304 31.4579 16.3534 31.6526C16.3534 31.2053 16.2055 30.9668 15.895 30.8922C15.7603 30.9409 15.6453 31.0331 15.5678 31.1544C15.4902 31.2756 15.4545 31.4193 15.4662 31.5631C15.2296 31.3395 15.2296 31.0413 15.4662 30.6537C14.8895 30.6537 14.5347 30.8326 14.3868 31.25C14.1946 30.7282 14.6234 30.4002 15.6141 30.1468C15.9383 29.8723 16.1961 29.5269 16.3678 29.1367C16.5394 28.7465 16.6205 28.322 16.6047 27.8954Z" fill="#FFC20E"/>
<path d="M16.5456 27.9104L16.6195 28.3577V28.5068V28.3875L17.0483 27.806H16.93L16.8413 28.4621V28.6708L16.9744 28.5068L17.4032 27.9849H17.2997L17.2258 28.5515V28.7155L17.344 28.6112L17.832 28.1788H17.7433L17.5511 28.6857V28.7901H17.6693L18.2756 28.5515V28.4621C17.8067 28.6996 17.3934 29.035 17.0631 29.4461C16.9946 29.5389 16.9472 29.6458 16.9242 29.7592C16.9013 29.8725 16.9032 29.9896 16.93 30.1021C16.9572 30.1946 17.0027 30.2805 17.0637 30.3548C17.1247 30.4291 17.1999 30.4903 17.2849 30.5345V30.4599C17.2515 30.5009 17.2039 30.5276 17.1518 30.5345C17.1518 30.5345 17.0188 30.4599 16.9448 30.3705C16.8709 30.281 16.6787 30.0723 16.4865 30.1916L16.1168 30.6538C16.2696 30.7802 16.3769 30.9538 16.4223 31.1477C16.4677 31.3416 16.4487 31.5453 16.3681 31.7272H16.4717C16.4717 31.265 16.3386 30.9818 15.9689 30.8923C15.8267 30.951 15.7062 31.0528 15.624 31.1837C15.5419 31.3147 15.5022 31.4682 15.5106 31.6229H15.6141C15.4071 31.429 15.4071 31.1458 15.6141 30.8029V30.7134H15.5254C15.2925 30.6607 15.0485 30.6932 14.8372 30.8052C14.6259 30.9172 14.461 31.1013 14.372 31.3247H14.4903C14.4612 31.2617 14.4462 31.1929 14.4462 31.1234C14.4462 31.0539 14.4612 30.9852 14.4903 30.9221C14.6234 30.6687 15.0078 30.4897 15.6732 30.3108C16.0028 30.0303 16.2646 29.6777 16.4388 29.2798C16.613 28.882 16.6951 28.4494 16.6787 28.0148L16.5456 27.9104ZM15.6141 30.0872C14.9044 30.281 14.4903 30.4897 14.3573 30.773C14.3243 30.8508 14.3073 30.9345 14.3073 31.019C14.3073 31.1036 14.3243 31.1873 14.3573 31.265V31.4142V31.265C14.4903 30.8774 14.8156 30.6985 15.3775 30.7134V30.624C15.1261 31.0414 15.1114 31.3545 15.3775 31.608L15.4958 31.7123V31.5632C15.4883 31.4316 15.5212 31.301 15.5899 31.1889C15.6587 31.0769 15.7601 30.9889 15.8802 30.937C16.1612 31.0116 16.309 31.2502 16.2942 31.6527H16.3977C16.4874 31.4491 16.507 31.2211 16.4534 31.005C16.3998 30.7889 16.2761 30.597 16.102 30.4599V30.5345L16.4865 30.0723C16.6195 29.9977 16.6935 30.0723 16.8118 30.2363C16.8467 30.2845 16.8909 30.3252 16.9417 30.3559C16.9925 30.3866 17.0488 30.4068 17.1074 30.4152C17.1962 30.4152 17.2553 30.4152 17.3292 30.3108C17.2564 30.2751 17.1914 30.2251 17.1381 30.1636C17.0848 30.1022 17.0442 30.0305 17.0187 29.953C17.0003 29.8544 17.0026 29.7531 17.0255 29.6555C17.0485 29.5579 17.0915 29.4662 17.1518 29.3864C17.4748 28.9937 17.8719 28.6694 18.3199 28.4323V28.313L17.7285 28.5515H17.8024L17.9798 28.0446H17.8911L17.4032 28.477H17.5067V27.9104V27.7017L17.3736 27.8657L16.9448 28.3875H17.0483L17.1518 27.7464H17.0483L16.6195 28.3279H16.7378L16.6491 27.8806H16.5308C16.5478 28.2979 16.47 28.7136 16.3034 29.096C16.1369 29.4784 15.8859 29.8174 15.5697 30.0872H15.6141Z" fill="#231F20"/>
<path d="M20.8927 17.3696C20.8927 17.3696 20.3899 18.1002 20.523 18.3984C20.7909 19.0369 20.8223 19.7512 20.6117 20.4112C20.3308 21.5443 20.0499 21.9021 20.0055 22.2152C19.9612 22.5283 19.5324 24.3175 19.5324 24.3175C19.8552 23.8606 20.1093 23.3582 20.2864 22.8265C20.2449 22.5394 20.2968 22.2464 20.4343 21.9916C20.6265 21.4697 21.2919 20.7392 21.1884 19.8893C21.0849 19.0395 20.8335 18.4879 20.8483 18.0853C20.8631 17.6827 20.8927 17.3696 20.8927 17.3696Z" fill="white"/>
<path d="M20.8483 17.3398C20.8483 17.4144 20.316 18.1002 20.4639 18.4133C20.7284 19.0422 20.7598 19.7459 20.5526 20.3962C20.4449 20.8627 20.2914 21.3172 20.0942 21.753C20.0191 21.8935 19.9643 22.0441 19.9316 22.2003C19.9316 22.5134 19.4732 24.3025 19.4732 24.3174H19.5767C19.9179 23.8699 20.1782 23.3652 20.3456 22.8265V22.6327C20.3456 22.4537 20.3456 22.4239 20.4786 22.0214C20.5557 21.8416 20.6447 21.6673 20.7448 21.4995C21.08 21.0257 21.2561 20.4563 21.2475 19.8744C21.1973 19.5279 21.1282 19.1845 21.0405 18.8456C20.9655 18.5991 20.9257 18.3431 20.9223 18.0853C20.9223 17.6827 20.9223 17.3994 20.9223 17.3994V17.1758L20.8483 17.3398ZM20.8483 18.0554C20.8572 18.3237 20.9019 18.5895 20.9814 18.8456C21.0692 19.1794 21.1383 19.5179 21.1884 19.8595C21.1905 20.3967 21.0193 20.92 20.7005 21.3505C20.5971 21.5216 20.508 21.7011 20.4343 21.8872C20.3339 22.0962 20.2832 22.3259 20.2864 22.5581V22.737C20.118 23.2724 19.8632 23.7761 19.5324 24.228H19.6506C19.6506 24.1534 20.0646 22.4388 20.109 22.1108C20.1447 21.965 20.1994 21.8247 20.2717 21.6934C20.4553 21.2487 20.6036 20.79 20.7152 20.3217C20.9487 19.6498 20.9169 18.9131 20.6265 18.2642C20.5378 18.0405 20.8631 17.4889 21.011 17.2951H20.8927C20.8927 17.2951 20.804 17.6082 20.7892 18.0554H20.8483Z" fill="#231F20"/>
<path d="M12.0654 7.42506C12.1393 7.42506 12.1393 7.24614 12.0654 7.09705C12.0411 7.01076 12.001 6.92983 11.9471 6.85849C11.9095 6.83468 11.8659 6.82205 11.8215 6.82205C11.777 6.82205 11.7334 6.83468 11.6957 6.85849H11.607V6.93302L11.7993 7.55924C11.9619 7.52942 12.0358 7.4847 12.0654 7.42506ZM11.4888 8.48362C11.5416 8.46921 11.5883 8.4378 11.6218 8.39417C11.6432 8.33136 11.6432 8.26314 11.6218 8.20034L11.2965 7.17158C11.2965 7.09703 11.2965 7.03738 11.193 7.02247H11.0304L11.7697 6.76904C11.9258 6.73649 12.0868 6.73649 12.2429 6.76904C12.3088 6.79447 12.3682 6.83442 12.4168 6.88602C12.4654 6.93762 12.5019 6.99952 12.5238 7.0672C12.5459 7.14515 12.5459 7.22781 12.5238 7.30576C12.4936 7.3873 12.4427 7.45934 12.3759 7.51451L12.1837 7.64869L11.8732 7.75307L12.021 8.18541C12.021 8.27487 12.021 8.33452 12.1097 8.33452C12.1985 8.33452 12.1985 8.33452 12.2872 8.33452L11.5183 8.57307L11.4888 8.48362Z" fill="white"/>
<path d="M13.3518 7.99137H13.4996C13.5113 7.96829 13.5174 7.94276 13.5174 7.91684C13.5174 7.89093 13.5113 7.8654 13.4996 7.84232L13.3222 6.66445C13.3222 6.66445 13.3222 6.54518 13.2335 6.53027H13.1004L14.4755 6.30664L14.5495 6.79863C14.5149 6.67898 14.4421 6.57416 14.3425 6.50043C14.2122 6.46105 14.0735 6.46105 13.9432 6.50043H13.7954C13.7954 6.50043 13.7954 6.50044 13.7954 6.6048L13.8841 7.15645C14.032 7.15645 14.1207 7.11172 14.1502 7.02227C14.1502 7.02227 14.1502 6.87317 14.1502 6.73898L14.2833 7.54411C14.247 7.44797 14.1973 7.3576 14.1355 7.27575C14.0347 7.24165 13.9257 7.24165 13.8249 7.27575L13.9284 7.85719C13.9207 7.87079 13.9166 7.88622 13.9166 7.90192C13.9166 7.91762 13.9207 7.93305 13.9284 7.94665H14.1059C14.2357 7.93158 14.3587 7.87995 14.4608 7.79759C14.571 7.70165 14.6442 7.56972 14.6678 7.42485V7.94665L13.3518 7.99137Z" fill="white"/>
<path d="M15.3923 7.64867H15.5401C15.5518 7.62559 15.5579 7.60001 15.5579 7.5741C15.5579 7.54818 15.5518 7.52265 15.5401 7.49957V6.32171C15.5518 6.29862 15.5579 6.27309 15.5579 6.24718C15.5579 6.22126 15.5518 6.19569 15.5401 6.1726H15.3923H16.2351C16.1726 6.1521 16.1053 6.1521 16.0428 6.1726C16.0428 6.1726 16.0428 6.24719 16.0428 6.35155V7.51449C16.0326 7.54851 16.0326 7.58481 16.0428 7.61882H16.2203C16.3481 7.61373 16.4737 7.58333 16.5899 7.52937C16.7018 7.4211 16.7878 7.28856 16.8413 7.14175L16.7526 7.6934H15.3479L15.3923 7.64867Z" fill="white"/>
<path d="M17.4327 7.69308H17.5806C17.6094 7.68597 17.6344 7.66824 17.6509 7.64339C17.6673 7.61855 17.6739 7.5884 17.6693 7.5589L17.8172 6.38104C17.8289 6.35795 17.835 6.33242 17.835 6.30651C17.835 6.28059 17.8289 6.25502 17.8172 6.23193C17.8172 6.23193 17.8172 6.23193 17.6841 6.23193L18.5269 6.32139V6.39596C18.473 6.38821 18.4182 6.38821 18.3643 6.39596C18.3643 6.39596 18.3643 6.39596 18.2756 6.53014L18.1277 7.70796C18.116 7.72836 18.1099 7.75152 18.1099 7.77507C18.1099 7.79862 18.116 7.82178 18.1277 7.84218C18.1856 7.85958 18.2472 7.85958 18.3051 7.84218V7.91671L17.4771 7.81233L17.4327 7.69308Z" fill="white"/>
<path d="M19.2958 6.36621L20.7005 6.7688L20.5526 7.24586C20.569 7.17297 20.5682 7.09725 20.5502 7.02473C20.5322 6.95222 20.4976 6.88495 20.4491 6.8284C20.3771 6.77612 20.2972 6.73586 20.2125 6.70915L19.8577 7.94661C19.8523 8.01111 19.8523 8.07595 19.8577 8.14044L20.0499 8.24482L19.2366 8.00626C19.2989 8.02785 19.3666 8.02785 19.4289 8.00626C19.4708 7.95937 19.5012 7.90321 19.5176 7.84228L19.8724 6.61969C19.7819 6.58537 19.6821 6.58537 19.5915 6.61969C19.5249 6.63937 19.4642 6.67561 19.4151 6.72512C19.366 6.77462 19.3301 6.83579 19.3106 6.90298H19.2366L19.2958 6.36621Z" fill="white"/>
<path d="M21.6763 8.2896V7.6783L21.2476 8.11069L21.6763 8.2896ZM20.6413 8.39397C20.6642 8.40575 20.6895 8.4119 20.7152 8.4119C20.7409 8.4119 20.7663 8.40575 20.7892 8.39397L20.9814 8.24487L21.9721 7.17139V8.66233C21.9622 8.76148 21.9622 8.8614 21.9721 8.96054C21.9721 8.96054 21.9721 9.03506 22.0608 9.06487L21.351 8.73686C21.4039 8.75398 21.4608 8.75398 21.5137 8.73686C21.5228 8.71286 21.5228 8.68634 21.5137 8.66233V8.40885L21.011 8.18522L20.8779 8.3194L20.7892 8.4387C20.7784 8.45391 20.7725 8.47217 20.7725 8.49089C20.7725 8.50961 20.7784 8.52787 20.7892 8.54308H20.8927V8.66233L20.4343 8.4387L20.6413 8.39397Z" fill="white"/>
<path d="M28.4336 14.9692C28.4374 14.9911 28.446 15.0118 28.4588 15.0298C28.4716 15.0479 28.4883 15.0628 28.5075 15.0735C28.5075 15.0735 28.5962 15.0735 28.6701 15.0735L29.7495 14.6113C29.7754 14.6019 29.7984 14.586 29.8165 14.5652C29.8346 14.5443 29.8472 14.5192 29.853 14.4921C29.8569 14.4474 29.8569 14.4026 29.853 14.3579L30.1783 15.1183H30.1044C30.11 15.0737 30.11 15.0286 30.1044 14.9841C30.0797 14.9697 30.0516 14.9621 30.0231 14.9621C29.9945 14.9621 29.9665 14.9697 29.9418 14.9841L29.4834 15.1779L29.7052 15.7147L30.1783 15.5208C30.1783 15.5208 30.267 15.5208 30.267 15.4015C30.267 15.2823 30.267 15.4016 30.267 15.2525L30.6071 16.0427H30.5332V15.9234C30.5085 15.909 30.4804 15.9014 30.4518 15.9014C30.4233 15.9014 30.3953 15.909 30.3705 15.9234L29.2912 16.3707C29.2912 16.3707 29.1877 16.3707 29.1877 16.5049C29.1764 16.5489 29.1764 16.5951 29.1877 16.6391L28.8624 15.8637C28.8802 15.9111 28.9109 15.9525 28.9511 15.983C28.9511 15.983 29.0398 15.983 29.099 15.983L29.6165 15.7594L29.3946 15.2078L28.8772 15.4463C28.8526 15.4577 28.8306 15.4742 28.8127 15.4948C28.7949 15.5153 28.7816 15.5395 28.7737 15.5656C28.7694 15.6152 28.7694 15.6651 28.7737 15.7147L28.4484 14.9543L28.4336 14.9692Z" fill="white"/>
<path d="M29.9713 17.9508L30.474 17.6079L29.8826 17.5185L29.9713 17.9508ZM29.2764 17.1755C29.294 17.2275 29.3312 17.2703 29.3799 17.2948C29.4533 17.3079 29.5283 17.3079 29.6017 17.2948L31.0803 17.5334L29.9565 18.3683L29.7199 18.5472C29.7093 18.5706 29.7038 18.596 29.7038 18.6217C29.7038 18.6475 29.7093 18.6729 29.7199 18.6963L29.5425 17.921V18.0701C29.5425 18.0701 29.5425 18.0701 29.6312 18.0701H29.7052L29.8383 17.9657L29.7052 17.4439H29.513H29.3651C29.3651 17.4439 29.3651 17.4439 29.3651 17.5185C29.3651 17.593 29.3651 17.593 29.3651 17.6526L29.2468 17.1606L29.2764 17.1755Z" fill="white"/>
<path d="M29.7052 19.3821C29.692 19.436 29.692 19.4923 29.7052 19.5461C29.7624 19.5679 29.8254 19.5679 29.8826 19.5461H30.962C31.0507 19.5461 31.1099 19.5461 31.1394 19.4716C31.1526 19.4177 31.1526 19.3615 31.1394 19.3076H31.2133V20.0978C31.2304 20.2315 31.2304 20.3667 31.2133 20.5004C31.1919 20.585 31.1448 20.6607 31.0785 20.7168C31.0122 20.773 30.93 20.8068 30.8437 20.8134C30.7842 20.8135 30.7254 20.8002 30.6717 20.7744C30.618 20.7486 30.5707 20.711 30.5332 20.6643C30.4739 20.5965 30.4332 20.5143 30.4149 20.4258L29.7347 20.9625V20.5898L30.4592 20.068V19.9934H29.9861C29.9279 19.9783 29.8668 19.9783 29.8086 19.9934C29.7871 20.0511 29.7871 20.1147 29.8086 20.1723V19.3374L29.7052 19.3821ZM30.5923 20.3065C30.5923 20.3065 30.7254 20.396 30.888 20.396C30.961 20.4131 31.0369 20.4131 31.1098 20.396C31.1552 20.3736 31.1917 20.3363 31.2132 20.2902C31.2347 20.2441 31.24 20.1921 31.2281 20.1425C31.2281 20.1425 31.2281 20.0381 31.2281 20.0083H30.5479C30.5324 20.11 30.5479 20.214 30.5923 20.3065Z" fill="white"/>
<path d="M30.1783 22.5729L30.755 22.3791L30.2227 22.1107L30.1783 22.5729ZM29.7496 21.5889C29.7507 21.6213 29.7593 21.6529 29.7747 21.6814C29.7901 21.7099 29.8119 21.7343 29.8383 21.7528L30.0305 21.8572L31.2873 22.5431V22.6176L29.9418 23.0202L29.6608 23.1245C29.6515 23.1456 29.6466 23.1685 29.6466 23.1916C29.6466 23.2147 29.6515 23.2376 29.6608 23.2587H29.5869L29.6756 22.4685C29.6673 22.5229 29.6673 22.5782 29.6756 22.6325C29.6756 22.6325 29.6756 22.6325 29.7496 22.6325H29.8383H29.927H30.0748V22.0809L29.8974 22.0063H29.7496C29.7496 22.0063 29.7495 22.0063 29.6756 22.0063C29.6725 22.051 29.6725 22.0958 29.6756 22.1405V21.6485L29.7496 21.5889Z" fill="white"/>
<path d="M30.0009 24.8692C30.0234 24.9243 30.0598 24.9726 30.1065 25.0092C30.1532 25.0458 30.2085 25.0695 30.267 25.078C30.3595 25.0991 30.4555 25.0991 30.5479 25.078C30.5843 25.0613 30.6166 25.0365 30.6422 25.0055C30.6678 24.9745 30.6861 24.9382 30.6958 24.8991C30.7065 24.86 30.7065 24.8188 30.6958 24.7798L30.06 24.5859C29.9861 24.735 29.9713 24.8245 30.0009 24.8692ZM29.4686 23.7957C29.4529 23.8543 29.4529 23.916 29.4686 23.9746C29.4686 23.9746 29.5425 23.9746 29.6165 24.0641L30.6663 24.3474C30.6896 24.3655 30.7181 24.3753 30.7476 24.3753C30.777 24.3753 30.8056 24.3655 30.8289 24.3474C30.8722 24.3136 30.9033 24.2665 30.9176 24.2132L30.7106 24.9587C30.6816 25.1295 30.5986 25.2865 30.474 25.406C30.4184 25.4402 30.3544 25.4583 30.2892 25.4583C30.224 25.4583 30.16 25.4402 30.1044 25.406C30.0272 25.3934 29.9581 25.3505 29.9122 25.2867C29.8492 25.2231 29.8122 25.1379 29.8086 25.0481C29.7938 24.9693 29.7938 24.8884 29.8086 24.8096C29.84 24.7069 29.8648 24.6023 29.8826 24.4965L29.4538 24.3772C29.3966 24.3555 29.3335 24.3555 29.2764 24.3772C29.2292 24.4139 29.1976 24.4671 29.1877 24.5263L29.4094 23.7212L29.4686 23.7957Z" fill="white"/>
<path d="M29.0546 26.5536H29.6608L29.2468 26.1064L29.0546 26.5536ZM28.9806 25.51C28.9696 25.5359 28.964 25.5638 28.964 25.592C28.964 25.6202 28.9696 25.6481 28.9806 25.674L29.1285 25.8529L30.1044 26.9115H28.7293C28.6269 26.8893 28.5211 26.8893 28.4187 26.9115C28.3941 26.9116 28.37 26.9187 28.3492 26.9319C28.3283 26.945 28.3114 26.9638 28.3005 26.986L28.6258 26.2554H28.6997V26.4045H28.7884H29.0398L29.2616 25.9125L29.1285 25.7784C29.1285 25.7784 29.1285 25.6889 29.0102 25.6889C28.8919 25.6889 29.0102 25.6889 28.9215 25.6889L28.8476 25.7932L29.0398 25.3311L28.9806 25.51Z" fill="white"/>
<path d="M28.0196 27.4932C28.0033 27.5567 28.0033 27.6234 28.0196 27.687L28.1083 27.7913L29.0694 28.4473H29.2616C29.2616 28.4473 29.2616 28.4473 29.3355 28.4473L29.0398 28.8797L27.7386 28.999L28.3301 29.4165C28.3826 29.455 28.4434 29.4806 28.5075 29.491C28.5643 29.4555 28.6144 29.4101 28.6553 29.3568L28.3597 29.8041C28.3692 29.7549 28.3692 29.7042 28.3597 29.655C28.3387 29.6051 28.3024 29.5633 28.2561 29.5358L27.0733 28.7306L28.7441 28.5815L27.9604 28.0299H27.8126C27.7386 28.0299 27.6942 28.0299 27.6351 28.1492L27.9456 27.6721L28.0196 27.4932Z" fill="white"/>
<path d="M4.46538 30.3407L4.53397 30.4316C4.54039 30.4364 4.5471 30.4409 4.55409 30.445H4.62801C4.62801 30.445 4.70194 30.445 4.77587 30.3556L5.42646 29.8636C5.50645 29.806 5.57643 29.7355 5.63349 29.6548C5.64538 29.6291 5.65154 29.6012 5.65154 29.5728C5.65154 29.5445 5.64538 29.5165 5.63349 29.4908C5.62284 29.4187 5.59217 29.351 5.54509 29.2956C5.49801 29.2403 5.43639 29.1994 5.36731 29.1778C5.33478 29.1629 5.29953 29.1553 5.26384 29.1553C5.22815 29.1553 5.19285 29.1629 5.16033 29.1778C5.03948 29.2108 4.92805 29.2721 4.83503 29.3567L4.30271 29.7741C4.25424 29.7969 4.21322 29.8331 4.18444 29.8785C4.17752 29.9079 4.17752 29.9385 4.18444 29.968C4.20379 30.0154 4.22859 30.0605 4.25835 30.1021L3.95703 29.7097C3.9035 29.6932 3.9035 29.6399 3.9035 29.6399L3.95703 29.7097L4.25835 30.1021C4.22859 30.0605 4.20379 30.0154 4.18444 29.968C4.17752 29.9385 4.17752 29.9079 4.18444 29.8785C4.21322 29.8331 4.25424 29.7969 4.30271 29.7741L4.83503 29.3567C4.92805 29.2721 5.03948 29.2108 5.16033 29.1778C5.19285 29.1629 5.22815 29.1553 5.26384 29.1553C5.29953 29.1553 5.33478 29.1629 5.36731 29.1778C5.43639 29.1994 5.49801 29.2403 5.54509 29.2956C5.59217 29.351 5.62284 29.4187 5.63349 29.4908C5.64538 29.5165 5.65154 29.5445 5.65154 29.5728C5.65154 29.6012 5.64538 29.6291 5.63349 29.6548C5.57643 29.7355 5.50645 29.806 5.42646 29.8636L4.77587 30.3556C4.70194 30.445 4.62801 30.445 4.62801 30.445H4.55409C4.5471 30.4409 4.54039 30.4364 4.53397 30.4316C4.50329 30.4084 4.47947 30.377 4.46538 30.3407Z" fill="white"/>
<path d="M3.48952 28.8497L3.99224 27.6421L3.37125 27.985C3.30573 28.0136 3.24939 28.06 3.20858 28.1191C3.18364 28.1864 3.18364 28.2606 3.20858 28.3279L2.94244 27.8508C2.97303 27.8893 3.00775 27.9243 3.04596 27.9552H3.13467L3.28249 27.8806L4.48021 27.2246L3.82962 28.8795L4.73154 28.3726C4.82026 28.3726 4.86461 28.2682 4.86461 28.2086C4.87944 28.16 4.87944 28.1081 4.86461 28.0595L5.14555 28.5665C5.13664 28.5345 5.11971 28.5053 5.09641 28.4818C5.07311 28.4583 5.04421 28.4413 5.01248 28.4323C5.01248 28.4323 4.90897 28.4323 4.82026 28.4323L3.81482 28.9988C3.7954 29.0355 3.78526 29.0765 3.78526 29.1181C3.78526 29.1597 3.7954 29.2006 3.81482 29.2374L3.48952 28.8497Z" fill="white"/>
<path d="M3.93309 26.1512L4.27318 26.9563C4.28226 26.9271 4.28226 26.8959 4.27318 26.8668H4.19927H4.0514L3.07551 27.2992H2.92765C2.92765 27.2992 2.92765 27.2992 2.92765 27.3737C2.91521 27.4125 2.91521 27.4542 2.92765 27.493L2.58759 26.7028C2.5818 26.7374 2.5818 26.7726 2.58759 26.8072H2.75022H2.88329L3.87397 26.3599C3.96269 26.3599 4.00704 26.3599 4.00704 26.2854C4.01403 26.261 4.01403 26.2351 4.00704 26.2108C4.01831 26.1769 4.01831 26.1403 4.00704 26.1064L3.93309 26.1512Z" fill="white"/>
<path d="M2.1144 25.6892L2.14571 25.7839L2.1144 25.8084V25.6892Z" fill="white"/>
<path d="M1.74476 23.9445L2.39535 23.8103C2.39535 23.7059 2.32141 23.6314 2.24748 23.6165C2.15144 23.5846 2.04779 23.5846 1.95175 23.6165L2.79456 23.4525L2.57278 23.5568C2.57278 23.5568 2.48407 23.6463 2.48407 23.691C2.46904 23.7497 2.46904 23.8113 2.48407 23.8699L2.94243 23.7805H3.0903C3.0994 23.7565 3.0994 23.7299 3.0903 23.7059V23.5717V23.4673C3.07414 23.3352 3.01108 23.2134 2.91283 23.1245C2.81082 23.0444 2.68704 22.9975 2.55798 22.9902H3.0755L3.35644 24.3769V24.2575H3.28248C3.28248 24.2575 3.28252 24.2575 3.13466 24.2575L2.07006 24.4663H1.93699C1.92234 24.5098 1.92234 24.557 1.93699 24.6005L1.67081 23.2288L2.14397 23.1393C2.06137 23.1745 1.98612 23.2251 1.92219 23.2884C1.87626 23.3484 1.85039 23.4215 1.84828 23.4972C1.82979 23.5807 1.82979 23.6672 1.84828 23.7506L1.74476 23.9445Z" fill="white"/>
<path d="M2.30664 22.0808H2.7502H2.92763C2.9365 22.0315 2.9365 21.981 2.92763 21.9317V22.7816C2.93758 22.7324 2.93758 22.6816 2.92763 22.6325H2.7502H1.7004H1.52298C1.51766 22.6441 1.5149 22.6569 1.5149 22.6697C1.5149 22.6826 1.51766 22.6953 1.52298 22.707C1.51163 22.7561 1.51163 22.807 1.52298 22.8561V22.0957C1.50441 21.9422 1.50441 21.787 1.52298 21.6335C1.53067 21.5898 1.54789 21.5484 1.57347 21.5123C1.59905 21.4762 1.63231 21.4463 1.6708 21.4248C1.70211 21.3893 1.74101 21.3615 1.78456 21.3434C1.82811 21.3253 1.87518 21.3174 1.92219 21.3204C2.0203 21.3188 2.11579 21.3524 2.19162 21.4152C2.26745 21.478 2.31868 21.566 2.33619 21.6633L2.88327 21.2459L3.01634 21.1415C3.02645 21.0974 3.02645 21.0515 3.01634 21.0073V21.5441L2.29184 22.1106L2.30664 22.0808ZM1.49338 22.0808H2.20312V22.0063C2.21526 21.9222 2.21526 21.8368 2.20312 21.7528C2.17193 21.7013 2.13184 21.6559 2.08481 21.6186H1.87783C1.7763 21.6112 1.6758 21.6432 1.59689 21.7081C1.53809 21.7955 1.51192 21.9012 1.52298 22.0063L1.49338 22.0808Z" fill="white"/>
<path d="M1.41948 19.5462H1.95175C1.82464 19.5545 1.70439 19.6072 1.6117 19.6953C1.53141 19.7757 1.47946 19.8805 1.46383 19.9935C1.43837 20.0556 1.43837 20.1253 1.46383 20.1874C1.48131 20.2115 1.50337 20.2318 1.52877 20.2471C1.55416 20.2625 1.58238 20.2726 1.6117 20.2768H1.71517C1.76039 20.2548 1.79689 20.218 1.81868 20.1724C1.88127 20.0937 1.93578 20.0088 1.98135 19.9189C2.05807 19.7786 2.15806 19.6525 2.27705 19.5462C2.36926 19.5005 2.47009 19.4751 2.57279 19.4717C2.71172 19.4868 2.83917 19.5564 2.92764 19.6655C3.00996 19.788 3.04664 19.9359 3.03115 20.083C3.04512 20.1317 3.04512 20.1834 3.03115 20.2321C3.0456 20.2858 3.0456 20.3424 3.03115 20.3961V20.4855C3.02417 20.5099 3.02417 20.5357 3.03115 20.5601H2.41012C2.48514 20.5587 2.55914 20.5421 2.6277 20.5114C2.69627 20.4806 2.75804 20.4363 2.80937 20.3811C2.90568 20.3032 2.96908 20.1913 2.9868 20.068C3.01049 19.9954 3.01049 19.917 2.9868 19.8444C2.9654 19.8174 2.93846 19.7955 2.90783 19.78C2.87719 19.7646 2.8436 19.756 2.80937 19.755H2.75021C2.75021 19.755 2.6763 19.755 2.63194 19.8444L2.48407 20.068C2.4332 20.1791 2.36308 20.2801 2.27705 20.3663C2.2298 20.4288 2.16915 20.4798 2.09962 20.5154C2.03129 20.529 1.96098 20.529 1.89264 20.5154C1.83019 20.5118 1.76908 20.4955 1.71314 20.4673C1.6572 20.4391 1.6076 20.3996 1.56735 20.3513C1.52262 20.3012 1.48892 20.242 1.46853 20.1778C1.44814 20.1135 1.4415 20.0456 1.44903 19.9786C1.4462 19.9289 1.4462 19.8791 1.44903 19.8295V19.6804V19.5761C1.41981 19.5696 1.38955 19.5696 1.36032 19.5761L1.41948 19.5462Z" fill="white"/>
<path d="M3.07855 19.3175L3.07549 19.3374C3.07669 19.3308 3.07771 19.3242 3.07855 19.3175Z" fill="white"/>
<path d="M2.07005 16.46L2.49881 16.5643H2.27703C2.22023 16.5868 2.16953 16.6225 2.12916 16.6687C2.11596 16.7175 2.11596 16.769 2.12916 16.8178V16.9222L3.35643 17.265C3.43036 17.265 3.48951 17.265 3.50429 17.265H3.57821V17.1458L3.35643 17.9807C3.37127 17.9424 3.37127 17.8998 3.35643 17.8615C3.35643 17.8615 3.35643 17.8614 3.35643 17.7869H3.22336L1.99609 17.4589V17.5632C1.96399 17.6446 1.96399 17.7353 1.99609 17.8167C2.04905 17.9115 2.13253 17.9851 2.23267 18.0254L1.80386 17.9062L2.07005 16.46Z" fill="white"/>
<path d="M3.63738 15.625L3.4156 16.1766L3.54867 16.2959C3.57536 16.3338 3.61087 16.3645 3.65213 16.3853C3.67012 16.3958 3.69053 16.4013 3.71129 16.4013C3.73206 16.4013 3.75247 16.3958 3.77045 16.3853L3.85916 16.2511L3.65213 16.7581C3.6737 16.7004 3.6737 16.6368 3.65213 16.5791C3.65213 16.5791 3.57821 16.4748 3.47471 16.3704L2.48407 15.3268H3.96267H4.24361C4.24361 15.3268 4.24359 15.3268 4.31753 15.2373L4.02179 15.9679C4.02571 15.9232 4.02571 15.8783 4.02179 15.8337H3.65213L3.63738 15.625ZM3.54867 15.625H2.92763L3.35644 16.0722L3.54867 15.625Z" fill="white"/>
<path d="M3.47472 13.2544L3.96269 13.5079C3.84719 13.4712 3.72329 13.4712 3.60779 13.5079C3.55061 13.52 3.49697 13.5451 3.45085 13.5813C3.40473 13.6174 3.36737 13.6637 3.34165 13.7166C3.32348 13.7484 3.31395 13.7843 3.31395 13.821C3.31395 13.8576 3.32348 13.8936 3.34165 13.9253C3.35342 13.9691 3.37812 14.0082 3.41245 14.0375C3.44678 14.0668 3.48913 14.0849 3.53388 14.0894C3.58295 14.0959 3.63267 14.0959 3.68175 14.0894L3.93308 13.9104C4.06389 13.8179 4.20872 13.7475 4.36189 13.7017C4.45735 13.6663 4.56218 13.6663 4.65763 13.7017C4.71688 13.7339 4.76863 13.7785 4.80943 13.8325C4.85022 13.8865 4.87914 13.9486 4.89421 14.0148C4.93748 14.1556 4.93748 14.3064 4.89421 14.4472L4.7907 14.5664L4.65763 14.6857C4.65494 14.7105 4.65494 14.7355 4.65763 14.7603V14.8348C4.65106 14.8488 4.64761 14.8641 4.64761 14.8796C4.64761 14.895 4.65106 14.9103 4.65763 14.9243L4.12531 14.6261C4.27251 14.685 4.43647 14.685 4.58367 14.6261C4.70095 14.5966 4.80192 14.5215 4.86461 14.4173C4.88182 14.38 4.89074 14.3393 4.89074 14.2981C4.89074 14.2569 4.88182 14.2162 4.86461 14.1788C4.85869 14.148 4.84643 14.1188 4.8286 14.0931C4.81077 14.0675 4.78775 14.0459 4.7611 14.0297H4.64283H4.50976L4.28798 14.1639C4.19407 14.2391 4.08934 14.2994 3.97744 14.3428C3.90528 14.3856 3.82438 14.4111 3.7409 14.4173C3.66634 14.4125 3.5946 14.3867 3.53388 14.3428C3.481 14.3136 3.43507 14.2732 3.39932 14.2242C3.36356 14.1753 3.33887 14.1191 3.3269 14.0595C3.29806 13.999 3.28308 13.9328 3.28308 13.8657C3.28308 13.7986 3.29806 13.7323 3.3269 13.6719L3.41561 13.5526C3.44779 13.5103 3.48798 13.4748 3.53388 13.4482L3.62259 13.3737L3.47472 13.2544Z" fill="white"/>
<path d="M129.999 6.76899V10.7796H131.847C132.175 10.8076 132.502 10.7119 132.764 10.5112C133.013 10.1914 133.153 9.79931 133.163 9.39303H133.444V12.8371H133.163C133.177 12.5415 133.126 12.2464 133.015 11.9724C132.925 11.792 132.78 11.6456 132.601 11.5549C132.367 11.4391 132.107 11.3876 131.847 11.4058H129.999V14.6263C129.981 14.9717 130.01 15.318 130.088 15.655C130.156 15.7984 130.271 15.9141 130.413 15.983C130.62 16.1011 130.855 16.1627 131.093 16.1619H131.463V16.4452H127.116V16.1172H127.47C127.642 16.1332 127.814 16.1077 127.974 16.0429C128.133 15.978 128.275 15.8757 128.387 15.7445C128.545 15.379 128.607 14.9782 128.565 14.5815V7.99153C128.586 7.64521 128.551 7.29764 128.461 6.96278C128.401 6.82771 128.296 6.71736 128.165 6.64969C127.952 6.53344 127.713 6.47201 127.47 6.47078H127.116V6.1875H134.642L134.745 8.42392H134.479C134.399 8.0506 134.248 7.69631 134.035 7.38029C133.869 7.16349 133.65 6.99392 133.4 6.88825C133.021 6.77644 132.626 6.7261 132.232 6.73914L129.999 6.76899Z" fill="black"/>
<path d="M141.236 13.0009H137.303L136.608 14.6112C136.475 14.8928 136.39 15.1953 136.357 15.5057C136.36 15.5878 136.381 15.6681 136.42 15.7405C136.458 15.8128 136.513 15.8753 136.579 15.9232C136.871 16.0746 137.196 16.1514 137.525 16.1468V16.4301H134.346V16.117C134.638 16.0907 134.918 15.9879 135.159 15.8188C135.528 15.3781 135.814 14.8727 136.002 14.3279L139.566 5.91895H139.832L143.351 14.4173C143.52 14.9055 143.781 15.3561 144.12 15.7443C144.399 15.9635 144.742 16.084 145.095 16.0872V16.3705H141.088V16.117C141.379 16.131 141.667 16.0584 141.916 15.9083C141.981 15.8597 142.033 15.7966 142.069 15.7242C142.105 15.6517 142.123 15.5718 142.123 15.4908C142.084 15.1287 141.984 14.7759 141.828 14.4472L141.236 13.0009ZM141.015 12.4493L139.299 8.31935L137.54 12.4493H141.015Z" fill="black"/>
<path d="M154.485 5.97875L154.706 9.45264H154.485C154.283 8.58569 153.817 7.8039 153.154 7.21622C152.57 6.75105 151.842 6.50823 151.099 6.53039C150.42 6.50912 149.752 6.70753 149.194 7.09655C148.635 7.48558 148.214 8.04476 147.994 8.69224C147.66 9.58732 147.505 10.5397 147.535 11.4952C147.518 12.3162 147.664 13.1324 147.964 13.8957C148.246 14.5184 148.71 15.0389 149.295 15.3866C149.903 15.7632 150.607 15.9547 151.32 15.9383C151.924 15.9476 152.521 15.7986 153.05 15.5059C153.717 15.0717 154.282 14.4968 154.706 13.8211L154.943 13.9702C154.533 14.7795 153.921 15.4678 153.169 15.9681C152.439 16.3991 151.604 16.6161 150.759 16.5943C150.005 16.6293 149.254 16.4761 148.573 16.1484C147.892 15.8207 147.302 15.3286 146.855 14.7157C146.167 13.7591 145.809 12.6019 145.835 11.4207C145.823 10.4434 146.057 9.4791 146.515 8.61771C146.93 7.78675 147.578 7.09716 148.378 6.63477C149.164 6.15951 150.064 5.91186 150.98 5.9191C151.733 5.93055 152.472 6.11947 153.139 6.47074C153.282 6.55055 153.437 6.60599 153.598 6.63477C153.662 6.63717 153.725 6.62499 153.784 6.59919C153.843 6.57339 153.896 6.5346 153.938 6.48567C154.083 6.32758 154.18 6.13104 154.219 5.9191L154.485 5.97875Z" fill="black"/>
<path d="M162.765 6.50057V6.21729H166.343V6.50057H165.973C165.791 6.49231 165.61 6.53364 165.448 6.62019C165.287 6.70674 165.152 6.83535 165.057 6.99261C164.917 7.33721 164.862 7.71029 164.894 8.08097V12.2258C164.921 13.0318 164.821 13.8369 164.598 14.6113C164.373 15.2278 163.952 15.7519 163.401 16.1023C162.676 16.544 161.836 16.7569 160.991 16.7136C160.115 16.768 159.242 16.5661 158.477 16.1321C157.918 15.7537 157.493 15.2052 157.264 14.5666C157.063 13.7481 156.983 12.904 157.028 12.0618V8.06609C157.078 7.63524 156.984 7.19983 156.762 6.82858C156.652 6.7233 156.522 6.64342 156.379 6.59448C156.236 6.54554 156.084 6.52873 155.934 6.5453H155.549V6.26206H159.985V6.5453H159.482C159.312 6.5323 159.141 6.56073 158.984 6.6282C158.827 6.69566 158.689 6.80019 158.58 6.93296C158.431 7.29065 158.37 7.67948 158.403 8.06609V12.5389C158.405 12.9931 158.44 13.4465 158.506 13.8957C158.55 14.3182 158.686 14.7257 158.906 15.0884C159.112 15.393 159.392 15.6394 159.719 15.8041C160.131 15.9941 160.582 16.0859 161.035 16.0725C161.653 16.0855 162.265 15.9365 162.809 15.6401C163.283 15.4041 163.659 15.0085 163.874 14.5219C164.112 13.7763 164.212 12.993 164.169 12.2109V8.08097C164.221 7.66978 164.143 7.25267 163.948 6.88823C163.838 6.77256 163.704 6.68308 163.556 6.62633C163.407 6.56958 163.248 6.54698 163.09 6.56022L162.765 6.50057Z" fill="black"/>
<path d="M175.274 13.5972H175.525L174.653 16.3704H166.875V16.1169H167.26C167.435 16.1317 167.611 16.1011 167.772 16.028C167.932 15.955 168.071 15.8419 168.176 15.6995C168.314 15.3595 168.375 14.9927 168.354 14.626V8.03597C168.4 7.62659 168.328 7.21255 168.147 6.84323C168.033 6.72887 167.896 6.64041 167.746 6.58383C167.596 6.52725 167.435 6.50385 167.275 6.51522H166.875V6.23193H171.459V6.51522C171.078 6.48106 170.694 6.53197 170.335 6.66432C170.144 6.74063 169.987 6.88345 169.892 7.06686C169.778 7.43812 169.738 7.82813 169.773 8.21492V14.626C169.747 14.9147 169.788 15.2055 169.892 15.4758C169.918 15.5315 169.955 15.5812 170.001 15.6222C170.047 15.6632 170.1 15.6945 170.158 15.7144C170.546 15.7577 170.938 15.7577 171.326 15.7144H172.065C172.617 15.7373 173.17 15.6821 173.706 15.5504C174.038 15.414 174.332 15.1992 174.564 14.9242C174.869 14.5229 175.109 14.0749 175.274 13.5972Z" fill="black"/>
<path d="M183.288 6.2173L183.406 8.61775H183.14C183.111 8.30517 183.036 7.99862 182.918 7.70825C182.781 7.43539 182.564 7.21158 182.297 7.06715C181.984 6.91707 181.639 6.84549 181.292 6.85844H179.813V14.6263C179.768 15.0308 179.84 15.4397 180.02 15.8041C180.135 15.9158 180.272 16.0015 180.423 16.0555C180.573 16.1095 180.733 16.1305 180.892 16.1172H181.247V16.4005H176.945V16.1172H177.314C177.485 16.1315 177.656 16.1036 177.813 16.0361C177.97 15.9685 178.109 15.8633 178.216 15.7296C178.363 15.3817 178.419 15.002 178.379 14.6263V6.8286H177.226C176.887 6.8096 176.548 6.84484 176.22 6.93297C175.943 7.03638 175.709 7.23067 175.555 7.48462C175.347 7.81471 175.234 8.19683 175.229 8.58795H174.949L175.067 6.1875L183.288 6.2173Z" fill="black"/>
<path d="M191.065 6.21729H194.599V6.50057H194.407C194.212 6.5215 194.021 6.57704 193.845 6.6646C193.588 6.78736 193.357 6.95955 193.165 7.17151C192.879 7.4926 192.626 7.84232 192.411 8.2152L189.971 12.0916V14.6263C189.919 15.031 189.991 15.442 190.178 15.8041C190.296 15.9162 190.436 16.002 190.589 16.0559C190.741 16.1099 190.904 16.1307 191.065 16.1172H191.405V16.4005H187.103V16.1172H187.457C187.63 16.134 187.804 16.1074 187.964 16.0397C188.124 15.9721 188.265 15.8655 188.374 15.7295C188.513 15.3796 188.569 15.0018 188.537 14.6263V12.2407L185.757 7.96171C185.56 7.63175 185.337 7.3177 185.092 7.02241C184.875 6.83598 184.63 6.68506 184.367 6.57514C184.228 6.51354 184.075 6.4879 183.924 6.50057V6.21729H188.256V6.50057H188.034C187.807 6.49481 187.582 6.55152 187.384 6.6646C187.292 6.70836 187.215 6.77832 187.162 6.8658C187.11 6.95327 187.084 7.05438 187.088 7.15659C187.17 7.51371 187.326 7.84917 187.546 8.14062L189.661 11.4207L191.642 8.2748C191.883 7.97347 192.041 7.61357 192.1 7.23116C192.1 7.09302 192.058 6.95814 191.982 6.8435C191.903 6.7324 191.796 6.64482 191.672 6.59002C191.478 6.51785 191.271 6.48738 191.065 6.50057V6.21729Z" fill="black"/>
<path d="M203.678 5.97869C204.319 5.97346 204.954 6.10336 205.542 6.36012C206.13 6.61688 206.659 6.99482 207.093 7.46964C207.577 7.96378 207.958 8.5511 208.212 9.1966C208.466 9.8421 208.588 10.5325 208.572 11.2268C208.594 11.9374 208.474 12.6452 208.22 13.3084C207.966 13.9717 207.583 14.5769 207.093 15.0884C206.638 15.5664 206.092 15.9467 205.487 16.2065C204.882 16.4663 204.232 16.6002 203.574 16.6002C202.917 16.6002 202.266 16.4663 201.662 16.2065C201.057 15.9467 200.511 15.5664 200.055 15.0884C199.566 14.5732 199.184 13.9652 198.93 13.2998C198.676 12.6343 198.556 11.9246 198.577 11.2119C198.55 10.4706 198.684 9.73236 198.967 9.04781C199.25 8.36327 199.677 7.7486 200.218 7.24596C201.159 6.37862 202.404 5.92295 203.678 5.97869ZM203.53 6.53034C203.114 6.51751 202.702 6.60242 202.324 6.7784C201.947 6.95438 201.616 7.21658 201.356 7.54417C200.602 8.62639 200.236 9.93631 200.321 11.2566C200.234 12.6233 200.61 13.9794 201.386 15.1033C201.641 15.4324 201.969 15.6959 202.344 15.8721C202.72 16.0484 203.131 16.1323 203.545 16.1171C203.995 16.1236 204.441 16.0263 204.849 15.8325C205.256 15.6387 205.614 15.3536 205.896 14.9989C206.601 13.9646 206.93 12.7163 206.827 11.4654C206.931 10.0847 206.572 8.70895 205.807 7.5591C205.532 7.22145 205.184 6.95275 204.789 6.77422C204.393 6.59569 203.963 6.5122 203.53 6.53034Z" fill="black"/>
<path d="M212.254 6.76899V10.7796H214.087C214.42 10.8099 214.752 10.7142 215.019 10.5112C215.267 10.1914 215.407 9.79931 215.418 9.39303H215.669V12.8371H215.403C215.413 12.5403 215.357 12.245 215.24 11.9724C215.16 11.7903 215.019 11.6426 214.841 11.5549C214.603 11.4365 214.337 11.3849 214.072 11.4058H212.239V14.6263C212.221 14.9717 212.25 15.318 212.328 15.655C212.396 15.7984 212.511 15.9141 212.653 15.983C212.86 16.1011 213.095 16.1627 213.333 16.1619H213.703V16.4452H209.356V16.1172H209.755C209.926 16.1332 210.099 16.1077 210.258 16.0429C210.417 15.978 210.559 15.8757 210.672 15.7445C210.83 15.379 210.891 14.9782 210.849 14.5815V7.99153C210.871 7.64521 210.836 7.29764 210.745 6.96278C210.683 6.82376 210.573 6.71244 210.435 6.64969C210.228 6.52966 209.993 6.46787 209.755 6.47078H209.4V6.1875H216.926L217.03 8.42392H216.763C216.676 8.05296 216.526 7.69995 216.32 7.38029C216.154 7.16349 215.935 6.99392 215.684 6.88825C215.305 6.77644 214.911 6.7261 214.516 6.73914L212.254 6.76899Z" fill="black"/>
<path d="M133.119 34.9179L129.215 26.3301V33.1586C129.166 33.5569 129.233 33.9609 129.407 34.3216C129.522 34.4387 129.661 34.5289 129.815 34.5856C129.968 34.6424 130.132 34.6642 130.295 34.6496H130.649V34.9179H127.116V34.6496H127.485C127.657 34.6678 127.831 34.6402 127.989 34.5695C128.148 34.4989 128.285 34.3877 128.387 34.247C128.536 33.905 128.592 33.5295 128.55 33.1586V26.5537C128.573 26.2236 128.522 25.8925 128.402 25.5846C128.321 25.4189 128.185 25.287 128.018 25.2119C127.731 25.0983 127.423 25.0475 127.116 25.0628V24.7944H129.984L133.666 32.771L137.274 24.7944H140.142V25.0628H139.787C139.613 25.0449 139.437 25.0726 139.277 25.1431C139.116 25.2136 138.976 25.3245 138.871 25.4653C138.73 25.8095 138.674 26.183 138.708 26.5537V33.2332C138.661 33.633 138.733 34.0378 138.915 34.3961C139.027 34.513 139.163 34.6031 139.314 34.6599C139.465 34.7166 139.627 34.7386 139.787 34.7242H140.142V34.9925H135.825V34.7242H136.179C136.354 34.7435 136.53 34.7165 136.691 34.6459C136.852 34.5753 136.991 34.4635 137.096 34.3216C137.237 33.9774 137.293 33.6039 137.259 33.2332V26.4046L133.355 34.9925L133.119 34.9179Z" fill="black"/>
<path d="M143.661 25.2718V29.3123H145.879C146.283 29.3586 146.69 29.2638 147.032 29.0439C147.185 28.881 147.302 28.6886 147.378 28.4784C147.455 28.2683 147.488 28.0448 147.476 27.8213H147.742V31.3847H147.476C147.439 31.0555 147.37 30.7309 147.269 30.4156C147.171 30.2345 147.014 30.0926 146.825 30.013C146.525 29.894 146.202 29.843 145.879 29.8639H143.661V33.2186C143.622 33.4955 143.622 33.7765 143.661 34.0535C143.701 34.151 143.775 34.2305 143.868 34.2771C144.046 34.3514 144.238 34.3821 144.43 34.3666H146.175C146.597 34.3802 147.019 34.3402 147.432 34.2473C147.714 34.1526 147.968 33.9887 148.171 33.7702C148.553 33.3523 148.872 32.8801 149.117 32.3687H149.413L148.541 34.9182H140.748V34.6499H141.103C141.342 34.6506 141.576 34.589 141.783 34.4709C141.86 34.4376 141.928 34.3886 141.984 34.3269C142.04 34.2653 142.082 34.1924 142.109 34.1131C142.185 33.7911 142.215 33.4597 142.197 33.1291V26.554C142.242 26.1462 142.175 25.734 142.005 25.3613C141.886 25.2472 141.743 25.1603 141.588 25.1063C141.432 25.0523 141.267 25.0324 141.103 25.0481H140.748V24.7798H148.541L148.659 27.0162H148.363C148.305 26.6287 148.19 26.2519 148.023 25.898C147.884 25.6959 147.688 25.5402 147.461 25.4507C147.12 25.3556 146.765 25.3153 146.411 25.3314L143.661 25.2718Z" fill="black"/>
<path d="M150.064 34.9177V34.6494H150.448C150.621 34.6644 150.796 34.6339 150.954 34.5607C151.112 34.4875 151.248 34.3742 151.35 34.2319C151.498 33.8792 151.554 33.4943 151.513 33.1137V26.5535C151.569 26.1439 151.496 25.7269 151.306 25.3608C151.197 25.2424 151.064 25.1502 150.916 25.0908C150.767 25.0314 150.607 25.0065 150.448 25.0179H150.064V24.7495H154.189C155.36 24.6885 156.532 24.866 157.634 25.2714C158.434 25.6314 159.102 26.2365 159.541 27.0008C160.028 27.852 160.273 28.8216 160.251 29.8038C160.288 31.1063 159.834 32.3746 158.98 33.3523C158.399 33.926 157.701 34.3658 156.935 34.6412C156.17 34.9166 155.354 35.0212 154.544 34.9476L150.064 34.9177ZM153.021 34.1872C153.545 34.3099 154.08 34.3798 154.618 34.3959C155.155 34.4119 155.689 34.3109 156.184 34.0999C156.679 33.889 157.123 33.5729 157.486 33.1734C158.224 32.2217 158.624 31.0487 158.624 29.8411C158.624 28.6334 158.224 27.4604 157.486 26.5088C157.111 26.1007 156.652 25.7799 156.141 25.5688C155.631 25.3577 155.08 25.2612 154.529 25.2862C154.029 25.3005 153.533 25.3755 153.05 25.5099L153.021 34.1872Z" fill="black"/>
<path d="M165.559 34.6494V34.9177H161.227V34.6494H161.582C161.751 34.6629 161.92 34.6363 162.077 34.5715C162.234 34.5068 162.373 34.4058 162.484 34.2766C162.647 33.9125 162.713 33.5116 162.676 33.1137V26.5535C162.692 26.2074 162.657 25.8607 162.573 25.5248C162.51 25.3858 162.4 25.2745 162.262 25.2117C162.058 25.0843 161.822 25.0172 161.582 25.0179H161.227V24.7495H165.559V25.0626H165.19C165.021 25.0502 164.852 25.0774 164.695 25.1421C164.539 25.2068 164.399 25.3071 164.288 25.4353C164.124 25.7995 164.058 26.2004 164.096 26.5983V33.1883C164.08 33.5345 164.115 33.8811 164.199 34.217C164.261 34.3601 164.371 34.4764 164.51 34.545C164.719 34.6589 164.952 34.7203 165.19 34.724L165.559 34.6494Z" fill="black"/>
<path d="M175.141 24.4816L175.362 27.9555H175.141C174.935 27.0858 174.471 26.3002 173.81 25.7041C173.223 25.2445 172.498 25.0024 171.755 25.0183C171.078 25.004 170.413 25.2051 169.856 25.5932C169.298 25.9813 168.876 26.5366 168.65 27.1802C168.318 28.081 168.163 29.0378 168.191 29.9981C168.176 30.8189 168.321 31.6348 168.62 32.3985C168.902 33.0213 169.366 33.5417 169.951 33.8895C170.562 34.2592 171.264 34.4502 171.977 34.4411C172.581 34.4504 173.177 34.3014 173.706 34.0087C174.369 33.5699 174.933 32.996 175.362 32.324L175.599 32.4731C175.185 33.2797 174.574 33.9671 173.825 34.4709C173.095 34.902 172.26 35.1189 171.415 35.0971C170.661 35.1322 169.91 34.979 169.229 34.6513C168.548 34.3236 167.958 33.8314 167.511 33.2185C166.825 32.2609 166.467 31.1044 166.491 29.9236C166.48 28.9434 166.708 27.9755 167.156 27.1056C167.589 26.2828 168.239 25.5966 169.034 25.1227C169.824 24.6589 170.722 24.4169 171.636 24.422C172.388 24.4277 173.127 24.6115 173.795 24.9587C173.933 25.0488 174.09 25.105 174.254 25.1227C174.316 25.1242 174.379 25.1131 174.437 25.09C174.495 25.067 174.549 25.0325 174.594 24.9885C174.736 24.8286 174.833 24.6329 174.875 24.422L175.141 24.4816Z" fill="black"/>
<path d="M180.848 34.6494V34.9177H176.516V34.6494H176.871C177.039 34.6629 177.209 34.6363 177.366 34.5715C177.522 34.5068 177.662 34.4058 177.773 34.2766C177.936 33.9125 178.002 33.5116 177.965 33.1137V26.5535C177.981 26.2074 177.946 25.8607 177.861 25.5248C177.799 25.3858 177.689 25.2745 177.551 25.2117C177.346 25.0843 177.111 25.0172 176.871 25.0179H176.516V24.7495H180.848V25.0626H180.478C180.31 25.0502 180.141 25.0774 179.984 25.1421C179.828 25.2068 179.688 25.3071 179.577 25.4353C179.413 25.7995 179.347 26.2004 179.384 26.5983V33.1883C179.368 33.5345 179.403 33.8811 179.488 34.217C179.549 34.3601 179.659 34.4764 179.798 34.545C180.007 34.6589 180.241 34.7203 180.478 34.724L180.848 34.6494Z" fill="black"/>
<path d="M181.011 24.7197H183.761L189.956 32.3683V26.5536C190.003 26.1538 189.931 25.749 189.749 25.3907C189.637 25.2738 189.501 25.1837 189.35 25.127C189.199 25.0702 189.037 25.0482 188.877 25.0627H188.522V24.7943H192.012V25.0627H191.657C191.483 25.0448 191.307 25.0724 191.146 25.1429C190.986 25.2134 190.846 25.3244 190.74 25.4652C190.599 25.8093 190.543 26.1829 190.577 26.5536V35.1564H190.311L183.643 26.9413V33.2331C183.594 33.6313 183.66 34.0353 183.835 34.396C183.947 34.512 184.084 34.6015 184.235 34.6582C184.386 34.7149 184.547 34.7374 184.707 34.724H185.077V34.9924H181.543V34.724H181.898C182.072 34.7419 182.248 34.7142 182.409 34.6437C182.569 34.5732 182.709 34.4622 182.815 34.3214C182.963 33.9794 183.019 33.604 182.977 33.2331V26.1361C182.783 25.8823 182.559 25.6522 182.312 25.4503C182.122 25.2805 181.901 25.1489 181.661 25.0627C181.444 25.0069 181.22 24.9818 180.996 24.9881L181.011 24.7197Z" fill="black"/>
<path d="M195.457 25.2718V29.3123H197.675C198.083 29.3561 198.494 29.2617 198.843 29.0439C199.137 28.7079 199.291 28.2695 199.271 27.8213H199.552V31.3847H199.271C199.234 31.0555 199.165 30.7309 199.065 30.4156C198.966 30.2345 198.81 30.0926 198.621 30.013C198.32 29.894 197.997 29.843 197.675 29.8639H195.457V33.2186C195.418 33.4955 195.418 33.7765 195.457 34.0535C195.5 34.1483 195.573 34.2266 195.664 34.2771C195.847 34.3511 196.044 34.3817 196.24 34.3666H197.956C198.373 34.3796 198.79 34.3395 199.198 34.2473C199.479 34.1526 199.734 33.9887 199.937 33.7702C200.324 33.3534 200.648 32.8811 200.898 32.3687H201.194L200.321 34.9182H192.514V34.6499H192.869C193.107 34.6506 193.342 34.589 193.549 34.4709C193.625 34.4376 193.694 34.3886 193.75 34.3269C193.806 34.2653 193.848 34.1924 193.875 34.1131C193.951 33.7911 193.981 33.4597 193.963 33.1291V26.554C194.016 26.146 193.949 25.7316 193.771 25.3613C193.653 25.2456 193.511 25.1575 193.355 25.1034C193.199 25.0493 193.033 25.0304 192.869 25.0481H192.514V24.7798H200.321L200.425 27.0162H200.144C200.082 26.6275 199.963 26.2505 199.789 25.898C199.65 25.6959 199.454 25.5402 199.227 25.4507C198.886 25.3556 198.531 25.3153 198.177 25.3314L195.457 25.2718Z" fill="black"/>
</g>
<defs>
<clipPath id="clip0_102_9571">
<rect width="217" height="42" fill="white"/>
</clipPath>
</defs>
</svg>
