<svg width="166" height="49" viewBox="0 0 166 49" fill="none" xmlns="http://www.w3.org/2000/svg">
<g clip-path="url(#clip0_102_9405)">
<path d="M162.548 43.5703L164.91 47.0216V43.5703H165.955V48.9122H164.955L162.594 45.4828V48.9122H161.549V43.5703H162.548Z" fill="white"/>
<path d="M102.234 8.4633V19.8944H110.75C111.583 19.9818 112.426 19.8895 113.218 19.624C114.011 19.3586 114.732 18.9266 115.331 18.3592C115.93 17.7918 116.392 17.1029 116.684 16.3421C116.976 15.5813 117.089 14.7675 117.017 13.959C117.017 10.3538 115.087 8.4633 110.477 8.4633H102.234ZM91.9926 40.4045V1.34082H112.158C123.081 1.34082 127.123 7.03441 127.123 14.069C127.123 19.2789 124.103 27.2587 110.228 27.2587H102.234V40.4485L91.9926 40.4045Z" fill="white"/>
<path d="M130.325 40.4485H140.43V23.9613H155.895V40.4485H166V1.29688H155.895V15.366H140.43V1.29688H130.325V40.4485Z" fill="white"/>
<path d="M78.8897 1.2749V25.7859C78.8897 28.8415 78.8897 33.436 72.0772 33.436C70.8513 33.5649 69.6117 33.3859 68.4781 32.9161C67.3445 32.4463 66.355 31.7017 65.6052 30.754C64.9809 29.1948 64.7324 27.5182 64.8785 25.8519V1.2749H54.7959V23.2579C54.7959 28.6217 54.7959 35.5463 62.4487 39.4373C65.3254 40.8606 68.506 41.6133 71.7365 41.6356C73.4397 41.6356 82.3414 41.3059 86.6788 34.4911C88.4684 31.045 89.2535 27.1917 88.9496 23.3458V1.36284L78.8897 1.2749Z" fill="white"/>
<path d="M59.0878 46.6259C59.1013 47.0523 59.032 47.4773 58.8834 47.8789C58.7509 48.2195 58.5026 48.5063 58.1795 48.6923C57.7852 48.9075 57.3375 49.014 56.8851 49.0001C56.4456 49.0111 56.0097 48.9206 55.6134 48.7363C55.2805 48.5556 55.0235 48.2678 54.8867 47.9229C54.7167 47.5111 54.6393 47.069 54.6596 46.6259V43.6362H55.7496V46.6699C55.7104 46.9617 55.7104 47.2573 55.7496 47.5492C55.8186 47.706 55.9381 47.8371 56.0903 47.9229C56.3137 48.035 56.5688 48.0736 56.817 48.0328C57.1509 48.0651 57.4847 47.9705 57.748 47.769C57.9634 47.4267 58.0516 47.0234 57.9978 46.6259V43.6362H59.0878V46.6259Z" fill="white"/>
<path d="M60.7683 43.5703L63.13 47.0216V43.5703H64.1973V48.9122H63.1754L60.8137 45.4828V48.9122H59.7691V43.5703H60.7683Z" fill="white"/>
<path d="M66.1956 43.5703H65.1056V48.9122H66.1956V43.5703Z" fill="white"/>
<path d="M67.6035 43.5703L68.9661 47.3074L69.0342 47.5272L69.125 47.2854L70.5557 43.5703H71.6684L69.5111 48.9122H68.5573L66.4227 43.5703H67.6035Z" fill="white"/>
<path d="M75.9603 43.5703V44.5595H72.9401V45.6807H75.7787V46.6259H72.9401V47.9229H76.0739V48.9122H71.8728V43.5703H75.9603Z" fill="white"/>
<path d="M79.1395 43.6359C79.5173 43.6161 79.8954 43.6684 80.2523 43.7898C80.3951 43.8328 80.5273 43.9037 80.6406 43.9983C80.7539 44.0928 80.8459 44.2089 80.9108 44.3394C81.0821 44.594 81.1693 44.893 81.1606 45.1967C81.1624 45.5719 81.0162 45.9336 80.7518 46.2079C80.5544 46.3989 80.3132 46.542 80.0479 46.6256C80.2759 46.8318 80.4814 47.0601 80.661 47.3071L81.751 48.9778H80.4112L79.6846 47.8567C79.5421 47.6191 79.3827 47.3914 79.2077 47.1752L78.9352 46.8894H78.6854H77.7543V49.0877H76.687V43.6359H79.1395ZM79.6618 45.8342C79.7773 45.7854 79.8787 45.7099 79.9571 45.6144C80.0247 45.5163 80.0639 45.4024 80.0706 45.2847C80.0751 45.2009 80.0589 45.1174 80.0233 45.0409C79.9878 44.9645 79.9339 44.8973 79.8662 44.845C79.6717 44.7022 79.4271 44.639 79.185 44.6691H77.7543V45.8342H79.0033C79.2295 45.8151 79.4515 45.7632 79.6618 45.6804V45.8342Z" fill="white"/>
<path d="M82.7048 47.0433C82.72 47.2209 82.7742 47.3932 82.8638 47.5489C82.9768 47.692 83.1252 47.8054 83.2952 47.8787C83.5369 47.9869 83.8011 48.0396 84.0673 48.0325C84.2624 48.0677 84.4626 48.0677 84.6577 48.0325C84.7956 48.0028 84.917 47.9244 84.9984 47.8127C85.0792 47.7213 85.1199 47.603 85.1119 47.483C85.1186 47.4332 85.1116 47.3826 85.0917 47.3363C85.0717 47.29 85.0396 47.2496 84.9984 47.2192C84.9141 47.0962 84.7839 47.0095 84.635 46.9773L83.7721 46.7575C83.4126 46.6846 83.0623 46.574 82.7275 46.4278C82.4724 46.3075 82.2535 46.1258 82.0917 45.9002C81.966 45.6771 81.8959 45.4287 81.8873 45.1747C81.8873 44.8894 81.9829 44.6117 82.1598 44.3834C82.3163 44.1088 82.5768 43.9039 82.8865 43.8118C83.1997 43.6734 83.5414 43.6057 83.8856 43.614C84.2591 43.6075 84.63 43.6748 84.9756 43.8118C85.2834 43.9389 85.5502 44.1439 85.7478 44.4053C85.9094 44.6734 86.0028 44.9748 86.0203 45.2847V45.4605H84.9756V45.2627C84.973 45.1544 84.9475 45.0479 84.9006 44.9495C84.8538 44.8512 84.7866 44.7633 84.7032 44.6911C84.4766 44.542 84.2042 44.4722 83.9311 44.4933C83.6687 44.4782 83.4078 44.5395 83.1817 44.6691C83.1228 44.7144 83.0743 44.771 83.0391 44.8353C83.004 44.8996 82.9829 44.9703 82.9773 45.0428C82.9754 45.1007 82.9866 45.1582 83.0101 45.2114C83.0337 45.2645 83.069 45.3121 83.1136 45.3506C83.3997 45.4896 83.706 45.586 84.0219 45.6364C84.4225 45.7215 84.8169 45.8316 85.2027 45.9661C85.497 46.0945 85.7543 46.2908 85.9521 46.5377C86.0957 46.7867 86.1736 47.066 86.1792 47.3511C86.1765 47.6533 86.0903 47.9493 85.9294 48.2084C85.7437 48.4856 85.474 48.7006 85.1573 48.8239C84.8294 48.9686 84.4732 49.0436 84.1127 49.0437C83.685 49.0576 83.2591 48.9827 82.8638 48.8239C82.5301 48.6869 82.2457 48.4574 82.0463 48.1644C81.8524 47.8674 81.7427 47.5262 81.7283 47.1752V46.9993L82.7729 46.8894L82.7048 47.0433Z" fill="white"/>
<path d="M87.9051 43.5703H86.8151V48.9122H87.9051V43.5703Z" fill="white"/>
<path d="M88.3819 44.5595V43.5703H92.8101V44.5595H91.1297V48.9122H90.0624V44.5595H88.3819Z" fill="white"/>
<path d="M95.626 43.6362L97.8968 48.9781H96.6706L96.0801 47.4832H94.2407L93.673 48.9781H92.5149L94.6268 43.6362H95.626ZM95.2853 45.4608C95.2468 45.3268 95.2013 45.1947 95.1491 45.0651C95.1552 45.1676 95.1552 45.2704 95.1491 45.3729L94.6949 46.56H95.8303L95.2853 45.4608Z" fill="white"/>
<path d="M98.8052 47.0433C98.8154 47.2251 98.8784 47.4003 98.9869 47.5489C99.0897 47.7015 99.2412 47.8173 99.4183 47.8787C99.6326 47.9708 99.8652 48.0158 100.1 48.0106C100.302 48.0503 100.51 48.0503 100.713 48.0106C100.851 47.9809 100.972 47.9025 101.053 47.7908C101.134 47.6994 101.175 47.5811 101.167 47.461C101.202 47.3764 101.202 47.2818 101.167 47.1972C101.068 47.0795 100.933 46.9949 100.781 46.9554C100.5 46.8604 100.211 46.7869 99.9179 46.7356C99.5584 46.6627 99.2082 46.5521 98.8733 46.4058C98.6209 46.2906 98.408 46.1074 98.2602 45.8782C98.1174 45.6611 98.0388 45.4102 98.0331 45.1528C98.0331 44.8674 98.1287 44.5897 98.3056 44.3614C98.4621 44.0869 98.7227 43.882 99.0323 43.7899C99.3548 43.6551 99.703 43.5877 100.054 43.592C100.42 43.5873 100.783 43.6546 101.121 43.7899C101.433 43.9108 101.701 44.1171 101.894 44.3834C102.058 44.6489 102.145 44.953 102.143 45.2627V45.4386H101.099V45.2407C101.078 45.0211 100.973 44.8171 100.804 44.6692C100.584 44.5233 100.32 44.4536 100.054 44.4713C99.7847 44.4571 99.5167 44.5182 99.2821 44.6472C99.2232 44.6925 99.1747 44.7491 99.1395 44.8134C99.1044 44.8777 99.0833 44.9483 99.0777 45.0209C99.0758 45.0787 99.087 45.1363 99.1106 45.1894C99.1341 45.2426 99.1694 45.2901 99.214 45.3287C99.5107 45.4615 99.8235 45.5575 100.145 45.6145C100.538 45.702 100.924 45.8121 101.303 45.9442C101.601 46.0667 101.86 46.264 102.053 46.5157C102.213 46.7588 102.299 47.0407 102.302 47.3291C102.303 47.635 102.208 47.9338 102.03 48.1865C101.848 48.4585 101.587 48.6725 101.28 48.802C100.944 48.9442 100.581 49.0189 100.213 49.0218C99.7854 49.0357 99.3595 48.9607 98.9642 48.802C98.6305 48.6649 98.3461 48.4355 98.1467 48.1425C97.9528 47.8455 97.8431 47.5043 97.8287 47.1533V46.9774L98.8506 46.8675L98.8052 47.0433Z" fill="white"/>
<path d="M106.98 43.6361C107.245 43.6161 107.511 43.6161 107.775 43.6361C108.035 43.6521 108.286 43.7356 108.502 43.8779C108.708 44.0264 108.872 44.223 108.979 44.4495C109.098 44.6818 109.16 44.9375 109.16 45.1969C109.168 45.6443 108.997 46.0774 108.683 46.4059C108.228 46.775 107.641 46.9566 107.048 46.9115H105.936V48.912H104.868V43.6361H106.98ZM107.843 45.8344C107.915 45.7665 107.971 45.684 108.007 45.5928C108.042 45.5016 108.056 45.4039 108.048 45.3068C108.055 45.1564 108.006 45.0084 107.911 44.8891C107.846 44.7817 107.74 44.703 107.616 44.6693H105.936V45.8344H107.048C107.305 45.9233 107.586 45.9233 107.843 45.8344Z" fill="white"/>
<path d="M113.77 43.5703V44.5595H110.75V45.6807H113.589V46.6259H110.75V47.9229H113.906V48.9122H109.683V43.5703H113.77Z" fill="white"/>
<path d="M115.541 43.5703V47.9229H118.062V48.9122H114.474V43.5703H115.541Z" fill="white"/>
<path d="M119.72 43.5703H118.653V48.9122H119.72V43.5703Z" fill="white"/>
<path d="M120.197 44.5595V43.5703H124.625V44.5595H122.967V48.9122H121.877V44.5595H120.197Z" fill="white"/>
<path d="M127.441 43.6362L129.712 48.9781H128.485L127.895 47.4832H126.056L125.488 48.9781H124.352L126.464 43.6362H127.441ZM127.123 45.4608L126.964 45.0651C126.97 45.1676 126.97 45.2704 126.964 45.3729L126.51 46.56H127.645L127.123 45.4608Z" fill="white"/>
<path d="M132.959 43.5703V45.5927H135.207V43.5703H136.274V48.9122H135.207V46.582H132.959V48.9122H131.892V43.5703H132.959Z" fill="white"/>
<path d="M139.522 43.6362L141.793 48.9781H140.589L139.999 47.4832H138.159L137.592 48.9781H136.433L138.568 43.6362H139.522ZM139.181 45.4608C139.181 45.3069 139.068 45.175 139.045 45.0651C139.014 45.1699 138.976 45.2726 138.931 45.3729L138.477 46.56H139.613L139.181 45.4608Z" fill="white"/>
<path d="M144.359 43.6361C144.697 43.5816 145.042 43.5816 145.381 43.6361C145.665 43.7296 145.902 43.9266 146.039 44.1857C146.2 44.4447 146.286 44.7408 146.289 45.043C146.291 45.4182 146.144 45.7799 145.88 46.0542C145.674 46.2339 145.435 46.3755 145.176 46.4719C145.398 46.6838 145.603 46.9116 145.789 47.1534L146.879 48.8241H145.54L144.813 47.703C144.67 47.4654 144.511 47.2377 144.336 47.0215L144.041 46.7357H143.791H142.883V48.934H141.815V43.6361H144.359ZM144.881 45.8344C144.996 45.7855 145.098 45.7101 145.176 45.6146C145.244 45.5165 145.283 45.4026 145.29 45.2848C145.294 45.2011 145.278 45.1175 145.242 45.0411C145.207 44.9646 145.153 44.8975 145.085 44.8452C144.882 44.7031 144.631 44.6403 144.381 44.6693H142.973V45.8344H144.222C144.448 45.8131 144.67 45.7613 144.881 45.6805V45.8344Z" fill="white"/>
<path d="M149.559 43.6362L151.83 48.9781H150.604L150.036 47.4832H148.196L147.629 48.9781H146.471L148.583 43.6362H149.559ZM149.218 45.4608L149.059 45.0651C149.059 45.0651 149.059 45.263 149.059 45.3729L148.583 46.56H149.718L149.218 45.4608Z" fill="white"/>
<path d="M154.033 43.6363C154.305 43.6186 154.578 43.6186 154.85 43.6363C155.103 43.6529 155.347 43.7366 155.554 43.8781C155.76 44.0265 155.924 44.2232 156.031 44.4496C156.15 44.682 156.212 44.9377 156.213 45.197C156.22 45.6445 156.05 46.0776 155.736 46.4061C155.28 46.7752 154.693 46.9567 154.101 46.9117H152.988V48.9122H151.921V43.6363H154.033ZM154.895 45.8345C154.972 45.7687 155.032 45.6871 155.071 45.5958C155.11 45.5045 155.128 45.4058 155.123 45.307C155.119 45.1581 155.071 45.0133 154.986 44.8893C154.907 44.7855 154.796 44.7086 154.668 44.6695H152.988V45.8345H154.101C154.358 45.9235 154.639 45.9235 154.895 45.8345Z" fill="white"/>
<path d="M159.21 43.6362L161.481 48.9781H160.277L159.687 47.4832H157.848L157.28 48.9781H156.122L158.234 43.6362H159.21ZM158.847 45.4608C158.802 45.3261 158.748 45.194 158.688 45.0651C158.695 45.1676 158.695 45.2704 158.688 45.3729L158.234 46.56H159.369L158.847 45.4608Z" fill="white"/>
<path d="M0.454168 22.4444C1.02566 16.1049 4.17402 10.2445 9.20722 6.15121C14.2404 2.05792 20.7466 0.0667385 27.2958 0.615302C33.8464 1.17403 39.9003 4.22643 44.1282 9.1023C48.3561 13.9782 50.4123 20.2789 49.8454 26.6211C49.2682 32.9625 46.1151 38.8229 41.0783 42.9157C36.0414 47.0084 29.5327 48.999 22.9811 48.4502C16.4346 47.886 10.3864 44.8312 6.16334 39.956C1.94027 35.0808 -0.112917 28.7831 0.454168 22.4444Z" fill="#ED1C24"/>
<path d="M0.840106 22.4666C1.41139 16.2244 4.51813 10.4568 9.47826 6.43C14.4384 2.40323 20.8465 0.446425 27.2956 0.98921C33.739 1.54813 39.6918 4.55327 43.8533 9.34795C48.0148 14.1426 50.0466 20.337 49.5047 26.5774C48.9163 32.8152 45.8007 38.5737 40.839 42.5942C35.8773 46.6147 29.4731 48.57 23.0264 48.0327C19.8303 47.7725 16.72 46.8977 13.8775 45.4595C11.0349 44.0214 8.51724 42.0488 6.47183 39.6572C4.40463 37.2952 2.84238 34.5594 1.87564 31.6085C0.908901 28.6575 0.556923 25.5502 0.840106 22.4666ZM22.9583 48.8461C29.6062 49.4008 36.2099 47.3789 41.3191 43.2243C46.4284 39.0696 49.6256 33.122 50.2086 26.6873C50.7819 20.2553 48.6963 13.8657 44.4093 8.92035C40.1223 3.97499 33.9841 0.877631 27.3411 0.307744C20.698 -0.241275 14.1008 1.77984 8.99364 5.92868C3.88643 10.0775 0.685221 16.0161 0.0907175 22.4446C-0.208022 25.6324 0.149994 28.8459 1.14403 31.8987C2.13806 34.9516 3.74833 37.783 5.88142 40.2288C8.00125 42.6795 10.6019 44.699 13.5331 46.1706C16.4643 47.6422 19.6678 48.5366 22.9583 48.8021V48.8461Z" fill="#112369"/>
<path d="M6.858 22.9721C7.06941 20.6366 7.75404 18.3642 8.87279 16.2848C9.99155 14.2054 11.5225 12.3597 13.3782 10.8532C15.234 9.34666 17.3781 8.20876 19.6881 7.50451C21.9982 6.80026 24.429 6.54345 26.8416 6.74874C29.2543 6.9534 31.6016 7.61615 33.7497 8.69916C35.8977 9.78216 37.8043 11.2642 39.3606 13.0606C40.9168 14.857 42.0923 16.9326 42.8198 19.1689C43.5473 21.4051 43.8126 23.7582 43.6005 26.0937C43.1734 30.8065 40.8312 35.1624 37.0884 38.2044C33.3456 41.2463 28.5084 42.7256 23.6397 42.3172C18.7653 41.9037 14.2599 39.6339 11.1132 36.0066C7.96657 32.3793 6.43608 27.6912 6.858 22.9721Z" fill="white"/>
<path d="M7.17591 23.0161C7.38578 20.715 8.06839 18.4776 9.18367 16.4354C10.2989 14.3931 11.8244 12.5871 13.6706 11.1233C17.3484 8.15058 22.0904 6.70469 26.8643 7.10044C29.2278 7.29742 31.5279 7.94455 33.6323 9.00463C35.7367 10.0647 37.604 11.5169 39.1269 13.2776C42.1653 16.8513 43.6258 21.4404 43.1918 26.0497C42.7474 30.6601 40.4428 34.9147 36.778 37.8903C33.1133 40.8659 28.3841 42.3223 23.617 41.9434C18.8546 41.5186 14.4574 39.293 11.3794 35.7496C8.30148 32.2062 6.79107 27.6308 7.17591 23.0161ZM23.5261 42.6688C28.5036 43.096 33.4525 41.5922 37.285 38.4881C41.1175 35.3841 43.5198 30.9338 43.9639 26.1157C44.1685 23.7358 43.8868 21.3402 43.1348 19.0657C42.3828 16.7913 41.1752 14.6825 39.5811 12.86C36.3692 9.15815 31.771 6.84158 26.7962 6.41897C24.33 6.21007 21.8455 6.47755 19.4871 7.20588C17.1286 7.93422 14.943 9.10889 13.0574 10.6617C11.1634 12.1992 9.6024 14.0843 8.46436 16.2084C7.32631 18.3325 6.63372 20.6537 6.42652 23.0381C6.01737 27.8338 7.58658 32.5912 10.791 36.2699C13.9954 39.9486 18.5742 42.2493 23.5261 42.6688Z" fill="#112369"/>
<path d="M5.45009 42.5149L4.56445 44.2076C6.06928 44.6959 7.67073 44.8388 9.24242 44.6253C11.7257 44.2892 14.2526 44.794 16.3956 46.0542C16.5137 46.1177 16.6466 46.1511 16.7817 46.1511C16.9168 46.1511 17.0496 46.1177 17.1677 46.0542C18.3339 45.3134 19.7357 45.0015 21.119 45.1749L27.5001 46.0982C29.0897 46.318 30.861 46.6258 30.861 46.6258L39.9445 38.1843C39.9445 38.1843 40.4214 37.1291 39.4676 36.7774C38.5138 36.4257 38.7636 36.6675 38.7636 36.6675L30.0889 44.0977L19.2342 42.9546L17.1677 43.68C13.9716 42.774 10.6647 42.2861 7.33491 42.2292L5.45009 42.5149Z" fill="#FFC20E"/>
<path d="M5.35924 42.4933L4.4736 44.164C5.99449 44.6504 7.61024 44.7933 9.197 44.5817C11.6627 44.2512 14.171 44.7477 16.3048 45.9886C16.5741 46.0949 16.8757 46.0949 17.145 45.9886C18.298 45.2563 19.6824 44.9446 21.0509 45.1093C23.3218 45.461 25.5926 45.7907 27.2503 46.0106H27.432C28.9989 46.2084 30.7702 46.5162 30.7702 46.5162L39.8536 38.0967C39.9769 37.7702 39.9769 37.412 39.8536 37.0855C39.7353 36.8419 39.5235 36.6526 39.2632 36.5579C38.5593 36.2941 38.4684 36.3381 38.4003 36.426C38.3817 36.4518 38.3718 36.4825 38.3718 36.5139C38.3718 36.5454 38.3817 36.5761 38.4003 36.6019V36.448L29.7256 43.8782L18.8709 42.7571L16.8044 43.4605C13.5995 42.5621 10.285 42.0815 6.94883 42.0316L5.15487 42.2734L5.35924 42.4933ZM7.24406 42.4933C10.5578 42.5441 13.8496 43.0246 17.0315 43.9222L19.098 43.1967L29.93 44.3179L38.6047 36.8876C38.8317 36.9274 39.0528 36.9939 39.2632 37.0855C39.3713 37.1134 39.4709 37.1659 39.5538 37.2385C39.6367 37.3111 39.7006 37.4019 39.7401 37.5032C39.8483 37.7793 39.8483 38.0843 39.7401 38.3605L30.6566 46.758C30.6566 46.758 28.8854 46.4502 27.2958 46.2524C25.7289 46.0325 23.3445 45.7028 21.0963 45.3511C19.6843 45.1593 18.2494 45.4889 17.0769 46.2743C16.97 46.3218 16.8538 46.3463 16.7363 46.3463C16.6187 46.3463 16.5025 46.3218 16.3956 46.2743C14.2132 45.0291 11.6633 44.5261 9.15157 44.8455C7.62591 45.0325 6.07649 44.8975 4.60985 44.4498L5.51821 42.7791L7.31218 42.5592L7.24406 42.4933Z" fill="#231F20"/>
<path d="M17.2812 44.7135C17.9174 44.3183 18.6325 44.0573 19.3798 43.9475C20.1271 43.8377 20.8899 43.8814 21.6186 44.076C24.7751 44.5596 30.3387 45.329 30.3841 45.329L39.0588 37.3272L38.9453 37.1953L30.2933 45.1971L21.5278 43.9661C20.7659 43.7567 19.9666 43.7073 19.1833 43.821C18.4001 43.9347 17.651 44.209 16.9861 44.6255L17.2812 44.7135Z" fill="#231F20"/>
<path d="M17.3721 45.131C18.0163 44.7348 18.7382 44.4717 19.4924 44.3582C20.2465 44.2448 21.0168 44.2833 21.7549 44.4715L30.5431 45.7246L39.4449 37.6129V37.459L30.5431 45.5707L21.7776 44.3177C21.0116 44.1231 20.2121 44.0851 19.4302 44.2062C18.6482 44.3273 17.9009 44.6049 17.2359 45.0211L17.3721 45.131Z" fill="#231F20"/>
<path d="M17.3494 45.6364C18.7361 44.9069 20.3414 44.666 21.8911 44.955C25.0703 45.3507 30.634 46.186 30.6794 46.208L39.6493 38.0303L39.513 37.8984L30.5431 46.0761C30.5431 46.0761 24.9341 45.2407 21.7549 44.8231C20.151 44.528 18.4911 44.7764 17.0542 45.5265L17.3494 45.6364Z" fill="#231F20"/>
<path d="M15.9415 35.3047L5.47278 42.4931C5.47278 42.4931 5.47279 42.669 6.26759 42.7569C7.54692 42.9216 8.83841 42.9805 10.1281 42.9328C11.545 42.8508 12.9668 42.9618 14.3519 43.2625C15.0198 43.4413 15.6727 43.6691 16.3048 43.944C16.5871 44.02 16.8759 44.0715 17.1677 44.0979C18.0558 43.6278 19.0647 43.4141 20.0744 43.4823C22.3453 43.4823 30.316 44.7574 30.316 44.7574L39.0588 36.6017C39.0588 36.6017 31.2698 36.4258 28.7491 36.3159C27.5892 36.1714 26.4106 36.2765 25.2974 36.6237C25.2974 36.6237 24.6389 35.5245 21.5959 35.5685C19.7068 35.6349 17.8152 35.5466 15.9415 35.3047Z" fill="white"/>
<path d="M15.9414 35.2388L5.47277 42.4272C5.47277 42.4272 5.60901 42.669 6.3811 42.779C7.6621 42.9241 8.95261 42.9755 10.2416 42.9328C11.6435 42.8482 13.0507 42.9593 14.42 43.2626C15.0901 43.4345 15.7436 43.6626 16.3729 43.944C16.6648 44.0068 16.9607 44.0508 17.2585 44.0759C17.3551 44.1022 17.4572 44.1022 17.5538 44.0759C18.3621 43.6861 19.2654 43.5189 20.1652 43.5923C22.4361 43.5923 30.316 44.8673 30.3841 44.8673L39.127 36.6897L39.2859 36.5578H39.0588C39.0588 36.5578 31.2471 36.4039 28.7491 36.294C27.5742 36.1451 26.3799 36.2502 25.252 36.6017H25.3655C25.3655 36.6017 24.6389 35.4586 21.5959 35.5246C19.7146 35.564 17.8327 35.4759 15.9641 35.2608L15.9414 35.2388ZM21.6867 35.6785C24.5934 35.6785 25.2974 36.6457 25.2974 36.6677C26.3985 36.3376 27.5585 36.2327 28.7037 36.3599L39.0134 36.6457V36.4918L30.2479 44.6475C30.2479 44.6475 22.1636 43.3945 19.9836 43.3725C19.0487 43.2857 18.1083 43.4693 17.2812 43.9001H17.0769C16.7928 43.872 16.5117 43.8205 16.2367 43.7462C15.5975 43.4696 14.9369 43.2417 14.261 43.0647C12.8743 42.7744 11.454 42.6635 10.0372 42.735C8.7482 42.7777 7.45773 42.7262 6.17673 42.5811C5.54089 42.5811 5.45007 42.3613 5.45007 42.3613L15.9187 35.1729C17.7988 35.5091 19.7067 35.6783 21.6186 35.6785H21.6867Z" fill="#231F20"/>
<path d="M5.58633 43.1085C7.07169 43.4569 8.60703 43.561 10.1281 43.4162C12.219 43.1274 14.35 43.5137 16.1913 44.5154L16.3048 44.3835C14.4284 43.3423 12.2457 42.9398 10.1053 43.2404C8.58519 43.3671 7.054 43.2707 5.5636 42.9546L5.58633 43.1085Z" fill="#231F20"/>
<path d="M5.13217 44.0538C6.67878 44.3528 8.26089 44.4416 9.83284 44.3176C12.0951 44.0932 14.372 44.5787 16.3275 45.7025L16.4411 45.5486C14.4451 44.4012 12.1172 43.915 9.81014 44.1637C8.28984 44.2658 6.76226 44.1697 5.26842 43.8779L5.13217 44.0538Z" fill="#231F20"/>
<path d="M5.35922 43.6363C6.84429 43.9861 8.3786 44.0975 9.90095 43.966C12.035 43.7073 14.1996 44.091 16.1004 45.0652L16.2139 44.9113C14.2713 43.9392 12.0736 43.5489 9.90095 43.7902C8.3801 43.9459 6.84283 43.8417 5.35922 43.4824V43.6363Z" fill="#231F20"/>
<path d="M7.42572 42.0753L11.4679 42.1852V42.0093L7.42572 41.8994V42.0753Z" fill="#231F20"/>
<path d="M12.6714 42.1851C13.4909 42.2545 14.3034 42.3868 15.1013 42.5808L15.9642 42.7567V42.6028L15.0785 42.405C14.287 42.2175 13.4825 42.0853 12.6714 42.0093V42.1851Z" fill="#231F20"/>
<path d="M8.10696 41.5479L12.1037 41.7238L12.1264 41.5479L8.12967 41.3721L8.10696 41.5479Z" fill="#231F20"/>
<path d="M8.69739 41.064L12.7622 41.2839L12.7849 41.108L8.7201 40.8882L8.69739 41.064Z" fill="#231F20"/>
<path d="M9.31055 40.6905L13.4208 40.8224L13.4435 40.6465L9.31055 40.5146V40.6905Z" fill="#231F20"/>
<path d="M9.96909 40.2506L14.0793 40.3605L14.1021 40.2066L9.96909 40.0747V40.2506Z" fill="#231F20"/>
<path d="M10.5822 39.8111L14.7152 39.899V39.7452L10.5822 39.6572V39.8111Z" fill="#231F20"/>
<path d="M11.3089 39.3277L15.3965 39.4596V39.2838L11.3316 39.1299L11.3089 39.3277Z" fill="#231F20"/>
<path d="M11.922 38.9098L16.0323 38.9977V38.8218L11.9447 38.7339L11.922 38.9098Z" fill="#231F20"/>
<path d="M12.626 38.4263L16.6908 38.5363V38.3824L12.626 38.2725V38.4263Z" fill="#231F20"/>
<path d="M13.4435 37.9864L17.3494 38.0963V37.9205L13.4435 37.8105V37.9864Z" fill="#231F20"/>
<path d="M14.0793 37.503L17.9852 37.6349V37.481L14.0793 37.3491V37.503Z" fill="#231F20"/>
<path d="M14.7379 37.0411L18.6438 37.173V37.0191L14.7379 36.8652V37.0411Z" fill="#231F20"/>
<path d="M15.3965 36.5797L19.3023 36.7116V36.5577L15.3965 36.4258V36.5797Z" fill="#231F20"/>
<path d="M15.9414 36.0518C16.8837 36.1596 17.8313 36.2183 18.78 36.2277H19.9609V36.0518H18.8027C17.9171 36.0518 17.0087 36.0518 15.9641 35.8979L15.9414 36.0518Z" fill="#231F20"/>
<path d="M13.2845 41.7237C14.0954 41.8017 14.8997 41.9339 15.6916 42.1194L16.5773 42.3173V42.1414L15.7143 41.9655C14.9098 41.7626 14.0896 41.6229 13.2618 41.5479L13.2845 41.7237Z" fill="#231F20"/>
<path d="M13.875 41.2838C14.7028 41.3334 15.5239 41.4586 16.3275 41.6575L17.1904 41.8553V41.6795L16.3048 41.4816C15.5045 41.304 14.6927 41.1792 13.875 41.1079V41.2838Z" fill="#231F20"/>
<path d="M14.5335 40.8004C15.3425 40.8913 16.146 41.0234 16.9406 41.1961L17.8263 41.3939V41.218L16.9633 41.0202C16.1549 40.845 15.3357 40.7202 14.5108 40.6465L14.5335 40.8004Z" fill="#231F20"/>
<path d="M15.1239 40.3609C15.9442 40.4243 16.7572 40.5567 17.5538 40.7566L18.4394 40.9325V40.7566L17.5538 40.5588C16.7531 40.3832 15.9414 40.2583 15.1239 40.1851V40.3609Z" fill="#231F20"/>
<path d="M15.7598 39.877C16.5789 39.9605 17.3909 40.1001 18.1896 40.2947L19.0525 40.4706V40.2947L18.1896 40.1188C17.3849 39.9213 16.5645 39.789 15.7371 39.7231L15.7598 39.877Z" fill="#231F20"/>
<path d="M16.3729 39.4376C17.1855 39.5025 17.9908 39.6349 18.78 39.8333L19.6657 40.0091V39.8333L18.78 39.6574C18.0001 39.4479 17.2019 39.3081 16.3956 39.2397L16.3729 39.4376Z" fill="#231F20"/>
<path d="M16.9861 38.9757C17.8061 39.041 18.6189 39.1734 19.4159 39.3713L20.3015 39.5472V39.3933L19.4159 39.1955C18.6169 39.0065 17.8049 38.8743 16.9861 38.7998V38.9757Z" fill="#231F20"/>
<path d="M17.6219 38.5142C18.4322 38.5853 19.2364 38.7102 20.029 38.888L20.9146 39.1078V38.9099L20.0517 38.7341C19.2519 38.5491 18.4401 38.4169 17.6219 38.3384V38.5142Z" fill="#231F20"/>
<path d="M18.2123 38.0743C19.024 38.1343 19.8291 38.2593 20.6194 38.448L21.505 38.6459V38.47L20.6194 38.2722C19.8175 38.0978 19.0063 37.9657 18.1896 37.8765L18.2123 38.0743Z" fill="#231F20"/>
<path d="M18.8481 37.6129C19.6683 37.6642 20.4818 37.7893 21.278 37.9866L22.1636 38.1844V38.0086L21.3007 37.8107C20.4945 37.6244 19.6745 37.4995 18.8481 37.437V37.6129Z" fill="#231F20"/>
<path d="M19.4613 37.151C20.2788 37.2242 21.0904 37.3491 21.8911 37.5247L22.7767 37.7225V37.5467L21.9138 37.3488C21.1058 37.1717 20.2865 37.0469 19.4613 36.9751V37.151Z" fill="#231F20"/>
<path d="M20.0744 36.6895C20.8944 36.7549 21.7073 36.8873 22.5042 37.0852L23.3899 37.2611V37.0852L22.5042 36.9094C21.7006 36.7024 20.8801 36.5626 20.0517 36.4917L20.0744 36.6895Z" fill="#231F20"/>
<path d="M20.7103 36.2281C21.5277 36.3014 22.3394 36.4262 23.1401 36.6018L24.003 36.7997V36.6238L23.1174 36.4479C22.3204 36.25 21.5075 36.1176 20.6875 36.0522L20.7103 36.2281Z" fill="#231F20"/>
<path d="M20.5286 42.8448L24.6161 43.2625V43.0866L20.5286 42.6689V42.8448Z" fill="#231F20"/>
<path d="M25.5472 43.3721L29.4076 43.9877V43.8118L25.5926 43.2183L25.5472 43.3721Z" fill="#231F20"/>
<path d="M21.2078 42.224L21.1891 42.3989L25.2551 42.805L25.2738 42.63L21.2078 42.224Z" fill="#231F20"/>
<path d="M21.7549 41.9435L25.8424 42.3611V42.1633L21.7776 41.7456L21.7549 41.9435Z" fill="#231F20"/>
<path d="M22.3907 41.482L26.4555 41.8777L26.4782 41.7238L22.4134 41.3062L22.3907 41.482Z" fill="#231F20"/>
<path d="M23.0038 41.0201L27.0914 41.4378V41.2619L23.0265 40.8442L23.0038 41.0201Z" fill="#231F20"/>
<path d="M23.617 40.5587L27.7045 40.9763L27.7272 40.8005L23.6397 40.4048L23.617 40.5587Z" fill="#231F20"/>
<path d="M24.2301 40.0968L28.3177 40.5144L28.3404 40.3386L24.2755 39.9209L24.2301 40.0968Z" fill="#231F20"/>
<path d="M24.8432 39.6573L28.9535 40.053V39.8771L24.8659 39.4595L24.8432 39.6573Z" fill="#231F20"/>
<path d="M25.4791 39.1954L29.5666 39.6131V39.4152L25.4791 38.9976V39.1954Z" fill="#231F20"/>
<path d="M26.0922 38.712L30.157 39.1297L30.2025 38.9758L26.1149 38.5361L26.0922 38.712Z" fill="#231F20"/>
<path d="M26.183 42.9327L30.0208 43.5262L30.0435 43.3504L26.2058 42.7568L26.183 42.9327Z" fill="#231F20"/>
<path d="M26.7735 42.4713L30.6339 43.0428V42.889L26.8189 42.2954L26.7735 42.4713Z" fill="#231F20"/>
<path d="M27.4093 42.0094L31.2471 42.6029L31.2698 42.427L27.4547 41.8335L27.4093 42.0094Z" fill="#231F20"/>
<path d="M28.0451 41.5479L31.8602 42.1415L31.9056 41.9656L28.0678 41.3721L28.0451 41.5479Z" fill="#231F20"/>
<path d="M28.6583 41.086L32.496 41.6796L32.5187 41.5037L28.681 40.9102L28.6583 41.086Z" fill="#231F20"/>
<path d="M29.2714 40.6246L33.1092 41.2181L33.1319 41.0423L29.2941 40.4487L29.2714 40.6246Z" fill="#231F20"/>
<path d="M29.7029 40.0528L33.5406 40.6464L33.5633 40.4705L29.7256 39.877L29.7029 40.0528Z" fill="#231F20"/>
<path d="M30.157 39.4595L33.9948 40.0531L34.0175 39.8772L30.1798 39.3057L30.157 39.4595Z" fill="#231F20"/>
<path d="M30.7929 38.9537L34.6079 39.5472L34.6533 39.3933L30.8156 38.7998L30.7929 38.9537Z" fill="#231F20"/>
<path d="M31.3379 38.4044L35.1756 38.9979L35.1984 38.8221L31.3606 38.2285L31.3379 38.4044Z" fill="#231F20"/>
<path d="M32.0419 37.8985L35.8569 38.514L35.8796 38.3382L32.0419 37.7227V37.8985Z" fill="#231F20"/>
<path d="M23.2536 32.6445C23.294 33.4049 23.1296 34.1624 22.7767 34.8428C22.1863 35.8101 21.3915 36.4916 20.8692 36.5135C20.3469 36.5355 19.6884 36.0739 19.0753 37.195C19.2731 36.9752 19.5501 36.8368 19.8498 36.8082C20.1495 36.7796 20.4492 36.8629 20.6875 37.0411C19.8246 37.0411 19.4386 37.4808 19.4386 38.2062C19.6282 37.9142 19.9078 37.6872 20.2377 37.5571C20.5677 37.4269 20.9315 37.4002 21.278 37.4808C21.982 37.6786 22.2317 37.7006 22.3907 38.448C22.754 38.1403 22.6632 37.6786 22.1182 37.1071C22.3302 36.301 22.8297 36.345 23.617 37.239C23.617 37.239 22.8676 36.0959 23.617 35.3924C24.2161 34.8364 24.8972 34.3697 25.638 34.0075L26.0695 33.8096L23.2536 32.6445Z" fill="#FFC20E"/>
<path d="M23.1628 32.6446C23.2153 33.4058 23.0504 34.1664 22.6859 34.8429C22.1409 35.7442 21.3688 36.4476 20.8692 36.4696H20.4832C19.9836 36.4696 19.5975 36.3377 19.0979 37.239H19.2342C19.4251 37.0387 19.6849 36.9126 19.965 36.8843C20.245 36.856 20.5261 36.9274 20.7557 37.0851V36.9093C19.87 36.9093 19.4386 37.3929 19.4386 38.1843V38.4701L19.5975 38.2502C19.777 37.9666 20.0466 37.7469 20.366 37.624C20.6853 37.5011 21.0371 37.4817 21.3688 37.5688C21.9819 37.7006 22.1636 37.7446 22.3226 38.4261V38.558H22.4361C22.8222 38.2063 22.7541 37.7007 22.1636 37.1071C22.1636 36.7993 22.3453 36.6235 22.4815 36.6015C22.6178 36.5795 22.9584 36.6015 23.5261 37.261H23.6624C23.6624 37.261 22.9811 36.1619 23.6624 35.5024C24.2604 34.9569 24.9422 34.5046 25.6834 34.1614L26.1149 33.9416H26.2739H26.1149L23.3672 32.7985H23.2309L23.1628 32.6446ZM25.956 33.7217L25.5245 33.9196C24.7749 34.2878 24.0861 34.762 23.4807 35.3265C22.7768 36.0739 23.4807 37.239 23.4807 37.283C23.0038 36.7114 22.5951 36.4916 22.2999 36.5575C22.0047 36.6235 21.9138 36.8213 21.823 37.217C22.5724 38.0084 22.2318 38.3382 22.0955 38.4481H22.2544C22.0955 37.6787 21.823 37.5907 21.1871 37.4588C20.8195 37.3639 20.4298 37.3877 20.0774 37.5265C19.7249 37.6654 19.4289 37.9118 19.2342 38.2282H19.3932C19.3932 37.5468 19.7565 37.1731 20.5513 37.1291H20.8011L20.5967 36.9752C20.3376 36.7924 20.0177 36.7092 19.6988 36.7417C19.38 36.7742 19.0849 36.9201 18.8708 37.1511H19.0071C19.4386 36.3817 19.7111 36.4037 20.188 36.4696H20.7557C21.3007 36.4696 22.0955 35.7442 22.6859 34.7549C23.0617 34.0812 23.2422 33.3216 23.2082 32.5566L25.9332 33.7437L25.956 33.7217Z" fill="#231F20"/>
<path d="M24.3664 27.1709C24.3664 27.1709 26.0922 26.7092 26.6372 27.3248C27.8862 23.17 25.7062 22.1368 25.5699 21.9389C25.4337 21.7411 24.6616 19.1251 27.8408 16.4212C31.02 13.7173 32.6777 12.0246 34.6534 10.1561C37.2947 7.24238 39.4132 3.92096 40.9209 0.329683C42.3743 3.69307 41.0572 6.79267 35.6071 13.6514C38.3167 11.1883 40.4466 8.18924 41.852 4.85817C41.8818 6.67522 41.5079 8.47726 40.7557 10.1423C40.0034 11.8073 38.8904 13.2963 37.4919 14.5087C38.6843 13.4519 39.7715 12.289 40.7393 11.0354C41.4113 10.0324 42.018 8.98988 42.556 7.9138C43.0783 10.5518 41.1253 14.0031 36.7426 18.2458C39.162 16.4386 41.303 14.3068 43.101 11.9147C42.942 14.4647 40.8301 17.3885 36.8788 20.7079C38.0505 20.058 39.1273 19.2595 40.0807 18.3337C40.883 17.4843 41.6409 16.5965 42.3516 15.6738C41.9176 17.3487 41.12 18.9149 40.0119 20.2681C38.9038 21.6213 37.5106 22.7305 35.925 23.5217L37.7644 22.7743C37.6375 23.3152 37.4018 23.8266 37.0706 24.2792C36.7394 24.7319 36.3192 25.1169 35.8342 25.4122H37.1967C36.76 26.2996 36.0447 27.0305 35.153 27.5006L36.5836 27.2588C36.3861 27.6854 36.0915 28.0631 35.7218 28.3639C35.3522 28.6646 34.917 28.8805 34.449 28.9954H35.6298C35.3485 29.4208 34.9674 29.7759 34.5176 30.0318C34.0677 30.2878 33.5618 30.4373 33.041 30.4683L33.9721 30.9959C33.3183 31.5217 32.5367 31.8773 31.7012 32.0291C33.074 33.2228 34.8127 33.9486 36.6517 34.0955C39.354 34.0955 39.9672 34.0955 39.8309 34.6231C39.6947 35.1507 37.5601 36.4257 37.5601 36.4257H38.7409C38.4191 36.9085 37.9622 37.293 37.4235 37.5342C36.8848 37.7755 36.2864 37.8637 35.6979 37.7886L36.7426 38.1184C36.0003 38.7127 35.0446 38.9973 34.0856 38.9098L34.3354 39.5253C33.4843 39.9307 32.5283 40.0837 31.5877 39.965L32.5642 40.7124C30.8317 40.9578 29.0643 40.6326 27.5456 39.7891L27.6818 40.1408C23.6851 38.8878 25.5472 37.4809 25.4109 33.9636C24.226 33.606 23.1911 32.8893 22.4588 31.9192L20.188 32.139L20.8919 31.3476C20.0295 31.7312 19.0513 31.7938 18.1442 31.5235L19.0525 30.7761C18.0079 31.0264 16.9054 30.9096 15.9415 30.4463L16.7363 29.8308C16.3116 29.885 15.8797 29.8326 15.4821 29.6786C15.0844 29.5246 14.7343 29.2742 14.4654 28.9515L15.3737 28.4019C14.9197 28.3717 14.4788 28.241 14.0851 28.02C13.6915 27.799 13.3554 27.4934 13.1029 27.1269L14.4881 27.2588C13.9905 27.0575 13.5418 26.758 13.1703 26.3796C12.7989 26.0011 12.513 25.5519 12.3308 25.0605H13.6706C12.5986 24.541 11.7824 23.6322 11.3997 22.5325C11.9119 22.7812 12.4924 22.8658 13.0574 22.7743C11.3797 21.7188 10.0854 20.1814 9.35597 18.3777C10.4444 19.2848 11.6324 20.0735 12.8985 20.7299C10.1053 18.1359 8.19782 15.8716 8.10698 12.8819C9.5489 14.9536 11.4495 16.6883 13.6706 17.96C8.64441 13.3876 6.47197 9.5039 7.15323 6.30905C7.65183 8.04315 8.52661 9.65441 9.71928 11.0354C7.9253 7.03448 7.44844 5.73749 8.22053 4.1767L12.0583 10.5957C8.4703 4.52843 8.24325 0.967188 10.991 0.131836C10.991 0.131836 10.1962 2.19824 14.0112 6.99052C16.2861 9.49425 18.0437 12.3972 19.1888 15.5419C19.3956 16.2181 19.456 16.9283 19.3661 17.6281C19.2762 18.3279 19.038 19.0022 18.6665 19.6087C18.3604 19.9773 18.1461 20.4091 18.0403 20.8708C17.9345 21.3324 17.94 21.8115 18.0564 22.2707C18.1728 22.73 18.397 23.1571 18.7115 23.5189C19.0261 23.8808 19.4225 24.1676 19.87 24.3571C22.0955 25.8519 24.3664 27.1709 24.3664 27.1709Z" fill="#112369"/>
<path d="M24.389 27.2589C24.389 27.2589 26.0695 26.8192 26.6599 27.3908H26.7735V27.2369C27.2503 25.9717 27.2901 24.5909 26.887 23.3019C26.6743 22.7335 26.2956 22.2371 25.797 21.8731H25.6834C25.4827 20.8621 25.5905 19.8164 25.9938 18.8638C26.3971 17.9112 27.0783 17.093 27.9543 16.5092C30.4522 14.3109 32.0191 12.86 33.5406 11.4092L34.7442 10.2441C37.3519 7.36387 39.4262 4.0693 40.8755 0.505628H40.7166C42.1472 3.78109 40.9663 6.77077 35.4254 13.6954H35.5617C38.2616 11.2196 40.3965 8.22437 41.8293 4.90222H41.6476C41.6701 6.70119 41.297 8.48422 40.5531 10.1329C39.8092 11.7816 38.7116 13.2583 37.333 14.4648V14.5967C38.5333 13.533 39.6281 12.3628 40.603 11.1014C41.2677 10.0981 41.8668 9.05555 42.397 7.97983H42.238C42.7376 10.5738 40.8074 14.0251 36.4246 18.2239L36.5609 18.3558C39.0764 16.559 41.3098 14.4191 43.1918 12.0027H43.0328C42.8738 14.5088 40.762 17.4325 36.8334 20.642V20.7739C38.026 20.1358 39.1129 19.3281 40.058 18.3778C41.4886 16.9269 42.3288 15.7178 42.3288 15.7178H42.1472C41.7329 17.3862 40.95 18.9478 39.8523 20.295C38.7546 21.6423 37.3683 22.7431 35.7888 23.5218V23.6757L37.6282 22.9502C37.3444 24.0071 36.6644 24.924 35.7207 25.5222L35.4481 25.7201H35.7661H37.1513V25.5882C36.7346 26.4632 36.0325 27.1815 35.1529 27.6326V27.8085L36.5609 27.5666V27.4347C36.3704 27.8494 36.0856 28.217 35.7278 28.5101C35.3699 28.8032 34.9483 29.0142 34.4944 29.1274V29.3033H35.6525V29.1714C35.3812 29.5857 35.0101 29.9302 34.5711 30.1752C34.1321 30.4202 33.6382 30.5586 33.1319 30.5783H32.8594L33.1091 30.7322L34.0402 31.2598V30.8861C33.3853 31.4102 32.6042 31.7656 31.7694 31.9193H31.5877H31.7239C33.094 33.1642 34.85 33.9369 36.7198 34.1176H37.6963C38.9907 34.1176 39.6492 34.1176 39.7855 34.3154C39.9217 34.5133 39.7855 34.3154 39.7855 34.5352C39.7855 34.7551 38.1732 35.9422 37.5146 36.2939L37.2648 36.4258H37.5601H38.7409V36.2939C38.4371 36.7714 37.996 37.1526 37.4716 37.3908C36.9471 37.629 36.3623 37.7138 35.7888 37.6348V37.8107L36.8107 38.1185V37.9866C36.0869 38.5663 35.1583 38.8502 34.2219 38.7779H34.0856L34.3127 39.3715V39.2616C33.4802 39.674 32.5364 39.8275 31.6104 39.7012H31.2698L31.5422 39.9211L32.5414 40.6685V40.5146C30.8338 40.7482 29.0942 40.4315 27.591 39.6133L27.3639 39.4594V39.7012V40.053L27.4774 39.943C24.6843 39.0637 24.8205 38.1844 25.093 36.3598C25.2619 35.5349 25.3381 34.6946 25.3201 33.8538C24.1542 33.4951 23.1362 32.7868 22.4134 31.8313L20.1425 32.0731V32.205L20.8465 31.3917L20.733 31.2598C19.8918 31.6329 18.9388 31.6954 18.0533 31.4356V31.5895L18.939 30.8421V30.6882C17.9147 30.9396 16.8304 30.8143 15.896 30.3365V30.4464L16.6681 29.8309L16.9179 29.633H16.6C16.1786 29.7162 15.7415 29.6819 15.3395 29.534C14.9374 29.3861 14.5871 29.1308 14.3291 28.7977V28.9296L15.2602 28.402L15.51 28.2481H15.2147C14.7638 28.2262 14.3243 28.1037 13.9304 27.8901C13.5364 27.6766 13.1988 27.3778 12.9439 27.0171V27.149L14.3291 27.2809V27.105C13.8502 26.9223 13.4166 26.6438 13.0566 26.2877C12.6966 25.9316 12.4183 25.506 12.2399 25.0386V25.1485H13.5798V24.9727C12.5886 24.3895 11.8655 23.4614 11.5587 22.3787H11.4224C11.959 22.627 12.561 22.7113 13.1483 22.6205H13.3754L13.171 22.4886C11.5166 21.4138 10.2347 19.8818 9.4922 18.092H9.35595C10.4627 18.9862 11.6567 19.774 12.9212 20.4442V20.3123C10.0599 17.6523 8.37949 15.432 8.1524 12.5303H7.99342C9.37693 14.619 11.2231 16.3836 13.3981 17.6963L13.5116 17.5424C8.53841 13.0359 6.3584 9.14493 6.99424 6.00137H6.8353C7.34142 7.7569 8.22346 9.38969 9.42408 10.7937L9.58302 10.6837C7.76633 6.66085 7.31215 5.40782 8.08424 3.891H7.9026L11.7403 10.288H11.8993C9.44678 6.13327 8.51571 3.03367 9.21967 1.319C9.3477 0.986189 9.55713 0.688363 9.83001 0.451003C10.1029 0.213643 10.4311 0.0438185 10.7866 -0.0439453C10.7866 -0.0439453 9.99178 2.15434 13.8068 6.88068C16.049 9.38685 17.7963 12.2705 18.9617 15.3881V15.542C19.1529 16.1871 19.2052 16.8634 19.1153 17.5289C19.0255 18.1945 18.7954 18.835 18.4394 19.411C18.154 19.7566 17.9459 20.1559 17.8287 20.5836C17.7114 21.0113 17.6874 21.4579 17.7581 21.895C17.8926 22.3955 18.1312 22.8642 18.4592 23.2724C18.7871 23.6806 19.1977 24.0198 19.6657 24.2692C21.9365 25.764 24.2074 27.061 24.2074 27.061L24.389 27.2589ZM19.8473 24.2692C18.9587 23.7999 18.2976 23.0098 18.0079 22.0709C17.9459 21.658 17.9745 21.237 18.0919 20.8355C18.2092 20.434 18.4128 20.0609 18.6892 19.7407C19.0486 19.1377 19.2818 18.472 19.3753 17.7818C19.4688 17.0915 19.4208 16.3902 19.2342 15.7178V15.5859C18.0669 12.4398 16.3033 9.53225 14.0339 7.01258C10.3097 2.30823 11.0364 0.241831 11.0364 0.219848V0.0659678H10.8547C10.4687 0.166555 10.113 0.354561 9.81684 0.614477C9.52071 0.874392 9.29266 1.19876 9.15155 1.56081C8.44758 3.34143 9.33323 6.39706 11.8539 10.6398H12.0129L8.19779 4.06686V3.93496V4.06686C7.38028 5.6936 7.92529 7.03456 9.71927 11.0355H9.85555C8.61993 9.64238 7.69246 8.01885 7.13049 6.26516H6.97154C6.29028 9.45269 8.493 13.3876 13.5116 17.9601V17.8282C11.4188 16.5511 9.63069 14.8575 8.26592 12.86H8.10697C8.10697 15.8277 10.0372 18.07 12.9439 20.7739V20.642C11.6862 19.9724 10.4996 19.1845 9.40135 18.2898H9.2651C9.99814 20.1393 11.3077 21.722 13.012 22.8183V22.6425C12.464 22.7039 11.9089 22.6282 11.3997 22.4226H11.2407V22.5985C11.5671 23.7254 12.3215 24.6913 13.3527 25.3024V25.1485H12.0129H11.8766V25.2804C12.0659 25.7853 12.3674 26.2439 12.7598 26.6237C13.1522 27.0036 13.6259 27.2954 14.1475 27.4787V27.3248L12.7622 27.2149H12.5578V27.3688C12.8254 27.753 13.1829 28.0707 13.6011 28.2961C14.0194 28.5215 14.4867 28.6481 14.965 28.6658V28.2481L14.0339 28.7757H13.9204C14.2086 29.1235 14.589 29.389 15.0209 29.5439C15.4529 29.6988 15.9202 29.7372 16.3729 29.655V29.5231L15.9414 30.4464H16.0777C17.0417 30.9591 18.175 31.0854 19.2342 30.7981V30.6662L18.3485 31.4137H18.2123H18.3713C19.3003 31.6925 20.3029 31.6299 21.1871 31.2378L21.0736 31.1059L20.3696 31.9193L20.2107 32.0951H20.4377L22.7086 31.8533C23.4452 32.8719 24.4938 33.6409 25.7062 34.0516C25.7181 34.8913 25.6496 35.7302 25.5018 36.5577C25.2066 38.3383 25.0476 39.3935 27.977 40.3167H28.1587V40.1629L28.0224 39.7892L27.8862 39.8991C29.422 40.7633 31.2157 41.0967 32.9729 40.8443H33.1773L33.0183 40.7124L32.0191 39.943V40.1189C32.9843 40.2415 33.9654 40.0807 34.835 39.6573L34.5852 39.0637V39.1956C35.0722 39.2372 35.5627 39.1827 36.0273 39.0353C36.4918 38.888 36.9205 38.6508 37.2875 38.3383H37.4011H37.2648L36.243 37.9866V38.1624C36.849 38.2443 37.4665 38.1526 38.0194 37.8987C38.5722 37.6448 39.0362 37.2397 39.354 36.7335H39.2178H38.0369V36.8874C38.264 36.7555 40.1261 35.6783 40.3078 35.0628C40.3416 35.002 40.3593 34.934 40.3593 34.865C40.3593 34.7959 40.3416 34.7279 40.3078 34.6671C40.1261 34.4253 39.5584 34.4033 38.0369 34.4033H37.0605C35.2499 34.2579 33.5369 33.5483 32.1781 32.3809V32.5128C33.0174 32.3594 33.8004 31.9956 34.4489 31.4576L33.5179 30.93V31.0839C34.0534 31.0646 34.5758 30.9181 35.0391 30.6574C35.5023 30.3968 35.8924 30.0299 36.1748 29.5891V29.4572H36.0386H34.8577V29.633C35.353 29.527 35.8159 29.311 36.2101 29.002C36.6042 28.6929 36.9186 28.2994 37.1286 27.8524V27.6985H36.9696L35.539 27.9184V28.0722C36.4646 27.5799 37.1984 26.8079 37.6282 25.8739V25.7421H37.4692H36.1067V25.9179C37.0994 25.3056 37.8077 24.344 38.0823 23.236V23.0601H37.9234L36.0613 23.7636L36.1748 23.9395C37.7644 23.1424 39.1599 22.0261 40.2681 20.6651C41.3764 19.3042 42.1719 17.7299 42.6014 16.0476H42.4424C41.7353 16.973 40.9773 17.861 40.1715 18.7075C39.2197 19.6258 38.1515 20.4235 36.9923 21.0817V21.2136C40.9891 17.9821 43.1237 15.0144 43.2599 12.4204V12.1126L43.101 12.3764C41.2923 14.7541 39.1437 16.871 36.7198 18.6635L36.8561 18.7954C41.3978 14.5527 43.2372 11.0574 42.6922 8.39751V8.13371L42.5786 8.37552C42.0645 9.45919 41.4648 10.5028 40.7847 11.4971C39.825 12.7437 38.7453 13.8993 37.5601 14.9484V15.0803C38.9639 13.8556 40.0827 12.3559 40.8422 10.6807C41.6018 9.00556 41.9847 7.1932 41.9655 5.36386H41.7839C40.3578 8.68405 38.2307 11.6791 35.539 14.157H35.6979C37.829 11.5874 39.5864 8.74713 40.9209 5.71559C41.3157 4.86539 41.5199 3.94383 41.5199 3.01168C41.5199 2.07954 41.3157 1.15798 40.9209 0.307782V0.109935V0.307782V0.417695C39.4703 3.95593 37.4042 7.22743 34.8123 10.0902L33.6087 11.2553C32.0873 12.7062 30.5204 14.223 28.0451 16.3553C27.152 16.9657 26.4618 17.8145 26.0585 18.7982C25.6553 19.7819 25.5565 20.8579 25.7743 21.895L25.8878 22.0269C26.38 22.3641 26.7527 22.8401 26.9551 23.3899C27.3261 24.6471 27.2784 25.9854 26.8189 27.2149H26.9778C26.3193 26.5994 24.5934 27.0171 24.5253 27.039C24.5253 27.039 22.0955 25.764 19.8246 24.2692H19.8473Z" fill="#231F20"/>
<path d="M18.2123 26.2698C18.2123 26.2698 18.5075 24.0715 20.4832 23.9176C22.4588 23.7637 26.3647 27.1931 27.5683 27.3909H26.5237L26.9779 28.6C26.8748 28.3994 26.7206 28.2276 26.5299 28.1006C26.3392 27.9737 26.1182 27.8959 25.8879 27.8746L26.5237 28.8418L25.6608 28.4241L26.3193 29.875L24.8887 29.1935L25.2747 30.4686L24.1847 29.7871L24.4345 31.128L23.0947 30.1608L23.5261 31.7435L22.7541 31.15V32.2492C22.3115 31.5804 22.0104 30.8331 21.8684 30.0509C21.6868 28.8198 21.278 27.325 20.6649 27.8526C20.4604 28.1315 20.1807 28.3508 19.8564 28.4864C19.532 28.6221 19.1754 28.669 18.8255 28.622L20.3696 27.0612C19.7497 27.044 19.141 27.2238 18.6366 27.5731C18.1321 27.9225 17.7598 28.4221 17.5765 28.9957C16.6681 27.9405 16.759 27.1711 17.8263 26.7974C17.5765 26.3577 17.7354 26.1819 18.2123 26.2698Z" fill="#FFC20E"/>
<path d="M18.2123 26.2697C18.2123 26.2697 18.5302 24.2033 20.3015 24.0714C21.9785 24.4331 23.5381 25.188 24.8432 26.2697C25.6209 26.837 26.4771 27.2958 27.3866 27.6326V27.4568H26.342H26.2057V27.5667L26.6599 28.7757H26.8416C26.7294 28.5602 26.5619 28.3763 26.3551 28.2415C26.1483 28.1068 25.9092 28.0258 25.6607 28.0063H25.4791V28.1602L26.1149 29.1495L26.2511 29.0176L25.3882 28.5999H25.1611V28.8197L25.8197 30.2706L25.9332 30.1387L24.5253 29.4572H24.3436V29.6551L24.6843 30.9301H24.8205L23.7532 30.2486L23.5942 30.1167V30.3365L23.844 31.6555H23.9803L22.6405 30.7102L22.4588 30.5783V30.8202L22.913 32.4029H23.0265L22.2771 31.8094H22.1182V31.9852V33.0844H22.2771C21.8227 32.4193 21.5136 31.6712 21.3688 30.8861C21.3688 30.2706 21.0509 28.6878 20.5059 28.6878C20.3469 28.6878 20.2107 28.6878 20.029 28.8197C19.8317 29.0736 19.5671 29.2711 19.2632 29.391C18.9593 29.511 18.6276 29.5491 18.3031 29.5012V29.6331L19.8473 28.0943L19.9609 27.9624H19.7792C19.1415 27.9431 18.5148 28.126 17.9942 28.4831C17.4737 28.8402 17.0878 29.352 16.8952 29.9408H17.0542C16.8595 29.7594 16.7064 29.5404 16.6047 29.2981C16.5029 29.0557 16.4549 28.7954 16.4637 28.5339C16.536 28.3619 16.6468 28.2076 16.7882 28.0822C16.9295 27.9567 17.098 27.8632 17.2812 27.8085C17.2812 27.5887 17.2812 27.4568 17.2812 27.3908C17.2812 27.3249 17.4629 27.3908 17.5765 27.3908L18.2123 26.2697ZM17.6446 26.7313C17.4309 26.7886 17.2356 26.8973 17.0768 27.0472C16.918 27.197 16.8009 27.3833 16.7363 27.5887C16.7065 27.8737 16.7464 28.1616 16.853 28.429C16.9595 28.6963 17.1295 28.9356 17.3494 29.1275V28.9956C17.5311 28.4374 17.895 27.9514 18.3863 27.6105C18.8777 27.2696 19.47 27.0923 20.0744 27.105V26.9731L18.5302 28.512L18.394 28.6658H18.5983C18.9457 28.7081 19.2985 28.6614 19.6213 28.5302C19.9441 28.399 20.2256 28.188 20.4377 27.9184C20.4711 27.8749 20.5166 27.8414 20.5689 27.822C20.6211 27.8025 20.6781 27.7978 20.733 27.8085C21.0055 27.9184 21.3234 28.7758 21.4596 30.0068C21.6082 30.8491 21.9244 31.6554 22.3907 32.3809L22.5724 32.6228V32.315V31.2158H22.4361L23.2082 31.8094L23.4126 31.9852V31.7215L22.9811 30.1387H22.8448L24.162 31.084L24.3664 31.2158V30.996L24.1166 29.6551H23.9576L25.0476 30.3365L25.252 30.4684V30.2486L24.8659 28.9736H24.7297L26.1603 29.677H26.3647V29.4572L25.7062 28.0283V28.1382L26.5691 28.5559L26.8643 28.7098L26.6826 28.424L26.0241 27.4568C26.2448 27.481 26.4558 27.558 26.6382 27.6808C26.8205 27.8036 26.9684 27.9683 27.0687 28.1602H27.2276L26.7507 26.9512V27.0831H27.7953V26.9072C26.8362 26.7433 25.9044 26.4549 25.0249 26.0499C23.3445 24.9947 21.4596 23.8516 20.4832 23.8516C18.5529 24.0714 18.2123 26.2477 18.2123 26.2697H18.3259C18.2516 26.2347 18.17 26.2165 18.0874 26.2165C18.0048 26.2165 17.9232 26.2347 17.849 26.2697C17.849 26.2697 17.7127 26.5555 17.849 26.8412L17.6446 26.7313Z" fill="#231F20"/>
<path d="M19.5294 26.4893C18.3713 26.6432 18.5302 25.4561 19.8246 25.3682C18.7346 26.0496 19.0298 26.2255 19.5294 26.4893Z" fill="white"/>
<path d="M19.5294 26.4455C19.4099 26.4767 19.284 26.4769 19.1644 26.4461C19.0448 26.4152 18.9357 26.3543 18.8482 26.2696C18.8201 26.215 18.8056 26.1548 18.8056 26.0938C18.8056 26.0327 18.8201 25.9726 18.8482 25.9179C18.9564 25.7582 19.105 25.6279 19.2799 25.5394C19.4548 25.451 19.6501 25.4072 19.8473 25.4123C19.3478 25.6981 19.0753 25.8959 19.0753 26.1157C19.0753 26.3356 19.3023 26.4675 19.5521 26.5994L19.5294 26.4455ZM19.8246 25.3244C19.6101 25.3213 19.3982 25.37 19.2079 25.4659C19.0177 25.5619 18.855 25.7021 18.7346 25.8739C18.6949 25.9448 18.674 26.0241 18.674 26.1048C18.674 26.1854 18.6949 26.2647 18.7346 26.3356C18.7346 26.4455 19.0298 26.5994 19.484 26.5114H19.643H19.5067C19.3024 26.3795 19.098 26.2476 19.098 26.0938C19.098 25.9399 19.325 25.72 19.8019 25.4782L19.8246 25.3244Z" fill="#231F20"/>
<path d="M30.1343 40.1846C28.136 39.2174 27.2049 38.4699 27.3639 37.2829C27.1343 37.2163 26.8895 37.2163 26.6599 37.2829C26.6826 39.0855 27.7953 40.0527 30.1343 40.1846Z" fill="white"/>
<path d="M30.157 40.1188C28.0224 39.0856 27.3185 38.3602 27.4547 37.305C27.2132 37.2173 26.9469 37.2173 26.7053 37.305C26.7053 39.1516 27.9316 40.1628 30.2706 40.3167L30.157 40.1188ZM26.6826 37.371C26.8889 37.3039 27.1122 37.3039 27.3185 37.371C27.1595 38.668 28.2722 39.5693 30.1343 40.3606V40.2068C27.8635 40.0529 26.7734 39.1296 26.7507 37.371H26.6826Z" fill="#231F20"/>
<path d="M27.9089 37.2609C28.1082 37.8503 28.4455 38.3872 28.8946 38.8296C29.3437 39.2719 29.8923 39.6078 30.4977 39.8109C30.2355 38.8428 29.7192 37.9568 28.9989 37.2389C28.6443 37.1216 28.2582 37.1294 27.9089 37.2609Z" fill="white"/>
<path d="M27.8181 37.3052C28.0188 37.9034 28.3618 38.4477 28.8192 38.8944C29.2767 39.3411 29.836 39.6777 30.4523 39.8772H30.6339V39.7233C30.3802 38.7407 29.8542 37.8437 29.1125 37.1293C28.7469 36.994 28.3426 36.994 27.977 37.1293L27.8181 37.3052ZM28.9081 37.3052C29.6349 38.0045 30.1595 38.8762 30.4296 39.8332H30.5431C29.9483 39.64 29.4085 39.3148 28.9669 38.8834C28.5252 38.4521 28.194 37.9266 27.9997 37.3491C28.3363 37.2259 28.7078 37.2259 29.0443 37.3491L28.9081 37.3052Z" fill="#231F20"/>
<path d="M30.7248 36.4919C30.8474 36.2927 31.0413 36.144 31.2698 36.0742C32.4235 37.1464 33.8492 37.9047 35.4028 38.2725C35.1984 38.7122 34.3355 38.7781 33.6542 38.5143C32.5546 38.0253 31.5606 37.339 30.7248 36.4919Z" fill="white"/>
<path d="M30.7929 36.5358C30.9079 36.3574 31.0851 36.2248 31.2925 36.1621C32.4594 37.2285 33.8907 37.9857 35.4481 38.3604V38.2285C35.2892 38.5802 34.4944 38.6682 33.8131 38.4044C32.7374 37.9534 31.7531 37.3207 30.9064 36.5358H30.7929ZM33.6087 38.4703C34.3127 38.7561 35.2438 38.7121 35.4709 38.2065C33.9457 37.8865 32.5354 37.1811 31.3833 36.1621C31.2496 36.1838 31.1235 36.2373 31.0165 36.3179C30.9095 36.3985 30.8248 36.5036 30.7702 36.6237C31.6059 37.3851 32.5648 38.0089 33.6087 38.4703Z" fill="#231F20"/>
<path d="M31.8375 35.8103C31.8431 35.7094 31.8811 35.6128 31.9463 35.534C32.0114 35.4551 32.1004 35.398 32.2008 35.3706C33.8357 35.9702 35.5229 36.4263 37.2422 36.7336C37.1207 36.9424 36.9418 37.1147 36.7253 37.2311C36.5088 37.3475 36.2633 37.4036 36.0159 37.393C34.5215 37.1633 33.0961 36.6234 31.8375 35.8103Z" fill="white"/>
<path d="M31.8375 35.8102C31.8514 35.7229 31.8909 35.6413 31.9512 35.5751C32.0116 35.5088 32.0903 35.4607 32.1781 35.4365C33.8115 36.0457 35.4989 36.5092 37.2194 36.8215V36.6895C37.1013 36.8834 36.9314 37.0428 36.7276 37.1511C36.5238 37.2594 36.2936 37.3126 36.0613 37.3051C34.5758 37.0817 33.158 36.5492 31.9056 35.7443L31.8375 35.8102ZM35.9705 37.459C36.2306 37.4748 36.49 37.4192 36.719 37.2986C36.948 37.1781 37.1372 36.9975 37.2648 36.7775H37.1286C35.4136 36.4834 33.7327 36.0269 32.11 35.4146C31.9944 35.4548 31.8927 35.5255 31.8165 35.6187C31.7402 35.712 31.6924 35.824 31.6785 35.9421C32.9551 36.7642 34.4065 37.2976 35.925 37.5029L35.9705 37.459Z" fill="#231F20"/>
<path d="M32.4733 34.843C32.4733 34.6232 32.7004 34.4473 33.0183 34.2715C34.8669 34.605 36.7491 34.7304 38.6274 34.6452C38.5665 34.9072 38.4327 35.1481 38.2406 35.3418C38.0485 35.5355 37.8053 35.6748 37.5373 35.7444C35.8064 35.7483 34.0896 35.4427 32.4733 34.843Z" fill="white"/>
<path d="M32.5415 34.843C32.5871 34.728 32.6571 34.6236 32.7471 34.5365C32.8371 34.4494 32.945 34.3816 33.0637 34.3374C34.9011 34.7033 36.7745 34.8728 38.6501 34.843C38.5888 35.0906 38.4593 35.3175 38.2754 35.4994C38.0914 35.6814 37.8599 35.8116 37.6055 35.8762C35.8855 35.864 34.1804 35.5666 32.5642 34.9969L32.5415 34.843ZM37.5601 35.8103C37.8083 35.7449 38.0367 35.623 38.2264 35.4547C38.416 35.2865 38.5613 35.0767 38.6501 34.843C36.7804 34.9117 34.9084 34.7939 33.0637 34.4913C32.9248 34.5517 32.8004 34.6397 32.6987 34.7495C32.597 34.8593 32.5203 34.9885 32.4733 35.1288C34.0974 35.7287 35.8217 36.0342 37.5601 36.0301V35.8103Z" fill="#231F20"/>
<path d="M29.5666 37.0414C29.6624 36.9437 29.7792 36.8675 29.9086 36.8181C30.0381 36.7688 30.1771 36.7474 30.316 36.7556L33.6088 39.3496C32.982 39.6017 32.2855 39.6404 31.6331 39.4595C31.0881 39.2397 29.8391 37.2612 29.5666 37.0414Z" fill="white"/>
<path d="M29.5666 37.151C29.6566 37.0656 29.7631 36.9984 29.88 36.9531C29.9969 36.9078 30.122 36.8854 30.2479 36.8872L33.5179 39.4812V39.2393C32.9237 39.4904 32.2585 39.5369 31.6331 39.3712C31.2314 38.9923 30.8735 38.5722 30.5658 38.1182C30.2965 37.7082 29.9589 37.3442 29.5666 37.041V37.151ZM31.5423 39.5911C32.2177 39.7866 32.9434 39.7398 33.5861 39.4592H33.6996L30.4068 36.8652C30.2537 36.8573 30.1008 36.8828 29.9593 36.9399C29.8178 36.9969 29.6913 37.0841 29.5893 37.1949C29.9593 37.5241 30.2803 37.9014 30.5431 38.3161C30.8044 38.7782 31.1248 39.2066 31.4969 39.5911H31.5423Z" fill="#231F20"/>
<path d="M25.5018 34.6671L25.638 35.3266L26.2739 34.4692L26.1376 35.4145L26.7735 34.6671L26.6372 35.5024L27.2957 34.8429L27.0233 35.5904L27.9316 35.2386C27.2342 35.6031 26.6171 36.096 26.1149 36.6895C26.0163 36.7995 25.9453 36.9301 25.9075 37.0711C25.8696 37.2121 25.8659 37.3596 25.8967 37.5022C25.9275 37.6448 25.9919 37.7786 26.0849 37.8931C26.1779 38.0076 26.2969 38.0998 26.4328 38.1624C25.9105 38.7559 25.7288 37.5249 25.1611 37.8106L24.5934 38.5141C24.8354 38.71 25.0074 38.9748 25.0849 39.2708C25.1624 39.5669 25.1414 39.879 25.0249 40.1628C25.0249 39.5253 24.7978 39.1516 24.3209 39.0417C24.1122 39.1176 23.9349 39.2575 23.816 39.4401C23.6971 39.6227 23.6431 39.8379 23.6624 40.0529C23.299 39.7232 23.299 39.2615 23.6624 38.7119C22.7767 38.7119 22.2317 38.9538 22.0046 39.5693C21.7094 38.7999 22.368 38.3382 23.8895 37.9645C24.4009 37.571 24.8123 37.069 25.0918 36.4974C25.3713 35.9257 25.5116 35.2995 25.5018 34.6671Z" fill="#FFC20E"/>
<path d="M25.411 34.6892L25.5245 35.3487V35.5465L25.6381 35.3706L26.2966 34.5133H26.1149L25.9787 35.4806V35.7883L26.183 35.5465L26.8416 34.7771H26.6826L26.5464 35.5905V35.8323L26.7281 35.6784L27.4774 35.0409H27.3412L27.046 35.7883V35.9642H27.2276L28.1587 35.6344V35.4806C27.4494 35.8468 26.8177 36.339 26.2966 36.9314C26.0901 37.2197 26.0086 37.5749 26.0695 37.9207C26.166 38.1965 26.3697 38.4251 26.6372 38.5582V38.1405C26.5829 38.2018 26.5122 38.2474 26.4328 38.2724C26.4328 38.2724 26.2285 38.2724 26.1149 38.0306C26.0014 37.7888 25.7062 37.5909 25.411 37.7668L24.8432 38.4483C25.0778 38.6347 25.2427 38.8906 25.3124 39.1765C25.3822 39.4625 25.3529 39.7627 25.2293 40.031H25.3883C25.3883 39.3496 25.1612 38.9539 24.6162 38.822C24.3939 38.9096 24.206 39.0632 24.0795 39.2607C23.953 39.4582 23.8944 39.6894 23.9122 39.9211H24.0485C23.7305 39.6134 23.7532 39.2177 24.0485 38.7121V38.5582H23.9122C22.9811 38.5582 22.368 38.822 22.1409 39.4815H22.3226C22.2664 39.392 22.2367 39.2894 22.2367 39.1847C22.2367 39.08 22.2664 38.9774 22.3226 38.8879C22.527 38.5142 23.1174 38.2284 24.1393 37.9866C24.6441 37.5719 25.0453 37.0518 25.3128 36.4655C25.5802 35.8792 25.7069 35.2418 25.6834 34.6012L25.411 34.6892ZM23.9803 37.8987C22.8676 38.1845 22.2545 38.4922 22.0501 38.8879C21.9989 39.0063 21.9725 39.1333 21.9725 39.2616C21.9725 39.39 21.9989 39.517 22.0501 39.6353V39.8332V39.6353C22.2545 39.0638 22.7541 38.8 23.617 38.822V38.6901C23.2309 39.2836 23.2082 39.7672 23.617 40.141L23.7987 40.2948V40.075C23.7837 39.8805 23.8327 39.6863 23.9388 39.5205C24.0449 39.3546 24.2025 39.2255 24.3891 39.1517C24.8205 39.1517 25.0476 39.5914 25.0249 40.1849H25.1839C25.411 39.3496 25.1839 38.756 24.7297 38.4263L25.3201 37.7448C25.5018 37.7448 25.6381 37.7448 25.8197 38.0086C25.8734 38.0797 25.9412 38.1397 26.0192 38.185C26.0972 38.2303 26.1838 38.26 26.2739 38.2724C26.4101 38.2724 26.501 38.2724 26.6145 38.1185C26.4978 38.067 26.3945 37.9909 26.312 37.8958C26.2295 37.8008 26.1699 37.6891 26.1376 37.5689C26.1082 37.4271 26.1113 37.2808 26.1466 37.1403C26.1819 36.9998 26.2486 36.8685 26.342 36.7556C26.8332 36.1717 27.444 35.6927 28.136 35.3487V35.1728L27.205 35.5026H27.3412L27.6137 34.7551H27.4774L26.7281 35.3926H26.887V34.5573V34.2275L26.6826 34.4913L26.0241 35.2607H26.183L26.342 34.3155H26.183L25.5245 35.1728H25.6834L25.5699 34.5133H25.3883C25.4126 35.1284 25.2924 35.7408 25.0367 36.3044C24.781 36.8679 24.3965 37.368 23.9122 37.7668L23.9803 37.8987Z" fill="#231F20"/>
<path d="M32.0873 19.125C32.0873 19.125 31.2925 20.2242 31.5196 20.6418C31.9247 21.5923 31.9729 22.6502 31.6558 23.6315C31.2244 25.2802 30.7929 25.8298 30.7248 26.2695C30.6566 26.7091 29.9981 29.391 29.9981 29.391C30.4959 28.7187 30.8863 27.9776 31.1562 27.1927C31.0942 26.7765 31.1739 26.3521 31.3833 25.9837C31.6785 25.1923 32.7004 24.1371 32.5188 22.8841C32.3371 21.6311 31.9965 20.6858 32.0192 20.2022C32.0419 19.7185 32.0873 19.125 32.0873 19.125Z" fill="white"/>
<path d="M31.9964 19.0812C31.9964 19.0812 31.2016 20.2243 31.4287 20.686C31.8177 21.6169 31.8658 22.6487 31.565 23.6097C31.389 24.2945 31.1535 24.9638 30.861 25.6102C30.7391 25.8144 30.6546 26.0375 30.6112 26.2696C30.6112 26.7313 29.9072 29.3692 29.9072 29.3692H30.0662C30.5948 28.6718 30.9944 27.8908 31.2471 27.061V26.7972C31.2471 26.5334 31.2471 26.4895 31.4514 25.8739C31.5703 25.6162 31.7068 25.3665 31.8602 25.1265C32.3781 24.4212 32.6488 23.5736 32.6323 22.7084C32.5531 22.2051 32.447 21.7062 32.3144 21.2136C32.1799 20.8546 32.1182 20.474 32.1327 20.0924C32.1327 19.4989 32.1327 19.0592 32.1327 19.0592V18.7515L31.9964 19.0812ZM31.9964 20.1364C31.9991 20.5401 32.068 20.9408 32.2008 21.3235C32.3357 21.8156 32.4419 22.3146 32.5187 22.8183C32.5095 23.6084 32.2477 24.3764 31.7693 25.0166C31.6105 25.2689 31.4738 25.5336 31.3606 25.808C31.2097 26.1094 31.1321 26.4403 31.1335 26.7752V27.039C30.8775 27.8295 30.486 28.5726 29.9753 29.2373H30.157C30.157 29.2373 30.7929 26.5774 30.861 26.1158C30.9158 25.9008 30.9998 25.6938 31.1108 25.5002C31.3891 24.8433 31.6168 24.1673 31.792 23.4778C32.137 22.4852 32.0884 21.404 31.6558 20.4441C31.5195 20.1144 32.0191 19.301 32.2462 19.0153H32.0646C32.0646 19.0153 31.951 19.5648 31.8375 20.1364H31.9964Z" fill="#231F20"/>
<path d="M18.5302 4.48468C18.6438 4.48468 18.6438 4.22089 18.5302 4.00106C18.4975 3.8655 18.4356 3.73815 18.3486 3.62734C18.2886 3.59832 18.2226 3.58322 18.1556 3.58322C18.0886 3.58322 18.0225 3.59832 17.9625 3.62734C17.9184 3.61226 17.8704 3.61226 17.8263 3.62734L18.1442 4.55063C18.3713 4.61658 18.4848 4.57261 18.5302 4.48468ZM17.6446 6.02348C17.7581 6.02348 17.8263 6.02349 17.849 5.89159C17.8821 5.80658 17.8821 5.7128 17.849 5.62779L17.3494 4.11097C17.3494 3.97907 17.2359 3.91312 17.1904 3.89114C17.1088 3.86853 17.0223 3.86853 16.9406 3.89114L18.0761 3.53941C18.3158 3.49142 18.563 3.49142 18.8027 3.53941C19.0071 3.53941 19.1207 3.73726 19.2115 3.97907C19.2468 4.09382 19.2468 4.21605 19.2115 4.3308C19.1591 4.44778 19.0817 4.55267 18.9844 4.63856L18.6892 4.81442L18.2123 4.99028L18.4394 5.60581C18.4394 5.75969 18.4394 5.82564 18.5757 5.84763C18.7119 5.86961 18.7119 5.84763 18.8482 5.84763L17.6673 6.22133L17.6446 6.02348Z" fill="white"/>
<path d="M20.4832 5.32001H20.7103C20.7285 5.28216 20.738 5.24089 20.738 5.19911C20.738 5.15733 20.7285 5.11606 20.7103 5.0782L20.4377 3.36353C20.4377 3.36353 20.4377 3.18767 20.3015 3.16569H20.0517L22.1636 2.83594V3.53939C22.1441 3.44909 22.1059 3.36357 22.0512 3.28799C21.9966 3.21242 21.9267 3.14838 21.8457 3.09974C21.6445 3.05042 21.4338 3.05042 21.2326 3.09974C21.119 3.09974 21.0282 3.09974 21.0055 3.09974C20.9827 3.09974 21.0055 3.09973 21.0055 3.23163L21.1417 4.06699C21.2215 4.06977 21.3007 4.05312 21.3722 4.01855C21.4436 3.98398 21.5049 3.93261 21.5505 3.86914C21.5505 3.86914 21.664 3.64931 21.664 3.45147L21.8684 4.66053C21.8181 4.51638 21.7412 4.38229 21.6413 4.26483C21.4869 4.2129 21.3189 4.2129 21.1644 4.26483L21.3234 5.12217C21.3234 5.12217 21.3234 5.25406 21.3234 5.27605H21.5959C21.7924 5.24364 21.9787 5.16848 22.1409 5.05622C22.2975 4.90835 22.401 4.71571 22.4361 4.50665H22.5497V5.27605L20.4832 5.32001Z" fill="white"/>
<path d="M23.6397 4.79225H23.8668C23.8847 4.75821 23.8941 4.72054 23.8941 4.68233C23.8941 4.64412 23.8847 4.60645 23.8668 4.57241V2.83576C23.8668 2.70386 23.8668 2.63792 23.8668 2.61593H23.6397H24.9341C24.8382 2.5857 24.7348 2.5857 24.6389 2.61593C24.6389 2.61593 24.6389 2.61593 24.6389 2.87973V4.57241C24.6224 4.62995 24.6224 4.69074 24.6389 4.74828H24.9114C25.1022 4.75447 25.291 4.70877 25.4564 4.61638C25.6413 4.47221 25.7825 4.28232 25.8651 4.06681L25.7289 4.88017H23.458L23.6397 4.79225Z" fill="white"/>
<path d="M26.7735 4.88039C26.7735 4.88039 26.9551 4.88039 27.0005 4.88039C27.0387 4.86741 27.072 4.84377 27.0962 4.81247C27.1205 4.78116 27.1346 4.7436 27.1368 4.70453L27.3639 2.96788C27.3639 2.85796 27.3639 2.77003 27.3639 2.74805C27.3639 2.72607 27.3639 2.74805 27.1595 2.74805L28.4539 2.90193H28.2041C28.2041 2.90193 28.2041 2.90193 28.2041 3.09978L27.977 4.83643C27.9591 4.8665 27.9496 4.90062 27.9496 4.93535C27.9496 4.97008 27.9591 5.0042 27.977 5.03427C28.0671 5.04991 28.1594 5.04991 28.2495 5.03427L26.9778 4.88039H26.7735Z" fill="white"/>
<path d="M29.5666 2.92383L31.7012 3.51737L31.4969 4.22082C31.522 4.11334 31.5207 4.00165 31.4931 3.89473C31.4655 3.78782 31.4123 3.68868 31.3379 3.6053C31.2298 3.52423 31.1064 3.46448 30.9745 3.42944L30.4296 5.25402C30.4207 5.34175 30.4207 5.43009 30.4296 5.51782C30.5067 5.6005 30.611 5.65486 30.7247 5.6717L29.4758 5.31997C29.5715 5.35179 29.6753 5.35179 29.771 5.31997C29.8354 5.25082 29.882 5.16799 29.9072 5.07816L30.4523 3.25358C30.3117 3.21129 30.1613 3.21129 30.0208 3.25358C29.8391 3.25358 29.6802 3.42944 29.5666 3.67125V2.92383Z" fill="white"/>
<path d="M33.2908 5.75952V4.85822L32.6323 5.49572L33.2908 5.75952ZM31.7013 5.89142C31.7349 5.91316 31.7744 5.92475 31.8148 5.92475C31.8552 5.92475 31.8947 5.91316 31.9283 5.89142C32.0414 5.83867 32.1419 5.76381 32.2235 5.67158L33.7904 4.19873V6.70479C33.7994 6.74471 33.8187 6.78178 33.8465 6.81254C33.8743 6.84329 33.9097 6.86672 33.9494 6.88064L32.8594 6.419H33.1092C33.1092 6.419 33.1092 6.419 33.1092 6.2871V5.93538L32.3371 5.60564L32.1327 5.80348C32.1327 5.80348 31.9965 5.93538 31.9965 5.97934C31.9965 6.02331 31.9965 5.97934 31.9965 6.13322H32.1554L31.4742 5.82546L31.7013 5.89142Z" fill="white"/>
<path d="M43.6687 15.5859C43.6479 15.6428 43.6479 15.7048 43.6687 15.7617C43.6687 15.7617 43.8049 15.7617 43.9185 15.7617L45.5762 15.0803C45.614 15.0634 45.6477 15.0391 45.6751 15.0088C45.7025 14.9785 45.7229 14.9429 45.7351 14.9044C45.7467 14.8315 45.7467 14.7574 45.7351 14.6846H45.8487L46.3256 15.8057L46.212 15.6298C46.212 15.6298 46.0758 15.6298 45.9622 15.6298L45.2583 15.9156L45.5989 16.707L46.3256 16.4212C46.3637 16.4082 46.397 16.3846 46.4212 16.3533C46.4455 16.322 46.4596 16.2844 46.4618 16.2454C46.4913 16.1673 46.4913 16.0816 46.4618 16.0035L46.9614 17.1686C46.9614 17.1686 46.9614 16.9928 46.8252 16.9928C46.8104 16.9781 46.7927 16.9665 46.7732 16.9586C46.7537 16.9507 46.7328 16.9466 46.7116 16.9466C46.6905 16.9466 46.6695 16.9507 46.65 16.9586C46.6305 16.9665 46.6129 16.9781 46.5981 16.9928L44.9404 17.6523C44.9404 17.6523 44.7814 17.6523 44.7814 17.8501C44.7641 17.915 44.7641 17.9831 44.7814 18.048H44.6678L44.191 16.9268C44.191 16.9268 44.191 17.0807 44.3272 17.1027C44.3624 17.1201 44.4013 17.1291 44.4408 17.1291C44.4802 17.1291 44.5191 17.1201 44.5543 17.1027L45.3491 16.751L45.0085 15.9596L44.2137 16.2893C44.171 16.3051 44.1337 16.3319 44.1057 16.3668C44.0776 16.4016 44.06 16.4433 44.0547 16.4872C44.0487 16.553 44.0487 16.6192 44.0547 16.685L43.5778 15.5639L43.6687 15.5859Z" fill="white"/>
<path d="M46.0304 20.0044L46.8025 19.4988H45.8941L46.0304 20.0044ZM44.9631 18.8394C44.9723 18.8819 44.9914 18.9218 45.019 18.9561C45.0465 18.9903 45.0818 19.0181 45.1221 19.0372H45.4627L47.7335 19.3669L46.0077 20.598L45.6443 20.8838C45.628 20.9183 45.6196 20.9557 45.6196 20.9937C45.6196 21.0316 45.628 21.0691 45.6443 21.1036L45.3718 19.9385C45.3607 20.0114 45.3607 20.0855 45.3718 20.1583H45.4854H45.6216H45.7352L45.9396 20.0264L45.7352 19.257H45.44H45.2129C45.2009 19.2771 45.1946 19.2998 45.1946 19.323C45.1946 19.3461 45.2009 19.3689 45.2129 19.3889C45.2129 19.3889 45.2129 19.3889 45.2129 19.5648L45.0539 18.8394H44.9631Z" fill="white"/>
<path d="M45.6217 22.1148C45.6015 22.1942 45.6015 22.2772 45.6217 22.3566C45.7095 22.3887 45.8063 22.3887 45.8942 22.3566H47.5519C47.6881 22.3566 47.7789 22.3566 47.8244 22.3566C47.8329 22.2762 47.8329 22.1952 47.8244 22.1148H47.9379V23.2799C47.9527 23.4775 47.9527 23.6758 47.9379 23.8734C47.9075 23.9975 47.8351 24.1082 47.7323 24.1879C47.6294 24.2676 47.5019 24.3116 47.3702 24.3131C47.2798 24.3232 47.1882 24.3102 47.1046 24.2755C47.021 24.2408 46.9481 24.1856 46.8933 24.1152C46.7933 24.0214 46.7292 23.8973 46.7117 23.7635L45.6671 24.5329V23.8514L46.7798 23.082V22.9721H46.0531C45.9637 22.9498 45.87 22.9498 45.7806 22.9721C45.7637 23.0103 45.755 23.0515 45.755 23.093C45.755 23.1346 45.7637 23.1757 45.7806 23.2139V22.0049L45.6217 22.1148ZM46.9615 23.4777C47.0278 23.5295 47.1041 23.5679 47.1861 23.5905C47.268 23.6132 47.3538 23.6197 47.4383 23.6096C47.5504 23.6349 47.6669 23.6349 47.779 23.6096C47.8487 23.5767 47.9047 23.5217 47.9377 23.4537C47.9708 23.3858 47.9789 23.3089 47.9606 23.2359C47.9762 23.1708 47.9762 23.1032 47.9606 23.0381H46.916C46.8982 23.1861 46.9137 23.3361 46.9615 23.4777Z" fill="white"/>
<path d="M46.3483 26.819L47.2339 26.5333L46.4164 26.1376L46.3483 26.819ZM45.6898 25.3682C45.6977 25.459 45.7378 25.5444 45.8033 25.61L46.1212 25.7639L48.0514 26.7751L46.0077 27.3906L45.5762 27.5445C45.5622 27.5718 45.5549 27.6019 45.5549 27.6324C45.5549 27.6629 45.5622 27.693 45.5762 27.7203L45.6898 26.5552H45.8033C45.7905 26.6354 45.7905 26.7169 45.8033 26.797H46.0758H46.3029V25.9837H46.0304H45.8033C45.7985 26.0496 45.7985 26.1157 45.8033 26.1815V25.4561L45.6898 25.3682Z" fill="white"/>
<path d="M46.0758 30.2044C46.1138 30.2834 46.1707 30.3525 46.2418 30.406C46.3129 30.4595 46.3961 30.4959 46.4845 30.5122C46.6171 30.5557 46.7608 30.5557 46.8933 30.5122C46.955 30.5003 47.0116 30.471 47.0561 30.4279C47.1006 30.3849 47.1308 30.33 47.1431 30.2703C47.1431 30.2703 47.1431 30.1384 47.1431 30.0945L46.1893 29.8307C46.0531 30.0066 46.0304 30.1385 46.0758 30.2044ZM45.2583 28.6216C45.2349 28.7006 45.2349 28.7844 45.2583 28.8634C45.2583 28.8634 45.3718 28.8634 45.4853 29.0173L47.075 29.435C47.1628 29.4671 47.2597 29.4671 47.3475 29.435C47.4139 29.3852 47.4618 29.3157 47.4837 29.2371L47.1658 30.3583C47.1125 30.6009 46.9861 30.8228 46.8024 30.9958C46.717 31.0463 46.6187 31.073 46.5186 31.073C46.4184 31.073 46.3202 31.0463 46.2347 30.9958C46.1204 30.9671 46.0176 30.9058 45.9395 30.8199C45.889 30.7708 45.8489 30.7125 45.8216 30.6484C45.7943 30.5843 45.7804 30.5156 45.7806 30.4462C45.7578 30.33 45.7578 30.2107 45.7806 30.0945C45.794 29.9482 45.794 29.8011 45.7806 29.6548L45.122 29.479C44.9858 29.479 44.8949 29.479 44.8495 29.479C44.8107 29.5028 44.7781 29.5351 44.7545 29.5733C44.7308 29.6114 44.7167 29.6544 44.7133 29.6988L45.0766 28.5337L45.2583 28.6216Z" fill="white"/>
<path d="M44.6224 32.6448H45.5535L44.9176 32.0073L44.6224 32.6448ZM44.6224 31.0841C44.6005 31.1248 44.5891 31.17 44.5891 31.2159C44.5891 31.2619 44.6005 31.3071 44.6224 31.3479L44.8495 31.5897L46.3483 33.1724H44.2137H43.7368C43.7368 33.1724 43.7368 33.1724 43.5778 33.3043L44.0774 32.2491H44.191C44.1832 32.3222 44.1832 32.3959 44.191 32.469H44.3272H44.7133L45.0539 31.7435L44.8495 31.5457C44.8495 31.5457 44.7132 31.4138 44.6678 31.4138C44.6465 31.404 44.6233 31.3989 44.5997 31.3989C44.5761 31.3989 44.5529 31.404 44.5316 31.4138C44.5272 31.4723 44.5272 31.5311 44.5316 31.5897L44.8268 30.9302L44.6224 31.0841Z" fill="white"/>
<path d="M43.0328 34.0737C42.9975 34.1583 42.9975 34.2529 43.0328 34.3375C43.0629 34.4059 43.1097 34.4662 43.1691 34.5134L44.6451 35.4587H44.9404L44.4862 36.1181L42.4878 36.272L43.3962 36.8656C43.484 36.8976 43.5809 36.8976 43.6687 36.8656C43.7607 36.83 43.8397 36.7688 43.8957 36.6897L43.4416 37.3492C43.4416 37.3492 43.4416 37.1733 43.4416 37.1294C43.4094 37.0558 43.3536 36.9942 43.2826 36.9535L41.4659 35.7664L44.032 35.5466L42.8284 34.7552H42.6014C42.6014 34.7552 42.4197 34.7552 42.3288 34.9311L42.8057 34.2276L43.0328 34.0737Z" fill="white"/>
<path d="M7.65283 39.2394L6.85802 38.2282C6.8917 38.2882 6.93813 38.3406 6.99426 38.382L7.22136 38.2282L8.22055 37.5247C8.33815 37.434 8.44479 37.3308 8.53847 37.2169C8.55127 37.1368 8.55127 37.0553 8.53847 36.9751C8.5124 36.8829 8.47424 36.7942 8.42492 36.7113C8.35042 36.6121 8.2479 36.5357 8.1297 36.4915C8.01728 36.4696 7.9015 36.4696 7.78908 36.4915L7.31218 36.7553L6.49467 37.3708C6.41707 37.4102 6.3537 37.4716 6.313 37.5467C6.30237 37.59 6.30237 37.6352 6.313 37.6786C6.30076 37.7366 6.30076 37.7964 6.313 37.8544L5.79071 37.1949C5.79071 37.1949 5.7907 37.195 5.92696 37.3049H6.08593H6.26761L7.03969 36.7333C7.21114 36.6083 7.39351 36.498 7.58471 36.4036C7.73883 36.3499 7.90745 36.3499 8.06157 36.4036C8.26798 36.468 8.44468 36.6002 8.56117 36.7773C8.66376 36.9093 8.74072 37.0583 8.78826 37.2169C8.84572 37.3658 8.84572 37.5297 8.78826 37.6786C8.71405 37.8265 8.59527 37.9491 8.44761 38.0303L7.47116 38.7557C7.47116 38.7557 7.28949 38.8876 7.28949 38.9316C7.28949 38.9756 7.28949 38.9316 7.28949 38.9316L7.40304 39.1294L7.65283 39.2394Z" fill="white"/>
<path d="M5.35922 36.0519L6.10861 34.2932L5.17755 34.7768C5.01859 34.7768 4.95046 34.9307 4.92775 34.9967C4.89139 35.0962 4.89139 35.2049 4.92775 35.3044L4.51901 34.601C4.51901 34.601 4.63254 34.7549 4.67795 34.7549H4.7915H5.0413L6.858 33.7656L5.83612 36.1837L7.24404 35.4363C7.38029 35.4363 7.44841 35.2824 7.44841 35.2165C7.47267 35.1451 7.47267 35.0681 7.44841 34.9967L7.87988 35.7441C7.84366 35.648 7.77043 35.5692 7.67551 35.5243C7.67551 35.5243 7.51654 35.5243 7.38029 35.5243L5.83612 36.3596C5.82827 36.418 5.82827 36.4771 5.83612 36.5355C5.83072 36.594 5.83072 36.6528 5.83612 36.7113L5.35922 36.0519Z" fill="white"/>
<path d="M6.04049 32.0732L6.58551 33.2383C6.58551 33.2383 6.5855 33.2383 6.47196 33.1064H6.35841H6.13131L4.63257 33.7439C4.49632 33.7439 4.40547 33.744 4.40547 33.8539C4.40547 33.9638 4.40547 33.8539 4.40547 33.8539C4.38816 33.9038 4.38816 33.9578 4.40547 34.0078L3.88318 32.8426C3.90762 32.9021 3.94659 32.9549 3.99673 32.9965H4.2011L5.72257 32.337H5.92694V32.2271C5.93479 32.1687 5.93479 32.1096 5.92694 32.0513L6.04049 32.0732Z" fill="white"/>
<path d="M2.79318 30.1826C2.83962 30.2745 2.92098 30.3454 3.02025 30.3805C3.18627 30.3983 3.35382 30.3983 3.51984 30.3805L5.60903 30.6003L3.97401 32.0072C3.8423 32.098 3.72719 32.2095 3.63339 32.337C3.61786 32.402 3.61786 32.4697 3.63339 32.5348L3.24735 31.4137C3.24735 31.4137 3.24735 31.5895 3.3609 31.6115L3.56527 31.4576L4.58715 30.5783L3.3609 30.4464H2.95212C2.95212 30.4464 2.95212 30.5563 2.95212 30.6443L2.79318 30.1826Z" fill="white"/>
<path d="M2.67961 28.8414L3.6788 28.6436C3.66863 28.5786 3.64275 28.5169 3.60329 28.4634C3.56384 28.4099 3.51189 28.3662 3.4517 28.3358C3.30263 28.2995 3.1466 28.2995 2.99753 28.3358L4.29191 28.094C4.1706 28.1274 4.05562 28.1793 3.95129 28.2479C3.95129 28.2479 3.81504 28.3798 3.81504 28.4238C3.79188 28.5177 3.79188 28.6156 3.81504 28.7095L4.49631 28.5776C4.63256 28.5776 4.74611 28.5776 4.74611 28.5776C4.74611 28.5776 4.74611 28.5776 4.74611 28.4457V28.2919C4.71753 28.0982 4.62135 27.9198 4.47358 27.7863C4.40173 27.7187 4.31622 27.6662 4.22243 27.6322C4.12864 27.5981 4.02862 27.5832 3.92859 27.5884H4.72338L5.15484 29.6548C5.17129 29.5973 5.17129 29.5365 5.15484 29.4789H4.58713L2.9748 29.8087C2.90853 29.7869 2.8367 29.7869 2.77043 29.8087C2.75635 29.8739 2.75635 29.9413 2.77043 30.0065L2.36169 27.9841L3.08835 27.8522C2.95421 27.8899 2.83531 27.9667 2.74774 28.072C2.67573 28.1616 2.6288 28.2676 2.61149 28.3798C2.60053 28.5041 2.60053 28.6292 2.61149 28.7535L2.67961 28.8414Z" fill="white"/>
<path d="M3.54253 26.0496H4.49632C4.50785 25.9768 4.50785 25.9026 4.49632 25.8298V27.0828C4.50988 27.0027 4.50988 26.9211 4.49632 26.841H4.22379H2.6115H2.31628C2.29913 26.9208 2.29913 27.0031 2.31628 27.0828V25.9397C2.29078 25.7206 2.29078 25.4993 2.31628 25.2802C2.35656 25.1509 2.43561 25.0362 2.54338 24.9505C2.65265 24.865 2.78893 24.8184 2.92942 24.8186C3.10283 24.8091 3.27339 24.8642 3.40628 24.9725C3.50238 25.0691 3.56575 25.1918 3.58795 25.3242L4.42816 24.7087C4.50551 24.6609 4.57453 24.6015 4.63256 24.5328C4.65166 24.4756 4.65166 24.4141 4.63256 24.3569V25.1483L3.51983 25.9617L3.54253 26.0496ZM2.29358 26.0496H3.38358C3.40222 25.9257 3.40222 25.7998 3.38358 25.6759C3.33567 25.6 3.27414 25.533 3.20191 25.4781C3.09724 25.4553 2.98867 25.4553 2.88399 25.4781C2.72609 25.4794 2.57357 25.5338 2.45252 25.6319C2.42179 25.6975 2.40588 25.7687 2.40588 25.8408C2.40588 25.9128 2.42179 25.984 2.45252 26.0496H2.29358Z" fill="white"/>
<path d="M2.18004 22.3566H2.99755C2.80233 22.3687 2.61762 22.4465 2.47527 22.5764C2.35195 22.695 2.27216 22.8494 2.24817 23.0161C2.21139 23.108 2.21139 23.2099 2.24817 23.3018C2.274 23.3383 2.30766 23.369 2.34685 23.3918C2.38604 23.4145 2.42984 23.4288 2.47527 23.4337H2.63421C2.70366 23.4013 2.75971 23.3471 2.79318 23.2798C2.8893 23.1638 2.97299 23.0386 3.04298 22.9061C3.15457 22.6952 3.30905 22.5083 3.49715 22.3566C3.64408 22.3063 3.80438 22.3063 3.95131 22.3566C4.15389 22.3765 4.34083 22.4709 4.4736 22.6204C4.6119 22.7962 4.67676 23.0159 4.65527 23.2359C4.67643 23.3152 4.67643 23.3984 4.65527 23.4777V23.7195C4.64875 23.7633 4.64875 23.8077 4.65527 23.8514H3.72421C3.838 23.8534 3.95104 23.833 4.05644 23.7914C4.16184 23.7499 4.2574 23.688 4.33735 23.6096C4.48674 23.4865 4.58379 23.3142 4.60985 23.126C4.61326 23.0699 4.605 23.0138 4.58549 22.9609C4.56598 22.908 4.53565 22.8595 4.49633 22.8182C4.47238 22.7735 4.43666 22.7358 4.39279 22.7088C4.34893 22.6817 4.29848 22.6664 4.24653 22.6643C4.19528 22.6458 4.13881 22.6458 4.08756 22.6643C4.01691 22.6935 3.95459 22.7387 3.90588 22.7962L3.67882 23.104C3.59777 23.2727 3.49056 23.4283 3.3609 23.5656L3.08837 23.7855C2.98355 23.8068 2.87528 23.8068 2.77045 23.7855C2.67366 23.7846 2.57834 23.7624 2.49176 23.7205C2.40518 23.6786 2.32963 23.6181 2.27086 23.5436C2.20089 23.4705 2.14837 23.3834 2.11698 23.2884C2.08559 23.1934 2.0761 23.093 2.08919 22.9941C2.08919 22.9941 2.08919 22.8402 2.08919 22.7742C2.08432 22.7084 2.08432 22.6423 2.08919 22.5764C2.10142 22.5184 2.10142 22.4585 2.08919 22.4005C2.08919 22.4005 2.08919 22.4005 1.95294 22.4005L2.18004 22.3566Z" fill="white"/>
<path d="M4.73109 22.0009L4.7234 22.0489C4.72693 22.0331 4.72949 22.017 4.73109 22.0009Z" fill="white"/>
<path d="M3.17922 17.8062L3.83776 17.96C3.72582 17.9339 3.60908 17.9339 3.49714 17.96C3.40991 17.9932 3.33205 18.0459 3.27004 18.1139C3.27004 18.1139 3.27004 18.1139 3.27004 18.3118V18.4876L5.17756 18.9932C5.17756 18.9932 5.38195 18.9932 5.40466 18.9932H5.51821C5.52598 18.9422 5.52598 18.8904 5.51821 18.8394L5.17756 20.0704C5.17756 20.0704 5.17756 19.9385 5.17756 19.9165C5.18753 19.8998 5.19277 19.8808 5.19277 19.8616C5.19277 19.8423 5.18753 19.8233 5.17756 19.8066H4.97319L3.08837 19.301V19.4769C3.03907 19.5969 3.03907 19.7306 3.08837 19.8506C3.16298 19.9954 3.29352 20.106 3.45172 20.1583L2.79318 19.9825L3.17922 17.8062Z" fill="white"/>
<path d="M5.58633 16.575L5.24568 17.3884L5.45009 17.5643C5.50134 17.5828 5.55777 17.5828 5.60903 17.5643C5.63401 17.5859 5.66637 17.5979 5.69988 17.5979C5.7334 17.5979 5.76572 17.5859 5.7907 17.5643L5.92695 17.3444L5.60903 18.0918C5.63115 18.0052 5.63115 17.9147 5.60903 17.8281L5.33654 17.5203L3.81506 15.9815H6.08593C6.22825 16.0099 6.37507 16.0099 6.51739 15.9815C6.51739 15.9815 6.51739 15.9815 6.51739 15.8716L6.0405 16.9707C6.0405 16.9707 6.0405 16.8168 6.0405 16.7729H5.47278L5.58633 16.575ZM5.45009 16.575H4.49633L5.15486 17.2345L5.45009 16.575Z" fill="white"/>
<path d="M5.33652 13.0798L6.08591 13.4535C5.90275 13.3878 5.70136 13.3878 5.5182 13.4535C5.43512 13.4756 5.35779 13.5145 5.29127 13.5675C5.22475 13.6205 5.17055 13.6865 5.13215 13.7612C5.11149 13.8062 5.10079 13.8549 5.10079 13.9041C5.10079 13.9533 5.11149 14.002 5.13215 14.047C5.14125 14.0924 5.1601 14.1354 5.18749 14.1733C5.21488 14.2112 5.25016 14.243 5.2911 14.2668H5.45007H5.67714L6.06318 14.003C6.25709 13.8555 6.4818 13.7505 6.72175 13.6953C6.86835 13.6431 7.02931 13.6431 7.17591 13.6953C7.26692 13.7428 7.34639 13.8085 7.40904 13.8881C7.4717 13.9677 7.51611 14.0594 7.53926 14.1569C7.58059 14.3686 7.54018 14.5877 7.42571 14.7724C7.39116 14.8448 7.3452 14.9116 7.28946 14.9703L7.0851 15.1462C7.04767 15.1384 7.00897 15.1384 6.97155 15.1462L6.15403 14.7065C6.38194 14.7836 6.63009 14.7836 6.858 14.7065C6.94669 14.6834 7.02916 14.6419 7.09972 14.585C7.17028 14.5281 7.22725 14.457 7.26673 14.3767C7.29279 14.3254 7.30634 14.269 7.30634 14.2119C7.30634 14.1547 7.29279 14.0983 7.26673 14.047C7.25764 14.0016 7.23882 13.9586 7.21143 13.9207C7.18405 13.8829 7.14873 13.851 7.10779 13.8272H6.92612H6.72175L6.3811 14.025C6.23232 14.1413 6.06311 14.2307 5.88154 14.2888C5.77011 14.3188 5.65232 14.3188 5.54089 14.2888C5.43708 14.3181 5.32678 14.3181 5.22297 14.2888C5.13546 14.2512 5.05871 14.1935 4.99937 14.1207C4.94003 14.0479 4.89988 13.9623 4.88236 13.8711C4.80512 13.6804 4.80512 13.4684 4.88236 13.2776C4.91451 13.2104 4.96093 13.1505 5.0186 13.1017L5.17755 12.9698C5.17755 12.9698 5.31381 12.9698 5.33652 12.8379C5.33652 12.8379 5.33652 12.8379 5.33652 12.728V13.0798Z" fill="white"/>
</g>
<defs>
<clipPath id="clip0_102_9405">
<rect width="166" height="49" fill="white"/>
</clipPath>
</defs>
</svg>
