<svg width="148" height="177" viewBox="0 0 148 177" fill="none" xmlns="http://www.w3.org/2000/svg">
<g opacity="0.05" clip-path="url(#clip0_102_9159)">
<path d="M128.224 0C130.851 1.71347 133.519 3.37152 136.09 5.16812C137.151 5.94647 138.448 6.3271 139.757 6.24423C143.493 6.07335 147.21 6.24423 150.703 7.79144C158.408 11.186 162.822 17.0977 164.037 25.4711C167.093 46.5069 162.885 65.9493 151.413 83.7984C146.804 90.8358 141.173 97.1376 134.71 102.494C134.177 102.951 133.831 103.591 133.739 104.291C133.564 108.327 131.749 111.218 128 112.696C126.464 113.292 125.955 114.11 126.093 115.722C126.308 118.28 126.038 120.802 124.415 122.95C124.072 123.411 123.751 124.016 123.274 124.215C120.863 125.24 120.858 127.383 120.67 129.485C118.58 152.901 99.8283 172.797 76.6026 176.349C68.491 177.637 60.1939 177.025 52.3547 174.561C50.3287 173.929 49.4624 172.663 49.93 171.07C50.3975 169.476 51.8597 168.945 53.8949 169.546C59.5879 171.236 65.3542 172.271 71.313 171.522C79.8983 170.446 87.521 162.941 88.6899 154.332C90.2621 142.786 83.2948 132.805 72.0464 130.459C60.6467 128.081 48.8574 136.768 47.7527 148.402C47.6152 149.825 47.7527 151.27 47.6381 152.702C47.4777 155.011 48.6328 156.318 50.645 157.136C51.8276 157.598 52.9369 158.24 53.8169 158.655C53.3952 155.769 52.5885 152.919 52.6435 150.083C52.7948 142.518 58.9003 136.011 66.1655 135.216C74.2741 134.334 81.5805 139.271 83.5194 146.943C86.1413 157.33 78.2803 167.103 67.5269 166.802C48.2753 166.308 32.1131 153.663 27.2131 134.935C26.1955 131.037 25.98 126.884 25.7463 122.829C25.5033 118.59 25.6913 114.331 25.6913 109.981H20.9288C20.883 110.036 20.7455 110.124 20.7455 110.212C20.7684 117.8 20.145 125.425 21.598 132.953C24.0778 145.848 30.825 155.949 41.4959 163.435C42.1056 163.865 42.761 164.234 43.3294 164.687C44.6495 165.708 44.9291 167.079 44.1132 168.313C43.9277 168.607 43.6842 168.861 43.3976 169.057C43.111 169.253 42.7875 169.387 42.4472 169.452C42.1068 169.517 41.7569 169.511 41.419 169.434C41.0812 169.357 40.7625 169.211 40.4829 169.005C38.3547 167.673 36.3138 166.205 34.3728 164.609C22.1038 153.992 15.821 140.535 15.5246 124.238C15.5246 122.95 15.1487 122.391 13.9386 121.883C4.99579 118.095 -0.417564 109.085 0.0270562 98.9286C0.421256 89.8717 7.12265 81.2166 15.9326 78.3855C18.0319 77.7112 19.4116 78.1961 19.9204 79.771C20.4292 81.3459 19.6591 82.5744 17.6285 83.3273C10.1708 86.0984 5.85295 91.4836 5.29374 99.3951C4.78036 106.655 8.00272 112.29 14.177 116.151C14.507 116.354 14.8737 116.497 15.4742 116.788C15.4742 113.172 15.4742 109.754 15.4467 106.332C15.4467 105.926 15.0708 105.519 14.86 105.117C14.0758 103.663 13.6794 102.028 13.7095 100.373C13.7396 98.7175 14.1951 97.0984 15.0316 95.6736C15.8681 94.2487 17.057 93.0667 18.4822 92.2431C19.9074 91.4194 21.5202 90.9821 23.1632 90.9739C24.8061 90.9658 26.4231 91.387 27.8563 92.1965C29.2895 93.006 30.4899 94.1761 31.3403 95.5926C32.1906 97.0091 32.662 98.6235 32.7082 100.278C32.7545 101.933 32.3742 103.572 31.6043 105.034C31.2021 105.839 30.977 106.721 30.9442 107.621C30.8663 110.595 30.9121 113.574 30.9121 116.858C33.6897 115.544 36.0798 113.524 37.8473 110.997C39.4435 108.736 40.501 106.135 40.9375 103.395C41.374 100.656 41.1778 97.8517 40.3641 95.201C39.5505 92.5503 38.1413 90.1243 36.246 88.1115C34.3508 86.0987 32.0205 84.5532 29.4362 83.5951C26.718 82.5698 25.8517 81.3644 26.5668 79.6047C27.2176 77.9975 28.7394 77.7065 31.3522 78.681C39.91 81.914 46.1026 90.449 46.3684 99.3766C46.6664 109.279 41.4134 117.851 32.4843 121.846C31.2192 122.409 30.8571 123.023 30.8709 124.358C30.99 134.265 35.5004 144.989 42.2202 150.785C42.5868 143.308 45.1858 136.93 50.59 131.896C55.9942 126.861 62.5077 124.46 69.9012 124.917C81.6905 125.637 93.5028 134.921 94.3599 150.961C95.6021 149.529 96.7251 148.347 97.7289 147.063C102.167 141.369 104.859 134.495 105.475 127.282C105.535 126.672 105.246 125.721 104.792 125.434C101.731 123.379 100.456 120.497 100.516 116.899C100.504 116.727 100.504 116.554 100.516 116.382C100.878 114.341 100.135 113.255 98.1048 112.456C94.6899 111.112 93.1865 108.207 92.8931 104.582C92.843 103.83 92.5276 103.12 92.0039 102.582C76.0846 89.1789 66.2297 72.2752 62.7002 51.7274C61.0824 42.3999 61.16 32.8539 62.9294 23.5544C64.7995 13.6662 73.6507 6.14724 83.6799 6.32737C87.5485 6.39664 90.7984 5.60688 93.764 3.14521C95.2446 1.91668 97.0093 1.04378 98.6457 0.00923724H101.753C105.214 1.49178 106.406 4.1659 106.25 7.86071C106.058 12.4792 106.25 17.0977 106.19 21.6839C106.135 26.6858 101.18 29.4523 96.9268 26.8798C95.5716 26.1303 94.2887 25.2551 93.0948 24.2657C90.4592 21.8871 87.4018 21.4207 84.0282 21.6932C80.8196 21.9518 78.5278 23.7484 77.9548 26.9768C76.6494 34.1869 76.6153 41.5725 77.854 48.7946C78.3811 51.9029 79.2291 54.9511 79.9579 58.0317C80.3338 59.6574 79.6004 61.066 78.1748 61.4678C76.7493 61.8696 75.5163 61.0891 74.9662 59.5789C74.87 59.311 74.7875 59.0339 74.7049 58.7614C71.7025 48.3842 70.9953 37.4698 72.6331 26.7874C73.5819 20.4046 78.0877 16.5204 84.5508 16.3634C85.4446 16.3403 86.3338 16.3634 87.2322 16.3634V11.4031C86.1047 11.4031 85.0871 11.4031 84.0649 11.4031C75.9609 11.5555 69.5024 16.9453 67.9852 24.9954C66.5897 32.5966 66.4071 40.3734 67.4444 48.0326C69.2756 63.1068 75.5559 77.28 85.4721 88.7171C88.4423 92.1763 91.8205 95.2892 95.1346 98.6884C96.3676 97.0766 97.3027 95.8481 98.2836 94.5595C97.8252 94.1346 97.3943 93.7559 96.9681 93.3864C89.8399 87.2039 83.9644 79.692 79.6645 71.2637C79.0182 70.0028 78.8807 68.8621 79.9029 67.7813C81.2001 66.3958 83.1115 66.9177 84.2757 68.7836C86.5034 72.3952 88.644 76.0808 91.1055 79.5262C94.1531 83.7106 97.77 87.442 101.85 90.6107C104.476 88.9249 107.139 88.9988 110.013 89.6038C112.056 90.0885 114.178 90.1294 116.238 89.7239C119.286 88.9942 122.087 88.8972 124.832 90.6014C131.143 85.4802 136.462 79.2299 140.523 72.1643C148.549 58.1887 151.129 43.1693 148.796 27.2585C148.297 23.8408 145.853 21.7948 142.406 21.7163C141.378 21.6269 140.344 21.6346 139.317 21.7394C138.215 21.8679 137.146 22.1998 136.163 22.7185C134.05 23.9793 132.075 25.4665 130.007 26.8059C127.94 28.1452 125.818 28.3023 123.682 27.0691C121.619 25.8775 120.643 24.0486 120.652 21.6424C120.68 16.9777 120.813 12.3037 120.611 7.64364C120.45 3.94883 121.725 1.4225 125.13 0.00923724L128.224 0ZM113.213 121.365H115.615C119.937 121.365 121.115 120.414 120.808 116.133C120.501 111.851 121.725 109.011 126.176 107.75C128.564 107.071 129.15 104.42 127.693 102.379C126.093 100.139 124.379 97.9818 122.687 95.8065C121.716 94.5595 120.395 94.0145 118.887 94.5087C115.283 95.7234 111.385 95.7234 107.781 94.5087C107.155 94.2732 106.47 94.2447 105.826 94.4273C105.183 94.61 104.614 94.9944 104.201 95.5248C102.331 97.834 100.488 100.199 98.7832 102.647C97.5456 104.42 98.2011 106.6 100.122 107.635C100.938 108.044 101.78 108.399 102.643 108.697C104.788 109.5 105.773 111.085 105.801 113.315C105.801 114.812 105.773 116.308 105.801 117.804C105.87 119.901 107.176 121.236 109.243 121.324C110.582 121.407 111.902 121.361 113.213 121.365ZM128.701 95.0398L131.291 98.4021C131.823 97.9911 132.24 97.7047 132.625 97.3768C139.579 91.4345 145.423 84.2883 149.882 76.2748C158.491 60.7196 161.342 44.1438 158.986 26.4918C157.776 17.3656 150.011 10.1838 139.665 11.5832V16.368C140.66 16.368 141.499 16.3357 142.374 16.368C148.562 16.622 153.155 20.6725 153.98 26.5288C154.959 33.0774 155.096 39.7259 154.388 46.3099C152.94 59.0339 148.645 70.6818 140.981 80.8979C137.305 85.8074 132.959 90.1811 128.706 95.0306L128.701 95.0398ZM68.2923 161.519C70.3695 161.512 72.3983 160.886 74.1224 159.719C75.8465 158.551 77.1886 156.895 77.9794 154.96C78.7701 153.025 78.9739 150.896 78.5652 148.844C78.1564 146.792 77.1533 144.908 75.6825 143.43C74.2118 141.952 72.3394 140.947 70.3018 140.54C68.2641 140.133 66.1526 140.344 64.2338 141.146C62.3151 141.948 60.6752 143.305 59.5211 145.045C58.3671 146.785 57.7507 148.831 57.7498 150.924C57.7356 152.322 57.9988 153.708 58.524 155.002C59.0491 156.295 59.8256 157.47 60.8078 158.457C61.7899 159.444 62.958 160.224 64.2433 160.749C65.5286 161.275 66.9053 161.537 68.2923 161.519ZM110.834 126.672C109.156 140.832 104.467 149.474 93.7549 158.286C93.4233 158.509 93.1409 158.798 92.9252 159.136C91.683 161.685 90.4867 164.258 89.3362 166.682C105.599 159.348 115.647 140.98 115.491 126.672H110.834ZM101.02 14.0033C101.02 11.5324 101.02 9.06615 101.02 6.61371C101.02 5.84704 100.837 4.80326 99.7962 5.44061C97.3531 6.92777 94.5479 8.21634 92.8748 10.3686C91.8343 11.7079 92.5173 14.4513 92.5723 16.5666C92.6071 16.8837 92.704 17.1907 92.8575 17.4697C93.0109 17.7488 93.2178 17.9944 93.4661 18.1923C95.2996 19.5502 97.2202 20.8018 99.1316 22.0534C100.456 22.9217 100.988 22.6446 101.011 21.0651C101.048 18.7142 101.02 16.3588 101.02 14.0033ZM125.813 13.8371C125.813 16.2479 125.813 18.6588 125.813 21.0697C125.813 22.6538 126.345 22.9171 127.684 22.058C129.595 20.811 131.506 19.5548 133.344 18.197C133.837 17.7814 134.148 17.1877 134.211 16.5435C134.509 10.3593 134.486 10.3593 129.457 6.96934C128.905 6.56258 128.33 6.18936 127.734 5.85166C127.248 5.65161 126.745 5.49701 126.231 5.38981C126.034 5.89669 125.899 6.42542 125.827 6.96472C125.786 9.23703 125.813 11.5463 125.813 13.8555V13.8371ZM23.1106 104.785C24.2349 104.805 25.3225 104.382 26.1413 103.605C26.96 102.829 27.445 101.76 27.4927 100.628C27.5023 100.059 27.4006 99.4941 27.1935 98.9648C26.9863 98.4354 26.6777 97.9524 26.2852 97.5433C25.8928 97.1341 25.4242 96.8069 24.9063 96.5802C24.3883 96.3535 23.8311 96.2319 23.2665 96.2222C22.7019 96.2125 22.1409 96.3149 21.6156 96.5237C21.0902 96.7324 20.6108 97.0434 20.2048 97.4388C19.7987 97.8342 19.4739 98.3063 19.249 98.8282C19.024 99.3501 18.9032 99.9115 18.8936 100.48C18.8947 101.612 19.3376 102.698 20.1267 103.503C20.9157 104.309 21.9876 104.769 23.1106 104.785Z" fill="white"/>
<path d="M110.303 113.523C110.303 111.214 111.357 109.879 113.053 110.036C114.428 110.165 115.386 111.269 115.468 112.877C115.601 115.551 114.96 116.858 113.355 117.158C111.444 117.518 110.289 116.146 110.303 113.523Z" fill="white"/>
</g>
<defs>
<clipPath id="clip0_102_9159">
<rect width="165" height="177" fill="white"/>
</clipPath>
</defs>
</svg>
