<svg width="24" height="24" viewBox="0 0 24 24" fill="none" xmlns="http://www.w3.org/2000/svg">
<path d="M4.98529 14.8235H13.6875C13.9191 14.8235 14.1176 14.6581 14.1176 14.4265V13.136C14.1176 12.9044 13.9191 12.7059 13.6875 12.7059H4.98529C4.75368 12.7059 4.58823 12.9044 4.58823 13.136V14.4265C4.58823 14.6581 4.75368 14.8235 4.98529 14.8235ZM4.98529 6.35294H13.6875C13.9191 6.35294 14.1176 6.1875 14.1176 5.95588V4.66544C14.1176 4.43382 13.9191 4.23529 13.6875 4.23529H4.98529C4.75368 4.23529 4.58823 4.43382 4.58823 4.66544V5.95588C4.58823 6.1875 4.75368 6.35294 4.98529 6.35294ZM18.8824 8.47059H5.11765C4.81985 8.47059 4.58823 8.73529 4.58823 9V10.0588C4.58823 10.3566 4.81985 10.5882 5.11765 10.5882H18.8824C19.1471 10.5882 19.4118 10.3566 19.4118 10.0588V9C19.4118 8.73529 19.1471 8.47059 18.8824 8.47059ZM18.8824 16.9412H5.11765C4.81985 16.9412 4.58823 17.2059 4.58823 17.4706V18.5294C4.58823 18.8272 4.81985 19.0588 5.11765 19.0588H18.8824C19.1471 19.0588 19.4118 18.8272 19.4118 18.5294V17.4706C19.4118 17.2059 19.1471 16.9412 18.8824 16.9412Z" fill="#404040"/>
</svg>
