<svg width="24" height="24" viewBox="0 0 24 24" fill="none" xmlns="http://www.w3.org/2000/svg">
<path d="M18.8824 8.47059H5.11765C4.81985 8.47059 4.58823 8.73529 4.58823 9V10.0588C4.58823 10.3566 4.81985 10.5882 5.11765 10.5882H18.8824C19.1471 10.5882 19.4118 10.3566 19.4118 10.0588V9C19.4118 8.73529 19.1471 8.47059 18.8824 8.47059ZM18.8824 16.9412H5.11765C4.81985 16.9412 4.58823 17.2059 4.58823 17.4706V18.5294C4.58823 18.8272 4.81985 19.0588 5.11765 19.0588H18.8824C19.1471 19.0588 19.4118 18.8272 19.4118 18.5294V17.4706C19.4118 17.2059 19.1471 16.9412 18.8824 16.9412ZM8.16176 6.35294H15.8051C16.0368 6.35294 16.2353 6.1875 16.2353 5.95588V4.66544C16.2353 4.43382 16.0368 4.23529 15.8051 4.23529H8.16176C7.93015 4.23529 7.76471 4.43382 7.76471 4.66544V5.95588C7.76471 6.1875 7.93015 6.35294 8.16176 6.35294ZM15.8051 14.8235C16.0368 14.8235 16.2353 14.6581 16.2353 14.4265V13.136C16.2353 12.9044 16.0368 12.7059 15.8051 12.7059H8.16176C7.93015 12.7059 7.76471 12.9044 7.76471 13.136V14.4265C7.76471 14.6581 7.93015 14.8235 8.16176 14.8235H15.8051Z" fill="#CACACA"/>
</svg>
