<svg width="24" height="24" viewBox="0 0 24 24" fill="none" xmlns="http://www.w3.org/2000/svg">
<path d="M18.8824 16.9412H5.11765C4.81985 16.9412 4.58823 17.2059 4.58823 17.4706V18.5294C4.58823 18.8272 4.81985 19.0588 5.11765 19.0588H18.8824C19.1471 19.0588 19.4118 18.8272 19.4118 18.5294V17.4706C19.4118 17.2059 19.1471 16.9412 18.8824 16.9412ZM18.8824 12.7059H5.11765C4.81985 12.7059 4.58823 12.9706 4.58823 13.2353V14.2941C4.58823 14.5919 4.81985 14.8235 5.11765 14.8235H18.8824C19.1471 14.8235 19.4118 14.5919 19.4118 14.2941V13.2353C19.4118 12.9706 19.1471 12.7059 18.8824 12.7059ZM18.8824 8.47059H5.11765C4.81985 8.47059 4.58823 8.73529 4.58823 9V10.0588C4.58823 10.3566 4.81985 10.5882 5.11765 10.5882H18.8824C19.1471 10.5882 19.4118 10.3566 19.4118 10.0588V9C19.4118 8.73529 19.1471 8.47059 18.8824 8.47059ZM18.8824 4.23529H5.11765C4.81985 4.23529 4.58823 4.5 4.58823 4.76471V5.82353C4.58823 6.12132 4.81985 6.35294 5.11765 6.35294H18.8824C19.1471 6.35294 19.4118 6.12132 19.4118 5.82353V4.76471C19.4118 4.5 19.1471 4.23529 18.8824 4.23529Z" fill="#CACACA"/>
</svg>
