<svg width="24" height="24" viewBox="0 0 24 24" fill="none" xmlns="http://www.w3.org/2000/svg">
<path d="M5.11765 10.5882H18.8824C19.1471 10.5882 19.4118 10.3566 19.4118 10.0588V9C19.4118 8.73529 19.1471 8.47059 18.8824 8.47059H5.11765C4.81985 8.47059 4.58823 8.73529 4.58823 9V10.0588C4.58823 10.3566 4.81985 10.5882 5.11765 10.5882ZM18.8824 16.9412H5.11765C4.81985 16.9412 4.58823 17.2059 4.58823 17.4706V18.5294C4.58823 18.8272 4.81985 19.0588 5.11765 19.0588H18.8824C19.1471 19.0588 19.4118 18.8272 19.4118 18.5294V17.4706C19.4118 17.2059 19.1471 16.9412 18.8824 16.9412ZM18.9816 4.23529H10.2794C10.0478 4.23529 9.88235 4.43382 9.88235 4.66544V5.95588C9.88235 6.1875 10.0478 6.35294 10.2794 6.35294H18.9816C19.2132 6.35294 19.4118 6.1875 19.4118 5.95588V4.66544C19.4118 4.43382 19.2132 4.23529 18.9816 4.23529ZM18.9816 12.7059H10.2794C10.0478 12.7059 9.88235 12.9044 9.88235 13.136V14.4265C9.88235 14.6581 10.0478 14.8235 10.2794 14.8235H18.9816C19.2132 14.8235 19.4118 14.6581 19.4118 14.4265V13.136C19.4118 12.9044 19.2132 12.7059 18.9816 12.7059Z" fill="#CACACA"/>
</svg>
