<svg width="24" height="24" viewBox="0 0 24 24" fill="none" xmlns="http://www.w3.org/2000/svg">
<path fill-rule="evenodd" clip-rule="evenodd" d="M13 5H7V19H13C15.2091 19 17 17.186 17 14.9768C17 14.0289 16.6633 13.1032 16.05 12.3804L15.7273 12L16.05 11.6196C16.6633 10.8968 17 9.97113 17 9.02318C17 6.81404 15.2091 5 13 5ZM10 7.5H12.5C13.3284 7.5 14 8.17157 14 9C14 9.82843 13.3284 10.5 12.5 10.5H10V7.5ZM10 13.5H12.5C13.3284 13.5 14 14.1716 14 15C14 15.8284 13.3284 16.5 12.5 16.5H10V13.5Z" fill="#CACACA"/>
</svg>
