<svg width="48" height="48" viewBox="0 0 48 48" fill="none" xmlns="http://www.w3.org/2000/svg">
<g clip-path="url(#clip0_102_9162)">
<path d="M5.70776 47.9999C5.10944 47.6668 4.95135 47.1459 4.95135 46.4815C4.96609 35.5609 4.97005 24.6398 4.96325 13.7181C4.96325 12.5737 5.33042 12.1997 6.45907 12.1997H21.3424C22.0937 12.1997 22.5628 12.4986 22.6818 13.0366C22.8518 13.812 22.3418 14.403 21.4631 14.4149C20.671 14.432 19.8772 14.4149 19.0834 14.4149H18.5734V15.6651C18.5734 16.7753 18.5734 17.8854 18.5734 18.9939C18.5734 19.9708 17.8255 20.4627 16.928 20.0802C16.0305 19.6976 15.1042 19.2928 14.2084 18.8675C14.0669 18.7921 13.9086 18.7544 13.7485 18.758C13.5884 18.7615 13.4319 18.8063 13.2939 18.888C12.5205 19.2842 11.7046 19.6002 10.9448 20.0187C9.96402 20.5584 9.07504 19.9299 9.12263 18.8402C9.18552 17.5626 9.13792 16.2783 9.13792 14.9973V14.4525H7.15938C7.15088 14.6079 7.13558 14.7719 7.13558 14.9358C7.13558 25.0457 7.13275 35.1544 7.12709 45.262C7.12709 45.6754 7.21377 45.8205 7.66081 45.8188C15.8708 45.8052 24.0819 45.8018 32.2941 45.8086H32.8244V45.1254C32.8244 34.7047 32.8244 24.2862 32.8244 13.8701C32.8207 13.6517 32.8298 13.4333 32.8516 13.2159C32.8716 12.9486 32.9893 12.6982 33.1819 12.5128C33.3746 12.3274 33.6287 12.2202 33.8953 12.2117C34.1697 12.216 34.433 12.3214 34.6354 12.5077C34.8377 12.694 34.9651 12.9484 34.9933 13.2228C35.001 13.3633 35.001 13.5041 34.9933 13.6446C34.9933 24.629 34.9962 35.6127 35.0018 46.596C35.0018 47.2672 34.786 47.7437 34.1519 47.9999H5.70776ZM11.3323 17.3919C11.9545 17.1032 12.5222 16.8556 13.0678 16.5789C13.2718 16.4665 13.5002 16.4061 13.7329 16.4032C13.9655 16.4002 14.1954 16.4547 14.4022 16.5618C15.0277 16.859 15.6685 17.1254 16.345 17.4158V14.4474H11.3323V17.3919Z" fill="#006950"/>
<path d="M1.69458 47.9999C1.06566 47.6993 0.888885 47.175 0.888885 46.5106C0.895685 35.5797 0.899084 24.6489 0.899084 13.7181C0.889766 13.4233 0.934125 13.1292 1.02997 12.8504C1.19995 12.4166 1.5858 12.2253 2.03454 12.2219C2.26179 12.2276 2.48097 12.3077 2.65866 12.4502C2.83634 12.5927 2.96278 12.7896 3.01871 13.011C3.06786 13.2069 3.09073 13.4085 3.0867 13.6105C3.0867 24.6051 3.0901 35.5997 3.0969 46.5943C3.0969 47.2621 2.87763 47.7403 2.25551 48.0033L1.69458 47.9999Z" fill="#006950"/>
<path d="M44.2521 12.1999C44.8079 12.1999 45.3025 12.1999 45.7989 12.1999C46.6369 12.2153 47.0737 12.6167 47.0924 13.457C47.1162 14.6286 47.1162 15.8003 47.0924 16.9719C47.0771 17.8259 46.6437 18.2324 45.7717 18.2512C45.3212 18.2614 44.8708 18.2512 44.4118 18.2614C44.3679 18.2676 44.3247 18.2779 44.2827 18.2922V20.7328C44.7705 20.7328 45.2481 20.7328 45.7258 20.7328C46.6454 20.7413 47.0754 21.1495 47.0856 22.0667C47.1015 23.1917 47.1015 24.3166 47.0856 25.4416C47.0737 26.3588 46.6471 26.7721 45.7258 26.7875C45.2481 26.7875 44.7688 26.7875 44.2368 26.7875V38.1162C44.2368 39.2127 43.8832 39.5646 42.7835 39.5646C41.2536 39.5646 39.7357 39.5646 38.2127 39.5646C37.9613 39.577 37.714 39.4973 37.5167 39.3402C37.3194 39.1831 37.1856 38.9594 37.1402 38.7106C37.0416 38.1982 37.2541 37.7029 37.7198 37.515C37.9684 37.4292 38.2304 37.3893 38.4932 37.3972C39.6576 37.387 40.8219 37.3972 42.0271 37.3972V26.808H39.4196C39.1866 26.8174 38.9533 26.8123 38.721 26.7926C38.0292 26.7021 37.6467 26.3246 37.6314 25.6226C37.6025 24.3878 37.5991 23.153 37.6314 21.9198C37.6535 21.1581 38.1227 20.7636 38.9215 20.755C39.9414 20.7431 40.9715 20.755 42.0322 20.755V18.2836C41.8741 18.2836 41.7109 18.258 41.5477 18.2563C40.6774 18.2563 39.8054 18.2665 38.9352 18.2563C38.0649 18.246 37.645 17.8003 37.6348 16.9139C37.6269 15.7877 37.6269 14.6628 37.6348 13.539C37.6433 12.6372 38.0853 12.2068 38.9946 12.2016C40.0009 12.2016 41.0089 12.2016 42.0542 12.2016V5.98815H41.4933C39.0196 5.98815 36.5469 5.98815 34.0755 5.98815C33.2868 5.98815 32.8516 5.66876 32.7445 5.03341C32.6999 4.77884 32.7514 4.51668 32.8892 4.29835C33.0269 4.08002 33.2408 3.92126 33.489 3.85322C33.7151 3.79865 33.9467 3.77113 34.1791 3.77124C37.0552 3.77124 39.9318 3.77124 42.809 3.77124C43.856 3.77124 44.2504 4.16407 44.2521 5.20079C44.2521 7.34027 44.2521 9.48032 44.2521 11.6209V12.1999ZM44.8844 14.4595H39.8836V15.9967H44.8844V14.4595ZM44.8844 22.9856H39.8785V24.5398H44.8878L44.8844 22.9856Z" fill="#006950"/>
<path d="M24.7165 2.23911C23.6762 2.20324 23.0422 2.81127 23.0286 3.85141C23.0099 5.42954 23.0286 7.00768 23.0201 8.58411C23.0225 8.81833 23.0025 9.05225 22.9606 9.28266C22.9202 9.50736 22.8063 9.71207 22.6369 9.8643C22.4676 10.0165 22.2524 10.1076 22.0257 10.123C21.7918 10.1532 21.5546 10.1019 21.3538 9.97752C21.153 9.85317 21.0008 9.66336 20.9226 9.43979C20.8587 9.23187 20.8277 9.01517 20.8308 8.79761C20.8308 7.17335 20.8206 5.55252 20.8308 3.92314C20.841 1.61913 22.449 0.00682864 24.7403 -0.00512695C26.3109 -0.00512695 27.8815 -0.00512695 29.4521 -0.00512695C30.302 -0.00512695 30.7235 0.401363 30.7235 1.25021C30.7235 10.3592 30.7235 19.4683 30.7235 28.5773C30.7235 29.8292 30.1694 30.7498 29.09 31.3715C29.0208 31.4206 28.9628 31.4839 28.9198 31.5572C28.8767 31.6305 28.8496 31.7122 28.8401 31.7968C28.813 32.4355 28.8401 33.0777 28.8231 33.7165C28.7857 34.608 28.1245 35.117 27.3698 34.8659C26.9092 34.7122 26.6338 34.2938 26.6236 33.6892C26.6134 33.0845 26.6389 32.4389 26.6066 31.8104C26.5959 31.7197 26.5661 31.6322 26.5192 31.5539C26.4723 31.4756 26.4094 31.4082 26.3347 31.3561C25.3284 30.7652 24.776 29.9095 24.7284 28.7344C24.7199 28.5312 24.7182 28.3279 24.7182 28.1247V2.23911H24.7165ZM26.8905 10.1623V28.2664C26.8905 29.0845 27.1659 29.4859 27.7251 29.4842C28.2843 29.4825 28.5563 29.0709 28.5563 28.2613V10.1623H26.8905ZM26.9075 7.92314H28.5189V2.22032H26.9075V7.92314Z" fill="#006950"/>
<path d="M16.3994 5.98801C16.3994 7.02644 16.3994 7.99314 16.3994 8.95983C16.4015 9.19284 16.3821 9.42554 16.3416 9.65496C16.3009 9.88061 16.1869 10.0863 16.0174 10.2399C15.848 10.3935 15.6326 10.4863 15.405 10.5038C15.1713 10.5321 14.935 10.48 14.7346 10.3559C14.5343 10.2318 14.3817 10.0431 14.3019 9.82063C14.2394 9.62877 14.2079 9.42813 14.2084 9.22627C14.2084 7.85992 14.2084 6.48161 14.2084 5.11013C14.2084 4.22371 14.6384 3.78477 15.5155 3.77281C16.26 3.76256 17.0062 3.75061 17.7507 3.77281C18.4544 3.79672 18.9525 4.29373 18.9406 4.89493C18.9287 5.49613 18.4476 5.93507 17.7643 5.98289C17.5773 5.99484 17.3921 5.98289 17.2051 5.98289L16.3994 5.98801Z" fill="#006950"/>
</g>
<defs>
<clipPath id="clip0_102_9162">
<rect width="46.2222" height="48" fill="white" transform="translate(0.888885)"/>
</clipPath>
</defs>
</svg>
