<svg width="16" height="17" viewBox="0 0 16 17" fill="none" xmlns="http://www.w3.org/2000/svg">
<path d="M12.6276 3.81923C12.845 3.61221 13.1344 3.49776 13.4346 3.50003C13.7348 3.5023 14.0224 3.62112 14.2367 3.83141C14.451 4.04169 14.5752 4.327 14.5832 4.62714C14.5911 4.92727 14.4821 5.21874 14.2793 5.44006L8.12011 13.1429C8.0142 13.2569 7.88638 13.3485 7.74428 13.412C7.60218 13.4756 7.44873 13.5098 7.2931 13.5127C7.13747 13.5156 6.98286 13.487 6.83851 13.4288C6.69415 13.3706 6.56303 13.2838 6.45297 13.1737L2.36848 9.08924C2.25473 8.98325 2.1635 8.85544 2.10023 8.71342C2.03695 8.57141 2.00292 8.4181 2.00018 8.26265C1.99744 8.1072 2.02603 7.95279 2.08426 7.80863C2.14249 7.66448 2.22916 7.53352 2.33909 7.42359C2.44903 7.31365 2.57998 7.22698 2.72414 7.16875C2.8683 7.11053 3.02271 7.08193 3.17816 7.08467C3.33361 7.08742 3.48691 7.12144 3.62893 7.18472C3.77094 7.248 3.89876 7.33923 4.00475 7.45297L7.23714 10.6838L12.5982 3.85319C12.6079 3.84131 12.6182 3.82997 12.6291 3.81923H12.6276Z" fill="black"/>
</svg>
