<svg width="20" height="20" viewBox="0 0 20 20" fill="none" xmlns="http://www.w3.org/2000/svg">
<path d="M11.3693 9.99913L15.5459 5.83173C15.7288 5.64881 15.8315 5.40071 15.8315 5.14202C15.8315 4.88333 15.7288 4.63524 15.5459 4.45231C15.363 4.26939 15.1149 4.16663 14.8563 4.16663C14.5976 4.16663 14.3495 4.26939 14.1666 4.45231L9.99984 8.62943L5.83303 4.45231C5.65013 4.26939 5.40207 4.16663 5.14342 4.16663C4.88476 4.16663 4.6367 4.26939 4.45381 4.45231C4.27091 4.63524 4.16816 4.88333 4.16816 5.14202C4.16816 5.40071 4.27091 5.64881 4.45381 5.83173L8.63033 9.99913L4.45381 14.1665C4.36277 14.2568 4.29051 14.3643 4.2412 14.4827C4.19189 14.601 4.1665 14.728 4.1665 14.8562C4.1665 14.9845 4.19189 15.1114 4.2412 15.2298C4.29051 15.3482 4.36277 15.4556 4.45381 15.5459C4.5441 15.637 4.65153 15.7093 4.76989 15.7586C4.88825 15.8079 5.0152 15.8333 5.14342 15.8333C5.27164 15.8333 5.39859 15.8079 5.51695 15.7586C5.63531 15.7093 5.74274 15.637 5.83303 15.5459L9.99984 11.3688L14.1666 15.5459C14.2569 15.637 14.3644 15.7093 14.4827 15.7586C14.6011 15.8079 14.728 15.8333 14.8563 15.8333C14.9845 15.8333 15.1114 15.8079 15.2298 15.7586C15.3481 15.7093 15.4556 15.637 15.5459 15.5459C15.6369 15.4556 15.7092 15.3482 15.7585 15.2298C15.8078 15.1114 15.8332 14.9845 15.8332 14.8562C15.8332 14.728 15.8078 14.601 15.7585 14.4827C15.7092 14.3643 15.6369 14.2568 15.5459 14.1665L11.3693 9.99913Z" fill="#BBBBBB"/>
</svg>
