<svg width="43" height="48" viewBox="0 0 43 48" fill="none" xmlns="http://www.w3.org/2000/svg">
<g clip-path="url(#clip0_102_9196)">
<path d="M42.0475 0C42.7151 0.362853 42.882 0.947048 42.8802 1.68001C42.8657 10.8239 42.8657 19.9672 42.8802 29.1099C42.8929 32.8835 41.5776 36.122 39.1719 38.9613C36.4741 42.1454 33.0415 44.2826 29.2243 45.8555C26.8445 46.8384 24.3605 47.5469 21.8202 47.9673C21.1925 48.0726 20.4958 47.8567 19.8463 47.7152C15.4721 46.7663 11.3628 45.1752 7.71435 42.5336C4.58837 40.2712 2.11734 37.4718 0.820141 33.7598C0.347026 32.3686 0.111503 30.9077 0.123458 29.4383C0.123458 20.125 0.11983 10.8118 0.112573 1.49858C0.0930871 1.19598 0.161281 0.894166 0.308982 0.629334C0.456683 0.364502 0.677628 0.147884 0.945326 0.00544257L42.0475 0ZM2.4693 2.35854V2.81393C2.4693 11.6615 2.4693 20.5103 2.4693 29.3602C2.45371 31.4497 3.00483 33.5044 4.06404 35.3056C5.72227 38.134 8.12436 40.1878 10.902 41.8369C14.1296 43.7564 17.6329 44.9339 21.305 45.6469C21.425 45.6682 21.5478 45.6682 21.6679 45.6469C23.7681 45.2521 25.8279 44.6667 27.8218 43.8979C31.4304 42.481 34.6997 40.547 37.2832 37.5988C39.3878 35.1986 40.538 32.4282 40.5308 29.1951C40.5138 20.4552 40.5138 11.7159 40.5308 2.97721V2.35854H2.4693Z" fill="#006950"/>
<path d="M35.3202 20.7225V29.4999C35.3202 30.6048 35.1387 30.8642 34.0992 31.189C30.1078 32.4336 26.1212 33.68 22.1395 34.9282C21.7271 35.064 21.282 35.064 20.8696 34.9282C16.8274 33.657 12.7816 32.3936 8.73212 31.1382C7.9538 30.8951 7.68529 30.5522 7.68347 29.743C7.68347 23.7088 7.68347 17.6751 7.68347 11.6421C7.68347 10.5953 8.36927 10.1108 9.37437 10.4247C13.2424 11.6294 17.1068 12.8467 20.9857 14.0369C21.323 14.1331 21.6806 14.1331 22.018 14.0369C25.8606 12.854 29.6959 11.6457 33.5331 10.4447C34.6779 10.0818 35.3256 10.5626 35.3274 11.7691C35.3226 14.7505 35.3202 17.735 35.3202 20.7225ZM10.0529 13.0808C10.0384 13.2622 10.0202 13.3892 10.0202 13.5108C10.0202 18.5738 10.0202 23.6374 10.0202 28.7016C10.0202 29.0137 10.1364 29.1243 10.423 29.2114C12.7017 29.9099 14.975 30.6284 17.2519 31.3396L20.3071 32.292C20.318 32.0925 20.3325 31.9546 20.3325 31.8167C20.3325 26.7839 20.3356 21.7512 20.3416 16.7184C20.3416 16.3755 20.2273 16.234 19.9062 16.136C17.1648 15.296 14.4289 14.4379 11.6912 13.5852L10.0529 13.0808ZM22.6747 32.2866C22.8852 32.2304 23.0068 32.205 23.1247 32.1669C26.247 31.1926 29.3694 30.2093 32.499 29.2513C32.8891 29.1316 32.9907 28.952 32.9888 28.5637C32.9755 23.5926 32.9755 18.6222 32.9888 13.6523V13.0844C32.733 13.1552 32.5407 13.2005 32.352 13.2658C29.3041 14.2183 26.2579 15.1817 23.2027 16.1161C22.8036 16.2376 22.6711 16.3973 22.6729 16.8164C22.6893 21.7874 22.6838 26.7567 22.6838 31.7278L22.6747 32.2866Z" fill="#006950"/>
<path d="M18.3314 19.5487C18.3205 20.347 17.5821 20.8387 16.7258 20.5974C16.1434 20.4341 15.5665 20.2345 14.9895 20.0531C14.3055 19.839 13.6234 19.6268 12.943 19.4072C12.2173 19.1732 11.8545 18.5418 12.054 17.8941C12.2355 17.2845 12.9122 16.9598 13.6089 17.1684C14.8879 17.5567 16.1633 17.9613 17.437 18.3695C18.0193 18.569 18.3386 19.0045 18.3314 19.5487Z" fill="#006950"/>
<path d="M17.1394 25.3417C17.0784 25.3413 17.0176 25.3346 16.958 25.3217C15.5175 24.8754 14.0697 24.4527 12.6455 23.9647C12.1139 23.7832 11.8817 23.0575 12.074 22.5368C12.178 22.2655 12.3791 22.0426 12.6383 21.9111C12.8974 21.7797 13.1961 21.7493 13.4764 21.8256C14.8317 22.2339 16.1833 22.6511 17.5295 23.0956C17.8083 23.1835 18.0435 23.3735 18.1882 23.6275C18.3329 23.8815 18.3762 24.1808 18.3096 24.4654C18.249 24.7259 18.0983 24.9566 17.8843 25.1169C17.6702 25.2772 17.4064 25.3568 17.1394 25.3417Z" fill="#006950"/>
<path d="M30.9895 18.2514C30.9955 18.4957 30.9227 18.7353 30.7819 18.935C30.641 19.1346 30.4397 19.2836 30.2076 19.3599C28.8777 19.7935 27.546 20.2217 26.2035 20.6136C26.0553 20.6661 25.8979 20.6879 25.741 20.6775C25.5841 20.6672 25.4309 20.625 25.2909 20.5535C25.1508 20.4821 25.0268 20.3828 24.9263 20.2618C24.8259 20.1408 24.7512 20.0006 24.7067 19.8498C24.6645 19.6991 24.6526 19.5415 24.6718 19.3862C24.691 19.2308 24.7408 19.0809 24.8185 18.945C24.8961 18.8091 25 18.69 25.1241 18.5946C25.2482 18.4992 25.39 18.4294 25.5413 18.3893C26.873 17.963 28.2083 17.5402 29.5508 17.1483C29.7202 17.1015 29.8981 17.0945 30.0706 17.1281C30.2431 17.1616 30.4054 17.2347 30.5449 17.3416C30.6843 17.4485 30.797 17.5863 30.8742 17.7442C30.9514 17.9021 30.9908 18.0757 30.9895 18.2514Z" fill="#006950"/>
<path d="M25.8298 25.3418C25.5598 25.3487 25.2962 25.2589 25.0866 25.0886C24.877 24.9182 24.7352 24.6786 24.6868 24.4129C24.6325 24.142 24.6776 23.8607 24.8139 23.6205C24.9502 23.3802 25.1685 23.1971 25.4288 23.1048C26.4303 22.7655 27.4445 22.4643 28.4532 22.1487C28.816 22.0362 29.1644 21.9201 29.5254 21.8239C29.8064 21.7514 30.1042 21.784 30.3628 21.9156C30.6214 22.0473 30.823 22.2689 30.9297 22.5387C31.1202 23.063 30.8879 23.7833 30.3564 23.9647C28.9322 24.4528 27.4844 24.8719 26.0438 25.3218C25.9735 25.3369 25.9017 25.3436 25.8298 25.3418Z" fill="#006950"/>
</g>
<defs>
<clipPath id="clip0_102_9196">
<rect width="42.7604" height="48" fill="white" transform="translate(0.119812)"/>
</clipPath>
</defs>
</svg>
