<svg width="20" height="20" viewBox="0 0 20 20" fill="none" xmlns="http://www.w3.org/2000/svg">
<path d="M1.66666 3.33333C1.66666 3.11232 1.75446 2.90036 1.91074 2.74408C2.06702 2.5878 2.27898 2.5 2.5 2.5H10.8333C11.0543 2.5 11.2663 2.5878 11.4226 2.74408C11.5789 2.90036 11.6667 3.11232 11.6667 3.33333V17.5H2.5C2.27898 17.5 2.06702 17.4122 1.91074 17.2559C1.75446 17.0996 1.66666 16.8877 1.66666 16.6667V3.33333Z" stroke="#006950" stroke-width="1.66667" stroke-linejoin="round"/>
<path d="M8.74998 17.5V13.75C8.74998 13.4185 8.61828 13.1005 8.38386 12.8661C8.14944 12.6317 7.8315 12.5 7.49998 12.5H5.83331C5.50179 12.5 5.18385 12.6317 4.94943 12.8661C4.71501 13.1005 4.58331 13.4185 4.58331 13.75V17.5M11.6666 10H17.5C17.721 10 17.933 10.0878 18.0892 10.2441C18.2455 10.4004 18.3333 10.6123 18.3333 10.8333V16.6667C18.3333 16.8877 18.2455 17.0996 18.0892 17.2559C17.933 17.4122 17.721 17.5 17.5 17.5H11.6666V10Z" stroke="#006950" stroke-width="1.66667" stroke-linejoin="round"/>
<path d="M4.99997 7.49992H8.33331M14.1666 12.4999H15.8333M14.1666 14.9999H15.8333M6.66664 5.83325V9.16659M2.91664 17.4999H10.4166" stroke="#006950" stroke-width="1.66667" stroke-linecap="round" stroke-linejoin="round"/>
</svg>
