<svg width="20" height="20" viewBox="0 0 20 20" fill="none" xmlns="http://www.w3.org/2000/svg">
<g clip-path="url(#clip0_22_8719)">
<path d="M10.595 5.19607L11.041 6.56707C11.4632 6.2082 11.9532 5.93784 12.482 5.77207C13.072 5.58007 13.593 5.47207 14.064 5.41007L13.634 4.08707C13.0978 4.16429 12.5692 4.28741 12.054 4.45507C11.5319 4.62429 11.0396 4.87433 10.595 5.19607ZM11.522 8.05107L11.968 9.42207C12.3902 9.0632 12.8802 8.79284 13.409 8.62707C13.999 8.43507 14.52 8.32707 14.991 8.26507L14.561 6.94207C14.0248 7.01929 13.4962 7.14241 12.981 7.31007C12.4587 7.47868 11.9663 7.72876 11.522 8.05107ZM12.45 10.9051L12.896 12.2761C13.3182 11.9172 13.8082 11.6468 14.337 11.4811C14.927 11.2891 15.448 11.1811 15.919 11.1191L15.489 9.79607C14.9528 9.87329 14.4242 9.99641 13.909 10.1641C13.3867 10.3327 12.8943 10.5828 12.45 10.9051ZM5.38799 13.0771L5.81799 14.4001C6.29455 14.1423 6.79403 13.9294 7.30999 13.7641C7.83526 13.5878 8.39056 13.5188 8.94299 13.5611L8.49699 12.1901C7.94854 12.1909 7.4036 12.2776 6.88199 12.4471C6.36679 12.6137 5.86693 12.8245 5.38799 13.0771ZM3.53299 7.36807L3.96299 8.69107C4.43975 8.43372 4.93919 8.22082 5.45499 8.05507C5.98026 7.87884 6.53556 7.80981 7.08799 7.85207L6.64299 6.48007C6.09417 6.48129 5.54891 6.56834 5.02699 6.73807C4.51179 6.90468 4.01193 7.11546 3.53299 7.36807ZM4.45999 10.2231L4.88999 11.5461C5.36655 11.2883 5.86603 11.0754 6.38199 10.9101C6.90726 10.7338 7.46256 10.6648 8.01499 10.7071L7.56999 9.33507C7.02154 9.33586 6.4766 9.42257 5.95499 9.59207C5.43943 9.759 4.93924 9.97011 4.45999 10.2231ZM11.064 1.41007C9.75018 1.82982 8.6538 2.7488 8.01099 3.96907C6.77397 3.35991 5.34714 3.26115 4.03799 3.69407C1.51499 4.51407 0.0689926 6.32107 0.0689926 6.32107L4.16399 18.9081C4.28999 19.2951 4.80999 19.3851 5.04199 19.0511C5.54099 18.3321 6.50199 17.3931 8.29899 16.8091C10.017 16.2511 11.268 16.8631 11.954 17.3871C12.226 17.5951 12.616 17.4471 12.716 17.1191C12.968 16.2921 13.623 15.0791 15.326 14.5261C17.125 13.9411 18.455 14.1371 19.282 14.4261C19.667 14.5601 20.032 14.1841 19.907 13.7971L15.819 1.20307C15.819 1.20307 13.587 0.591072 11.064 1.41007ZM10.951 15.2561C9.92442 14.9471 8.82751 14.9625 7.80999 15.3001C6.55899 15.7061 5.68299 16.2491 5.11099 16.7041L1.86599 6.72207C2.22399 6.36407 3.05299 5.68007 4.52799 5.20107C5.91699 4.75007 7.05599 5.13607 7.80699 5.57907L10.951 15.2561ZM17.845 12.5671C17.114 12.5351 16.086 12.6111 14.835 13.0181C13.8134 13.3427 12.9169 13.9748 12.268 14.8281L9.12399 5.15107C9.46999 4.35107 10.164 3.36907 11.554 2.91807C13.028 2.43907 14.101 2.50507 14.601 2.58407L17.845 12.5671Z" fill="#006950"/>
</g>
<defs>
<clipPath id="clip0_22_8719">
<rect width="20" height="20" fill="white"/>
</clipPath>
</defs>
</svg>
