<svg width="44" height="48" viewBox="0 0 44 48" fill="none" xmlns="http://www.w3.org/2000/svg">
<g clip-path="url(#clip0_102_9172)">
<path d="M20.9786 47.9999C20.3715 47.8393 19.754 47.7119 19.1607 47.5129C17.9684 47.1073 16.8835 46.4327 15.9884 45.5404C15.5439 45.104 15.4556 44.5611 15.7324 44.1003C15.853 43.8792 16.0478 43.7087 16.2818 43.6194C16.5157 43.5302 16.7735 43.528 17.0089 43.6133C17.2601 43.7301 17.4904 43.8882 17.6904 44.0811C19.6502 45.7586 21.8607 46.2386 24.2633 45.3239C26.6658 44.4092 28.0289 42.5677 28.3938 40.0086C28.4588 39.3706 28.4675 38.7281 28.4198 38.0885C28.4019 38.0041 28.3666 37.9244 28.3162 37.8547C28.2659 37.7849 28.2016 37.7266 28.1274 37.6835C26.1786 36.5338 24.2235 35.3951 22.262 34.2674C22.1788 34.2299 22.0886 34.2105 21.9974 34.2105C21.9062 34.2105 21.816 34.2299 21.7327 34.2674C20.918 34.7143 20.1293 35.2083 19.3112 35.6639C18.5449 36.0863 17.7907 35.7721 17.5901 34.9779C17.4707 34.5031 17.706 34.0335 18.237 33.7019C18.474 33.5552 18.7196 33.4226 18.9618 33.2812L19.7609 32.8081L15.5612 30.3556C15.5612 31.2772 15.5612 32.1116 15.5612 32.9478C15.5633 33.2274 15.5401 33.5067 15.492 33.7822C15.4409 34.0358 15.3031 34.2633 15.1026 34.4248C14.9021 34.5862 14.6518 34.6714 14.3953 34.6654C14.1372 34.6524 13.8919 34.5482 13.7022 34.3711C13.5125 34.194 13.3905 33.9553 13.3575 33.6966C13.3361 33.5106 13.3269 33.3235 13.3298 33.1363C13.3298 31.9336 13.316 30.7291 13.3298 29.5264C13.3463 29.3837 13.3177 29.2394 13.2482 29.114C13.1786 28.9886 13.0716 28.8886 12.9424 28.8282C11.019 27.7285 9.10417 26.6136 7.19804 25.4837C7.10034 25.4142 6.98374 25.3769 6.86421 25.3769C6.74468 25.3769 6.62808 25.4142 6.53038 25.4837C5.19159 26.2168 4.00328 27.1001 3.25259 28.4948C2.46361 29.9394 2.24982 31.6332 2.65471 33.2313C3.05961 34.8295 4.05277 36.2118 5.43202 37.097C5.57559 37.1895 5.71915 37.2803 5.85407 37.3868C6.38509 37.804 6.50617 38.3957 6.17061 38.9072C6.09456 39.0307 5.99477 39.1376 5.87713 39.2216C5.75949 39.3056 5.62637 39.3649 5.48563 39.3962C5.34489 39.4274 5.19938 39.4299 5.05768 39.4035C4.91598 39.377 4.78095 39.3223 4.66057 39.2423C4.00328 38.8077 3.32351 38.3695 2.78038 37.8057C-0.476645 34.4437 -0.642696 29.4357 2.38082 25.8834C2.8686 25.3108 3.5034 24.864 4.07593 24.3665C4.25092 24.234 4.43281 24.1111 4.62079 23.9982C2.25975 22.5458 0.81544 20.507 0.355339 17.8206C-0.0120994 15.8018 0.364395 13.7171 1.41393 11.9589C1.97989 10.958 2.741 10.0833 3.65131 9.38751C4.56161 8.69176 5.60223 8.18944 6.71027 7.91089C8.99348 7.30343 11.1815 7.64556 13.2416 8.79241C13.3731 7.99817 13.4509 7.22138 13.6325 6.483C14.4368 3.16639 17.3946 0.537549 20.7589 0.0906805C23.3638 -0.258436 25.6522 0.439797 27.657 2.1365C28.0479 2.46467 28.2347 2.87488 28.105 3.37936C28.0555 3.58623 27.9456 3.77336 27.7896 3.91652C27.6335 4.05968 27.4385 4.15227 27.2297 4.18232C26.7696 4.27833 26.4306 4.02173 26.102 3.75117C24.857 2.70158 23.2666 2.16263 21.6463 2.24124C18.4601 2.35296 15.6632 5.17556 15.5819 8.38394C15.5663 8.95998 15.4089 9.63727 15.6494 10.0859C15.8898 10.5345 16.5402 10.7021 17.0193 10.9831C18.576 11.8926 20.1328 12.788 21.6722 13.7062C21.7686 13.7781 21.8853 13.8169 22.0052 13.8169C22.125 13.8169 22.2417 13.7781 22.3381 13.7062C23.3465 13.097 24.3688 12.5122 25.3893 11.924C25.8269 11.6709 26.2749 11.6342 26.6935 11.9537C26.8576 12.0747 26.984 12.2406 27.0578 12.4317C27.1317 12.6228 27.1499 12.8312 27.1104 13.0324C27.0481 13.4618 26.7644 13.7115 26.4185 13.9139C25.7145 14.3276 25.0105 14.7379 24.2304 15.1934L28.3921 17.6163C28.4284 17.0839 28.4284 16.6144 28.5011 16.1588C28.5348 15.8916 28.6716 15.6486 28.8818 15.4826C29.092 15.3166 29.3585 15.2409 29.6236 15.272C29.8827 15.2747 30.131 15.377 30.318 15.5579C30.505 15.7389 30.6167 15.9849 30.6303 16.246C30.6736 17.0089 30.6666 17.7752 30.6597 18.5415C30.6451 18.6628 30.6688 18.7857 30.7275 18.8926C30.7862 18.9995 30.8769 19.085 30.9866 19.1367C32.9343 20.2556 34.8716 21.3955 36.8192 22.5179C36.8844 22.561 36.9575 22.5903 37.0342 22.6041C37.1109 22.6179 37.1896 22.6159 37.2655 22.5982C38.6907 21.8633 39.9586 20.9556 40.7474 19.4806C41.5283 18.032 41.7339 16.3379 41.3224 14.7419C40.9109 13.146 39.9132 11.7678 38.5316 10.8871C38.139 10.6392 37.7065 10.4228 37.6131 9.8991C37.5648 9.69146 37.5783 9.47405 37.6518 9.27409C37.7253 9.07413 37.8557 8.9005 38.0265 8.77495C38.2048 8.63317 38.4229 8.55193 38.6497 8.54284C38.8765 8.53375 39.1004 8.59727 39.2892 8.72433C41.2853 9.89212 42.7036 11.5504 43.3627 13.797C44.4991 17.6809 43.0721 21.5351 39.7182 23.7608C39.6196 23.8271 39.5262 23.9022 39.3722 24.0104C41.7229 25.447 43.1551 27.5015 43.6204 30.1775C43.9916 32.1929 43.6201 34.2757 42.5757 36.0339C42.0099 37.0348 41.2488 37.9095 40.3385 38.605C39.4281 39.3005 38.3874 39.8023 37.2793 40.0802C34.9961 40.6894 32.8097 40.3473 30.7479 39.2074C30.6182 39.9929 30.5456 40.7505 30.364 41.4767C29.9408 43.1341 29.042 44.6285 27.7803 45.7722C26.5187 46.916 24.9503 47.6582 23.2722 47.9057C23.1867 47.9283 23.1038 47.9599 23.0248 47.9999H20.9786ZM28.4371 24.0121C28.4371 22.888 28.425 21.7621 28.4371 20.6379C28.4491 20.5092 28.4204 20.3799 28.3552 20.2686C28.2899 20.1572 28.1914 20.0696 28.0738 20.0182C26.1527 18.915 24.2379 17.8002 22.3295 16.6737C22.2328 16.6026 22.1162 16.5643 21.9965 16.5643C21.8769 16.5643 21.7603 16.6026 21.6635 16.6737C19.7574 17.8013 17.8432 18.9168 15.9209 20.02C15.803 20.0703 15.7038 20.1571 15.6376 20.2677C15.5715 20.3784 15.5417 20.5074 15.5525 20.6362C15.5664 22.8856 15.5664 25.1351 15.5525 27.3846C15.5427 27.5063 15.5707 27.628 15.6328 27.7328C15.6948 27.8377 15.7877 27.9203 15.8985 27.9694C17.8323 29.083 19.7603 30.206 21.6826 31.3383C21.7735 31.4044 21.8827 31.4399 21.9948 31.4399C22.1068 31.4399 22.2161 31.4044 22.307 31.3383C24.2293 30.206 26.1573 29.0836 28.0911 27.9711C28.2072 27.9162 28.3031 27.8257 28.3652 27.7126C28.4273 27.5994 28.4525 27.4694 28.4371 27.341C28.4284 26.2308 28.4371 25.1223 28.4371 24.0121ZM30.6701 32.8099C30.6701 33.934 30.6701 35.0582 30.6701 36.1823C30.6701 36.3359 30.7099 36.5629 30.8137 36.6309C32.0833 37.4636 33.4221 38.1129 34.984 38.1374C39.8808 38.2142 43.0755 32.9128 40.7664 28.5576C39.9759 27.0652 38.708 26.14 37.2689 25.3999C37.1936 25.3803 37.115 25.3768 37.0382 25.3894C36.9614 25.402 36.888 25.4305 36.8227 25.4732C34.8767 26.5938 32.9412 27.732 30.997 28.8526C30.8856 28.9013 30.7922 28.9842 30.7301 29.0895C30.668 29.1947 30.6404 29.3171 30.6511 29.4391C30.6788 30.5616 30.6701 31.6857 30.6701 32.8099ZM13.3437 15.1847C13.3437 14.0606 13.3437 12.9364 13.3437 11.8123C13.3437 11.6586 13.3022 11.4317 13.2001 11.3636C11.9132 10.5328 10.5762 9.88514 9.01942 9.85023C4.12782 9.76295 0.924412 15.0765 3.23183 19.4317C4.03096 20.9417 5.32478 21.8581 6.77254 22.6122C6.8694 22.661 7.0614 22.586 7.18075 22.5162C9.1232 21.3938 11.0605 20.2469 13.0064 19.135C13.1175 19.0864 13.2107 19.0038 13.2728 18.8989C13.3348 18.7939 13.3627 18.672 13.3523 18.5502C13.3247 17.433 13.3437 16.3089 13.3437 15.1847ZM9.11629 23.9982L13.2918 26.4333V21.5596L9.11629 23.9982ZM30.6909 26.442L34.9027 23.9982L30.6909 21.5543V26.442ZM15.6113 12.7514V17.6128L19.7799 15.1777L15.6113 12.7514ZM28.4111 35.2327V30.3713L24.2339 32.8151L28.4111 35.2327Z" fill="#006950"/>
<path d="M28.2191 8.9356C28.0617 7.12368 29.5303 5.34842 31.2721 5.14594C33.3788 4.90156 35.24 6.36785 35.3559 8.56379C35.451 10.3722 34.1814 12.2086 31.919 12.3342C31.4547 12.3572 30.9905 12.2875 30.553 12.129C30.1155 11.9704 29.7133 11.7263 29.3695 11.4105C29.0258 11.0947 28.7472 10.7135 28.5498 10.2888C28.3523 9.86411 28.24 9.40424 28.2191 8.9356ZM30.4332 8.7366C30.4336 9.10004 30.5768 9.44849 30.8312 9.70565C31.0857 9.9628 31.4308 10.1077 31.791 10.1086C32.1519 10.0966 32.4944 9.94483 32.7475 9.68485C33.0007 9.42487 33.1449 9.07658 33.1505 8.71216C33.1432 8.34778 32.9939 8.00098 32.7348 7.74706C32.4757 7.49313 32.1279 7.35255 31.7668 7.35584C31.5875 7.35289 31.4095 7.38679 31.2436 7.45547C31.0777 7.52415 30.9274 7.62618 30.8018 7.75535C30.6763 7.88452 30.5781 8.03813 30.5132 8.20682C30.4483 8.37551 30.4181 8.55576 30.4245 8.7366H30.4332Z" fill="#006950"/>
<path d="M11.9686 43.2083C10.0157 43.2083 8.3362 41.5203 8.36734 39.5687C8.38091 38.6145 8.7648 37.7037 9.43655 37.032C10.1083 36.3603 11.0143 35.9812 11.9599 35.9763C13.9283 35.9763 15.5923 37.6399 15.5612 39.6019C15.5433 40.556 15.1585 41.4658 14.488 42.1388C13.8176 42.8118 12.9141 43.1953 11.9686 43.2083ZM11.9686 38.2264C11.7902 38.2243 11.6133 38.2579 11.4479 38.3253C11.2825 38.3927 11.132 38.4925 11.0051 38.619C10.8782 38.7454 10.7774 38.896 10.7085 39.062C10.6396 39.228 10.6041 39.4062 10.6038 39.5862C10.6117 39.949 10.7577 40.2948 11.0115 40.5519C11.2653 40.809 11.6074 40.9576 11.9668 40.9669C12.327 40.9611 12.6706 40.8137 12.9248 40.5562C13.179 40.2987 13.3237 39.9514 13.3281 39.5879C13.3298 39.407 13.2954 39.2276 13.227 39.0604C13.1586 38.8932 13.0576 38.7416 12.9299 38.6146C12.8023 38.4875 12.6506 38.3877 12.484 38.321C12.3174 38.2543 12.1391 38.2221 11.9599 38.2264H11.9686Z" fill="#006950"/>
</g>
<defs>
<clipPath id="clip0_102_9172">
<rect width="43.5349" height="48" fill="white" transform="translate(0.232544)"/>
</clipPath>
</defs>
</svg>
