<svg width="39" height="48" viewBox="0 0 39 48" fill="none" xmlns="http://www.w3.org/2000/svg">
<g clip-path="url(#clip0_102_9176)">
<path d="M9.18031 47.9949C8.56203 47.7214 8.33103 47.2323 8.34632 46.5732C8.3633 45.1209 8.34632 43.6686 8.34632 42.2164C8.34632 41.2125 8.76586 40.7913 9.76632 40.7913C16.2469 40.7913 22.7281 40.7913 29.2099 40.7913C30.2087 40.7913 30.6265 41.2125 30.6282 42.2164C30.6282 43.6686 30.618 45.1209 30.6282 46.5732C30.6367 47.2323 30.4125 47.7214 29.7925 47.9949H9.18031ZM10.5867 45.797H28.3912V43.0385H10.5867V45.797Z" fill="#006950"/>
<path d="M18.3866 20.9128C18.3866 20.0516 18.4036 19.2431 18.3679 18.4362C18.3679 18.319 18.1199 18.1594 17.9586 18.1084C15.9712 17.4748 13.9788 16.8566 11.9881 16.24C11.1184 15.9682 10.8925 15.6625 10.8925 14.7469C10.8925 11.3283 10.8925 7.90848 10.8925 4.48755C10.8925 3.31723 11.5057 2.86711 12.6233 3.21532C14.7788 3.89475 16.9292 4.57418 19.0915 5.22643C19.398 5.31305 19.7226 5.31305 20.0291 5.22643C22.1455 4.58946 24.2535 3.91853 26.3631 3.25948C27.4723 2.91977 28.0923 3.36479 28.0923 4.52662C28.0923 7.94641 28.0923 11.3662 28.0923 14.786C28.0923 15.71 27.8545 16.0243 26.9593 16.3045C24.9686 16.9109 22.9795 17.5445 20.9837 18.1509C20.6916 18.2392 20.5846 18.3598 20.593 18.6605C20.6134 19.3908 20.593 20.1229 20.593 20.9077H29.2371C30.2172 20.9077 30.6248 21.3153 30.6265 22.3039C30.6265 23.776 30.6265 25.2436 30.6265 26.7066C30.6265 27.6816 30.2002 28.1096 29.2337 28.1113C22.7349 28.1113 16.2373 28.1113 9.74086 28.1113C8.77267 28.1113 8.34803 27.6816 8.34464 26.7083C8.34464 25.2362 8.34464 23.7686 8.34464 22.3056C8.34464 21.317 8.75399 20.9077 9.73237 20.9077H18.3798L18.3866 20.9128ZM28.3997 23.1209H10.5952V25.876H28.3997V23.1209ZM13.104 5.65617C13.104 8.51657 13.104 11.292 13.1159 14.0675C13.1159 14.1762 13.2858 14.3393 13.42 14.3817C14.2913 14.6705 15.1695 14.9355 16.046 15.2089L18.3883 15.9393V15.355C18.3883 13.1469 18.3883 10.9217 18.3883 8.70681C18.3883 8.2431 18.5123 7.66898 18.2881 7.34795C18.0639 7.02692 17.4864 7.00823 17.0583 6.88084C15.764 6.47658 14.4714 6.08081 13.104 5.65617ZM25.8824 5.69014C24.2076 6.2099 22.6076 6.71948 21.0007 7.20866C20.6984 7.29869 20.5897 7.42099 20.5914 7.75051C20.6066 10.3425 20.5914 12.9329 20.6015 15.5249C20.6015 15.6591 20.6185 15.7916 20.6304 15.9716C22.2763 15.462 23.8764 14.9525 25.4832 14.4633C25.7839 14.3716 25.8943 14.251 25.8926 13.9214C25.8739 11.7507 25.8824 9.58157 25.8824 7.4108V5.69014Z" fill="#006950"/>
<path d="M15.6264 34.476C15.6264 35.631 15.6264 36.786 15.6264 37.9411C15.6257 38.1588 15.5983 38.3755 15.5449 38.5865C15.48 38.8045 15.3481 38.9965 15.1679 39.1352C14.9877 39.274 14.7683 39.3524 14.541 39.3594C14.3054 39.3588 14.0764 39.2816 13.8886 39.1394C13.7008 38.9972 13.5643 38.7978 13.4998 38.5712C13.4465 38.3441 13.4203 38.1115 13.4216 37.8782C13.4216 35.601 13.4216 33.3227 13.4216 31.0432C13.4216 30.092 13.8327 29.545 14.5359 29.5518C15.2391 29.5586 15.6315 30.0971 15.6332 31.0568L15.6264 34.476Z" fill="#006950"/>
<path d="M20.6134 34.4574C20.6134 35.6889 20.6236 36.922 20.6134 38.1535C20.6032 39.013 19.934 39.531 19.1951 39.2864C18.9976 39.2349 18.8212 39.1225 18.6911 38.9652C18.5609 38.8079 18.4835 38.6137 18.4698 38.41C18.4409 38.0991 18.4392 37.7866 18.4375 37.4758C18.4375 35.2914 18.4375 33.107 18.4375 30.9244C18.4375 30.3706 18.5564 29.8899 19.1085 29.6504C19.8524 29.3243 20.6066 29.8729 20.6168 30.7596C20.6253 31.9911 20.6134 33.2174 20.6134 34.4574Z" fill="#006950"/>
<path d="M23.4398 34.4064C23.4398 33.1597 23.4297 31.9112 23.4398 30.6695C23.4274 30.4165 23.5088 30.1678 23.6683 29.971C23.8278 29.7742 24.0543 29.6431 24.3044 29.6028C24.5321 29.5508 24.7706 29.5776 24.9811 29.6788C25.1915 29.78 25.3614 29.9496 25.4629 30.16C25.5488 30.3595 25.5922 30.5747 25.5902 30.7918C25.5982 33.2412 25.5982 35.69 25.5902 38.1382C25.5902 38.872 25.1486 39.3594 24.5184 39.3662C23.8883 39.373 23.4331 38.8669 23.4297 38.1093C23.4297 36.8761 23.4297 35.6447 23.4297 34.4115L23.4398 34.4064Z" fill="#006950"/>
<path d="M33.526 14.6214C33.7417 14.4889 33.9048 14.3717 34.0814 14.2817C34.2983 14.171 34.5464 14.1377 34.7848 14.1871C35.0232 14.2365 35.2377 14.3657 35.3927 14.5534C35.5563 14.7458 35.6444 14.991 35.6407 15.2435C35.6369 15.496 35.5416 15.7385 35.3723 15.9259C35.0122 16.2712 34.6316 16.5945 34.2326 16.8941C33.2712 17.6664 32.3087 18.4347 31.345 19.199C30.9747 19.4861 30.5739 19.6169 30.1186 19.4148C29.9381 19.337 29.7829 19.2102 29.6709 19.0486C29.5589 18.8871 29.4945 18.6973 29.4851 18.5009C29.4375 18.0661 29.6549 17.7553 29.9726 17.4971C30.4329 17.1217 30.8915 16.7463 31.3671 16.393C31.4672 16.3348 31.543 16.2426 31.5808 16.1331C31.6185 16.0237 31.6156 15.9043 31.5726 15.7968C31.4622 15.4231 31.3637 15.046 31.2703 14.6689C31.0868 13.9403 31.3773 13.3593 32.0109 13.1759C32.602 13.006 33.154 13.3695 33.3697 14.0761C33.4173 14.2392 33.4614 14.4023 33.526 14.6214Z" fill="#006950"/>
<path d="M5.45365 14.5754C5.53868 14.2937 5.63789 14.0165 5.7509 13.7448C5.8566 13.5247 6.03493 13.3478 6.25584 13.2439C6.47674 13.1399 6.72673 13.1153 6.96368 13.1741C7.20324 13.2262 7.41599 13.3629 7.56293 13.5591C7.70987 13.7554 7.78116 13.998 7.76371 14.2425C7.70262 14.7359 7.5963 15.2226 7.44608 15.6965C7.34926 16.026 7.38832 16.2366 7.68388 16.4456C8.15268 16.7853 8.60111 17.1471 9.04273 17.5242C9.59477 17.9981 9.66781 18.6333 9.25846 19.1327C8.87288 19.6015 8.22912 19.6423 7.66689 19.2091C6.38957 18.2092 5.1196 17.1986 3.85699 16.1772C3.36271 15.778 3.23701 15.2922 3.45273 14.8183C3.54001 14.5991 3.70066 14.4169 3.90728 14.3029C4.11389 14.1889 4.35367 14.1502 4.58568 14.1933C4.87444 14.2493 5.14111 14.4311 5.45365 14.5754Z" fill="#006950"/>
<path d="M4.71476 2.56318C4.37505 3.24261 4.07609 3.9679 3.66843 4.61336C3.43063 4.99384 2.83104 5.00913 2.43188 4.78322C2.03271 4.55731 1.75245 4.0902 1.90022 3.64347C2.11047 3.02633 2.37477 2.42894 2.69006 1.85827C2.90918 1.45911 3.40176 1.3487 3.84169 1.49478C4.06019 1.55696 4.2522 1.68923 4.38816 1.87123C4.52412 2.05323 4.5965 2.27487 4.59416 2.50203L4.71476 2.56318Z" fill="#006950"/>
<path d="M34.3906 2.50381C34.3896 2.27649 34.4629 2.05505 34.5993 1.87322C34.7357 1.6914 34.9279 1.55913 35.1464 1.49656C35.5864 1.35558 36.0772 1.46259 36.2981 1.86515C36.6131 2.43513 36.8768 3.03197 37.0862 3.64865C37.2374 4.09538 36.969 4.55569 36.5511 4.7884C36.1333 5.0211 35.5541 4.99223 35.3146 4.61854C34.9086 3.97138 34.6131 3.25968 34.27 2.56666L34.3906 2.50381Z" fill="#006950"/>
<path d="M5.56236 12.284C4.77422 12.284 4.23407 11.698 4.39034 11.0475C4.5334 10.4592 4.73365 9.88629 4.98824 9.33699C5.04544 9.21575 5.12599 9.10699 5.22528 9.01694C5.32457 8.92688 5.44066 8.85729 5.56688 8.81217C5.69311 8.76704 5.827 8.74726 5.96088 8.75396C6.09476 8.76066 6.22601 8.7937 6.3471 8.8512C6.58637 8.95014 6.78045 9.13428 6.89183 9.36801C7.00321 9.60175 7.02397 9.86848 6.95009 10.1166C6.79781 10.6392 6.61519 11.1525 6.40316 11.6538C6.33854 11.8287 6.22482 11.9811 6.07568 12.0929C5.92653 12.2047 5.7483 12.2711 5.56236 12.284Z" fill="#006950"/>
<path d="M33.4614 12.2859C33.276 12.2785 33.0967 12.2169 32.9458 12.1089C32.7949 12.0008 32.6789 11.851 32.6121 11.6778C32.3872 11.1482 32.1949 10.6054 32.0363 10.0523C31.978 9.80687 32.0113 9.54864 32.1298 9.326C32.2483 9.10335 32.444 8.93158 32.6801 8.84289C33.1625 8.65265 33.7536 8.80382 33.9727 9.27603C34.2508 9.86522 34.4687 10.481 34.6232 11.1139C34.7489 11.7067 34.1969 12.274 33.4614 12.2859Z" fill="#006950"/>
<path d="M3.77377 12.5594C3.75848 13.0808 3.55466 13.4087 3.1538 13.6006C2.75293 13.7925 2.30451 13.7704 1.98348 13.4392C1.57251 13.0143 1.19701 12.5564 0.86072 12.0702C0.714853 11.8541 0.657333 11.5904 0.699986 11.3332C0.742639 11.076 0.882217 10.8449 1.09002 10.6875C1.27978 10.5236 1.5233 10.4355 1.77399 10.4399C2.02469 10.4442 2.26497 10.5409 2.44888 10.7113C2.86738 11.15 3.25716 11.6153 3.6158 12.1041C3.69612 12.2448 3.74968 12.3992 3.77377 12.5594Z" fill="#006950"/>
<path d="M5.84773 4.09692C6.62737 4.20054 7.15054 4.85449 6.93652 5.53901C6.76302 6.08718 6.54074 6.61869 6.27237 7.12718C6.15199 7.36724 5.94172 7.55008 5.68726 7.63596C5.43281 7.72183 5.15475 7.70381 4.91351 7.58579C4.67205 7.48848 4.47699 7.30246 4.36834 7.06589C4.25969 6.82931 4.24568 6.56013 4.3292 6.31356C4.50598 5.75071 4.74648 5.20989 5.04601 4.70162C5.20228 4.43494 5.57256 4.29396 5.84773 4.09692Z" fill="#006950"/>
<path d="M33.1455 4.09692C33.4207 4.29566 33.7893 4.43664 33.9523 4.70671C34.2505 5.21583 34.4898 5.75719 34.6657 6.32036C34.7473 6.56733 34.7313 6.83612 34.6211 7.0717C34.5109 7.30728 34.3148 7.4918 34.0729 7.58749C33.8307 7.7049 33.5518 7.72168 33.2972 7.63416C33.0426 7.54664 32.8329 7.36194 32.7141 7.12039C32.4469 6.61094 32.2253 6.07892 32.0516 5.53052C31.8359 4.85109 32.3676 4.19714 33.1455 4.09692Z" fill="#006950"/>
<path d="M36.4034 13.7059C35.4709 13.6923 34.9239 12.8413 35.3503 12.1534C35.7081 11.6082 36.1282 11.1066 36.6021 10.6586C36.9418 10.3189 37.5142 10.3817 37.8913 10.6841C38.2684 10.9864 38.457 11.5249 38.2073 11.8969C37.7961 12.4787 37.3419 13.0289 36.8484 13.5428C36.7329 13.6719 36.4832 13.6838 36.4034 13.7059Z" fill="#006950"/>
<path d="M3.87057 8.30608C3.76696 8.85642 3.50368 9.2437 3.05356 9.40846C2.84205 9.4955 2.60703 9.50704 2.38801 9.44115C2.16899 9.37526 1.97935 9.23595 1.85097 9.04666C1.52584 8.57193 1.23792 8.07276 0.989795 7.55362C0.877246 7.31005 0.863561 7.03232 0.951633 6.77888C1.0397 6.52544 1.22266 6.31604 1.46199 6.19476C1.6887 6.06625 1.95541 6.02758 2.20928 6.08641C2.46315 6.14523 2.68566 6.29727 2.83274 6.51239C3.21322 7.08651 3.52746 7.70479 3.87057 8.30608Z" fill="#006950"/>
<path d="M36.3133 9.54255C35.5201 9.46442 34.9918 8.70515 35.3061 7.98836C35.5521 7.45092 35.8502 6.9389 36.1961 6.45964C36.3434 6.26474 36.5558 6.12923 36.7946 6.07778C37.0334 6.02634 37.2828 6.0624 37.4972 6.17937C37.9457 6.40528 38.2395 6.93014 38.0391 7.38876C37.7555 8.00934 37.4143 8.60191 37.0199 9.15867C36.8858 9.35741 36.5562 9.41855 36.3133 9.54255Z" fill="#006950"/>
<path d="M8.52127 1.01074C8.52127 1.76661 7.50213 2.85879 6.84478 2.90465C6.07533 2.959 5.43836 2.05536 5.82564 1.39292C6.10782 0.946166 6.45666 0.545197 6.86007 0.203917C7.16922 -0.0729505 7.57517 -0.0627594 7.95226 0.147864C8.11444 0.229163 8.25239 0.351685 8.35227 0.503137C8.45214 0.65459 8.51042 0.829646 8.52127 1.01074Z" fill="#006950"/>
<path d="M30.4651 0.995316C30.4799 0.815515 30.5413 0.642664 30.6431 0.493756C30.745 0.344849 30.8838 0.225012 31.046 0.146029C31.2126 0.0403071 31.4087 -0.00930842 31.6056 0.00444555C31.8024 0.0181995 31.9896 0.0946002 32.1399 0.222464C32.4907 0.525419 32.8058 0.867337 33.0792 1.24161C33.3799 1.65266 33.3272 2.10109 33.0164 2.49006C32.8788 2.67098 32.6853 2.80137 32.466 2.86096C32.2467 2.92056 32.0138 2.90601 31.8036 2.81958C31.272 2.64293 30.4583 1.58642 30.4651 0.995316Z" fill="#006950"/>
</g>
<defs>
<clipPath id="clip0_102_9176">
<rect width="37.6319" height="48" fill="white" transform="translate(0.684052)"/>
</clipPath>
</defs>
</svg>
