<svg width="20" height="20" viewBox="0 0 20 20" fill="none" xmlns="http://www.w3.org/2000/svg">
<path d="M5.58335 16.0834L3.29168 15.5834C3.08335 15.5418 2.91668 15.434 2.79168 15.2601C2.66668 15.0868 2.61807 14.8959 2.64585 14.6876L2.87501 12.3334L1.31251 10.5418C1.17362 10.389 1.10418 10.2084 1.10418 10.0001C1.10418 9.79176 1.17362 9.6112 1.31251 9.45842L2.87501 7.66676L2.64585 5.31259C2.61807 5.10426 2.66668 4.91342 2.79168 4.74009C2.91668 4.5662 3.08335 4.45842 3.29168 4.41676L5.58335 3.91676L6.79168 1.87509C6.90279 1.69453 7.05557 1.57648 7.25001 1.52092C7.44446 1.46537 7.6389 1.47231 7.83335 1.54176L10 2.45842L12.1667 1.54176C12.3611 1.47231 12.5556 1.46537 12.75 1.52092C12.9445 1.57648 13.0972 1.69453 13.2083 1.87509L14.4167 3.91676L16.7083 4.41676C16.9167 4.45842 17.0833 4.5662 17.2083 4.74009C17.3333 4.91342 17.382 5.10426 17.3542 5.31259L17.125 7.66676L18.6875 9.45842C18.8264 9.6112 18.8958 9.79176 18.8958 10.0001C18.8958 10.2084 18.8264 10.389 18.6875 10.5418L17.125 12.3334L17.3542 14.6876C17.382 14.8959 17.3333 15.0868 17.2083 15.2601C17.0833 15.434 16.9167 15.5418 16.7083 15.5834L14.4167 16.0834L13.2083 18.1251C13.0972 18.3056 12.9445 18.4237 12.75 18.4793C12.5556 18.5348 12.3611 18.5279 12.1667 18.4584L10 17.5418L7.83335 18.4584C7.6389 18.5279 7.44446 18.5348 7.25001 18.4793C7.05557 18.4237 6.90279 18.3056 6.79168 18.1251L5.58335 16.0834ZM8.54168 12.3751C8.69446 12.5279 8.8889 12.6043 9.12501 12.6043C9.36112 12.6043 9.55557 12.5279 9.70835 12.3751L13.25 8.83342C13.4167 8.66676 13.5 8.4687 13.5 8.23926C13.5 8.01037 13.4167 7.81259 13.25 7.64592C13.0833 7.47926 12.8856 7.39592 12.6567 7.39592C12.4272 7.39592 12.2292 7.47926 12.0625 7.64592L9.12501 10.5834L7.91668 9.39592C7.75001 9.24315 7.55224 9.17009 7.32335 9.17676C7.0939 9.18398 6.90279 9.26398 6.75001 9.41676C6.59724 9.56954 6.52085 9.76398 6.52085 10.0001C6.52085 10.2362 6.59724 10.4306 6.75001 10.5834L8.54168 12.3751ZM7.87501 16.6251L10 15.7084L12.1667 16.6251L13.3333 14.6251L15.625 14.0834L15.4167 11.7501L16.9583 10.0001L15.4167 8.20842L15.625 5.87509L13.3333 5.37509L12.125 3.37509L10 4.29176L7.83335 3.37509L6.66668 5.37509L4.37501 5.87509L4.58335 8.20842L3.04168 10.0001L4.58335 11.7501L4.37501 14.1251L6.66668 14.6251L7.87501 16.6251Z" fill="#006950"/>
</svg>
